<?xml version="1.0" encoding="UTF-8" standalone="no" ?>
<!DOCTYPE svg PUBLIC "-//W3C//DTD SVG 1.1//EN" "http://www.w3.org/Graphics/SVG/1.1/DTD/svg11.dtd">
<svg xmlns="http://www.w3.org/2000/svg" xmlns:xlink="http://www.w3.org/1999/xlink" version="1.1" width="476" height="486" viewBox="0 0 476 486" xml:space="preserve">
<desc>Created with Fabric.js 4.6.0</desc>
<defs>
</defs>
<g transform="matrix(0.81 0 0 -0.81 238 242.59)" id="QP2R8D8l3GX9hPoiXSs06"  >
<g style="opacity: 0.1;" vector-effect="non-scaling-stroke"   >
		<g transform="matrix(1 0 0 1 0 6.19)" id="7gDKe7Dg0vqn6m9X7K4Ki"  >
<path style="stroke: none; stroke-width: 1; stroke-dasharray: none; stroke-linecap: butt; stroke-dashoffset: 0; stroke-linejoin: miter; stroke-miterlimit: 4; fill: rgb(232,91,42); fill-rule: nonzero; opacity: 1;" vector-effect="non-scaling-stroke"  transform=" translate(-300, -306.19)" d="M 593.813 12.375 C 269.277 12.375 6.188 275.465 6.188 600 L 593.813 600 L 593.813 12.375 z" stroke-linecap="round" />
</g>
		<g transform="matrix(1 0 0 1 -113.27 -127.49)" id="paEIDpaIN3uoQav89sRCT"  >
<path style="stroke: none; stroke-width: 1; stroke-dasharray: none; stroke-linecap: butt; stroke-dashoffset: 0; stroke-linejoin: miter; stroke-miterlimit: 4; fill: rgb(143,228,248); fill-rule: nonzero; opacity: 1;" vector-effect="non-scaling-stroke"  transform=" translate(-186.73, -172.51)" d="M 200.916 0.486 L 200.916 344.533 C 198.1 344.76300000000003 195.283 344.92400000000004 192.463 345.019 L 192.463 0 C 195.283 0.094 198.1 0.254 200.916 0.486 z M 232.318 5.998 L 232.318 339.02 C 235.15200000000002 338.248 237.97 337.397 240.77300000000002 336.477 L 240.77300000000002 8.543 C 237.971 7.621 235.152 6.772 232.318 5.998 z M 252.246 12.771 L 252.246 332.25 C 255.092 331.084 257.908 329.834 260.699 328.51 L 260.699 16.508 C 257.908 15.186 255.092 13.934 252.246 12.771 z M 212.389 1.809 L 212.389 343.209 C 215.217 342.785 218.037 342.291 220.84400000000002 341.728 L 220.84400000000002 3.289 C 218.037 2.727 215.219 2.232 212.389 1.809 z M 320.484 63.381 C 317.80199999999996 60.106 314.988 56.906 312.029 53.787 L 312.029 291.23199999999997 C 314.988 288.11299999999994 317.802 284.914 320.484 281.638 L 320.484 63.381 z M 272.176 22.49 L 272.176 322.529 C 275.03 320.898 277.84999999999997 319.183 280.627 317.379 L 280.627 27.639 C 277.85 25.834 275.029 24.119 272.176 22.49 z M 351.887 122.242 L 351.887 222.777 C 361.813 190.051 361.813 154.967 351.887 122.242 z M 340.412 251.178 L 340.412 93.842 C 337.85299999999995 88.846 335.03499999999997 83.949 331.957 79.172 L 331.957 265.84799999999996 C 335.035 261.068 337.853 256.172 340.412 251.178 z M 292.102 35.77 L 292.102 309.248 C 294.977 307.027 297.79499999999996 304.693 300.55499999999995 302.264 L 300.55499999999995 42.756 C 297.795 40.324 294.977 37.99 292.102 35.77 z M 112.752 16.508 L 112.752 328.51 C 115.541 329.834 118.359 331.084 121.205 332.25 L 121.205 12.771 C 118.359 13.934 115.543 15.186 112.752 16.508 z M 33.039 93.842 L 33.041000000000004 251.178 C 35.598000000000006 256.172 38.416000000000004 261.069 41.494 265.848 L 41.494 79.172 C 38.416 83.949 35.598 88.846 33.039 93.842 z M 172.535 0.486 L 172.535 344.533 C 175.351 344.76300000000003 178.168 344.92400000000004 180.988 345.019 L 180.988 0 C 178.168 0.094 175.352 0.254 172.535 0.486 z M 21.564 222.777 L 21.564 122.242 C 11.639 154.967 11.639 190.051 21.564 222.777 z M 72.896 42.756 L 72.896 302.264 C 75.658 304.694 78.474 307.028 81.349 309.248 L 81.349 35.77 C 78.475 37.99 75.656 40.324 72.896 42.756 z M 52.967 63.381 L 52.967 281.639 C 55.649 284.914 58.464999999999996 288.11400000000003 61.422 291.233 L 61.422 53.787 C 58.465 56.906 55.648 60.105 52.967 63.381 z M 92.824 27.641 L 92.824 317.379 C 95.601 319.184 98.422 320.899 101.277 322.529 L 101.277 22.49 C 98.422 24.119 95.602 25.834 92.824 27.641 z M 152.607 3.289 L 152.607 341.728 C 155.414 342.291 158.234 342.785 161.062 343.209 L 161.062 1.809 C 158.232 2.232 155.416 2.727 152.607 3.289 z M 132.678 8.543 L 132.678 336.47700000000003 C 135.481 337.39700000000005 138.299 338.24800000000005 141.133 339.02000000000004 L 141.133 6 C 138.299 6.772 135.48 7.621 132.678 8.543 z" stroke-linecap="round" />
</g>
</g>
</g>
</svg>