<?xml version="1.0" encoding="UTF-8"?>
<svg id="Calque_1" data-name="Calque 1" xmlns="http://www.w3.org/2000/svg" version="1.1" viewBox="0 0 301.3 173.3">
  <defs>
    <style>
      .cls-1 {
        fill: #f28f52;
      }

      .cls-1, .cls-2 {
        stroke-width: 0px;
      }

      .cls-2 {
        fill: #040504;
      }
    </style>
  </defs>
  <g>
    <path class="cls-2" d="M158.3,121.3c-.1,0-.2,0-.3-.1s-.1-.2-.1-.3v-13.6c0-.1,0-.3.1-.4,0,0,.2-.1.3-.1h5c1,0,1.8.2,2.5.5.7.3,1.3.8,1.7,1.4s.6,1.4.6,2.4-.2,1.7-.6,2.4c-.4.6-.9,1.1-1.7,1.4s-1.6.5-2.5.5h-4.2v5.5c0,.1,0,.2-.1.3s-.2.1-.4.1h-.4ZM159.1,114.1h4.1c1.2,0,2.1-.3,2.7-.8.6-.5.9-1.3.9-2.3s-.3-1.7-.9-2.3-1.5-.8-2.7-.8h-4.1s0,6.1,0,6.1Z"/>
    <path class="cls-2" d="M171.3,121.3c-.1,0-.2,0-.3-.1s-.1-.2-.1-.3v-13.6c0-.1,0-.3.1-.4,0,0,.2-.1.3-.1h4.8c1.5,0,2.6.3,3.5,1,.9.7,1.3,1.7,1.3,3.2s-.3,2-.8,2.7c-.6.7-1.3,1.1-2.3,1.4l3.3,5.7c0,0,0,.2,0,.2,0,.1,0,.2-.1.3,0,0-.2.1-.3.1h-.2c-.2,0-.4,0-.5-.2s-.2-.2-.3-.4l-3.3-5.6h-4.3v5.7c0,.1,0,.2-.1.3s-.2.1-.4.1h-.4ZM172.1,113.9h3.9c1.2,0,2.1-.2,2.7-.7.6-.5.9-1.2.9-2.2s-.3-1.7-.9-2.2c-.6-.5-1.5-.7-2.7-.7h-3.9v5.9h0Z"/>
    <path class="cls-2" d="M184.6,121.3c-.1,0-.2,0-.3-.1s-.1-.2-.1-.3v-13.6c0-.1,0-.2.1-.3,0,0,.2-.1.3-.1h.4c.1,0,.2,0,.3.1s.1.2.1.3v13.6c0,.1,0,.2-.1.3s-.2.1-.3.1h-.4Z"/>
    <path class="cls-2" d="M189.8,121.3c-.1,0-.3,0-.3-.1,0,0-.1-.2-.1-.3v-13.6c0-.1,0-.3.1-.4s.2-.1.3-.1h.5c.1,0,.2,0,.3.1,0,0,.1.1.1.2l4.7,9.2,4.7-9.2s0,0,.1-.2c0,0,.2-.1.3-.1h.5c.1,0,.3,0,.4.1s.1.2.1.4v13.6c0,.1,0,.2-.1.3s-.2.1-.4.1h-.4c-.1,0-.2,0-.3-.1s-.1-.2-.1-.3v-11.3l-4,7.8c0,.1-.1.2-.2.3-.1,0-.2.1-.4.1h-.5c-.2,0-.3,0-.4-.1,0,0-.2-.2-.2-.3l-4-7.8v11.3c0,.1,0,.2-.1.3s-.2.1-.3.1h-.4Z"/>
    <path class="cls-2" d="M204.5,121.3c-.1,0-.2,0-.3-.1,0,0-.1-.2-.1-.3s0-.1,0-.2l5.2-13.5c0-.1.1-.2.2-.3,0,0,.2-.1.4-.1h.7c.2,0,.3,0,.4.1,0,0,.2.2.2.3l5.3,13.5c0,0,0,.2,0,.2,0,.1,0,.2-.1.3s-.2.1-.3.1h-.4c-.1,0-.2,0-.3-.1,0,0-.1-.1-.1-.2l-1.3-3.3h-7.4l-1.3,3.3c0,0,0,.1-.1.2,0,0-.2.1-.3.1h-.4ZM207.1,116.4h6.4l-3.2-8.2-3.2,8.2h0Z"/>
    <path class="cls-2" d="M219.5,121.3c-.1,0-.2,0-.3-.1s-.1-.2-.1-.3v-13.6c0-.1,0-.2.1-.3,0,0,.2-.1.3-.1h.4c.1,0,.2,0,.3.1s.1.2.1.3v12.8h7.2c.1,0,.3,0,.4.1,0,0,.1.2.1.4v.3c0,.1,0,.2-.1.3s-.2.1-.4.1h-8,0Z"/>
    <path class="cls-1" d="M230.8,121.3c-.1,0-.2,0-.3-.1s-.1-.2-.1-.3v-13.6c0-.1,0-.3.1-.4,0,0,.2-.1.3-.1h5c1,0,1.8.2,2.5.5.7.3,1.3.8,1.7,1.4s.6,1.4.6,2.4-.2,1.7-.6,2.4c-.4.6-.9,1.1-1.7,1.4s-1.6.5-2.5.5h-4.2v5.5c0,.1,0,.2-.1.3s-.2.1-.4.1h-.4ZM231.7,114.1h4.1c1.2,0,2.1-.3,2.7-.8.6-.5.9-1.3.9-2.3s-.3-1.7-.9-2.3-1.5-.8-2.7-.8h-4.1s0,6.1,0,6.1Z"/>
    <path class="cls-1" d="M243.9,121.3c-.1,0-.2,0-.3-.1s-.1-.2-.1-.3v-13.6c0-.1,0-.3.1-.4,0,0,.2-.1.3-.1h4.8c1.5,0,2.6.3,3.5,1,.9.7,1.3,1.7,1.3,3.2s-.3,2-.8,2.7c-.6.7-1.3,1.1-2.3,1.4l3.3,5.7c0,0,0,.2,0,.2,0,.1,0,.2-.1.3s-.2.1-.3.1h-.2c-.2,0-.4,0-.5-.2s-.2-.2-.3-.4l-3.3-5.6h-4.3v5.7c0,.1,0,.2-.1.3,0,0-.2.1-.4.1h-.4ZM244.7,113.9h3.9c1.2,0,2.1-.2,2.7-.7.6-.5.9-1.2.9-2.2s-.3-1.7-.9-2.2c-.6-.5-1.5-.7-2.7-.7h-3.9v5.9h0Z"/>
    <path class="cls-1" d="M261.6,121.5c-1.1,0-2.1-.2-2.9-.6s-1.4-1-1.8-1.9-.7-1.9-.7-3.2c0-.6,0-1.2,0-1.7s0-1.1,0-1.7c0-1.3.3-2.4.8-3.2.5-.8,1.1-1.5,1.9-1.9s1.8-.6,2.8-.6,2,.2,2.8.6,1.4,1,1.9,1.9c.5.8.7,1.9.7,3.2,0,.6,0,1.2,0,1.7s0,1.1,0,1.7c0,1.3-.3,2.4-.7,3.2s-1.1,1.5-1.9,1.9-1.8.6-2.9.6h0ZM261.6,120.2c1.2,0,2.2-.4,2.9-1.1.8-.7,1.2-1.9,1.2-3.5,0-.6,0-1.2,0-1.6s0-1,0-1.6c0-1.1-.2-2-.6-2.6s-.9-1.2-1.5-1.5c-.6-.3-1.3-.5-2.1-.5s-1.5.2-2.1.5-1.1.8-1.5,1.5-.6,1.6-.6,2.6c0,.6,0,1.2,0,1.6s0,1,0,1.6c0,1.6.5,2.8,1.2,3.5s1.7,1.1,2.9,1.1Z"/>
    <path class="cls-1" d="M270.9,121.3c-.1,0-.2,0-.3-.1,0,0-.1-.2-.1-.3v-13.6c0-.1,0-.3.1-.4s.2-.1.3-.1h4.4c1.5,0,2.6.2,3.4.6.8.4,1.4,1.1,1.8,1.9s.5,1.9.6,3.1c0,.6,0,1.2,0,1.7s0,1,0,1.7c0,1.3-.2,2.3-.6,3.2-.3.8-.9,1.5-1.7,1.9-.8.4-1.9.6-3.4.6h-4.5ZM271.7,120h3.6c1.1,0,2-.1,2.6-.4s1.1-.8,1.4-1.4c.3-.7.4-1.5.4-2.6,0-.4,0-.8,0-1.1v-.9c0-.3,0-.7,0-1.1,0-1.5-.4-2.6-1.1-3.4s-1.8-1.1-3.5-1.1h-3.5v12h0Z"/>
  </g>
  <path class="cls-1" d="M131.4,26.6c4.2,4.9,5.9,10,6.6,12.3.3,1.2,1,3.8,1.2,7.3.4,7.4-1.5,14.2-5.7,20.3-1.9,2.7-4.1,5.3-6.2,7.9-.6.8-.5,1.2.2,1.8,5.1,4.1,10.2,8.2,15.3,12.4-1.7,2-3.3,4-4.7,6.2-.9-.7-1.8-1.4-2.6-2.2-6.2-5-12.4-10-18.6-15.1-.8-.7-.9-1.4-.2-2.3,3-3.7,6.1-7.5,9.1-11.2,5.4-6.9,7.1-14.7,4.7-23.2-1.2-4.3-3.6-8-6.9-11.1-8.4-7.8-20.7-8.5-29.6-3-2.2,1.3-4.3,3.1-6,5-5.9,7-11.6,14.2-17.4,21.3-.6.8-.6,1.3.2,1.9,2,1.6,3.9,3.2,5.9,4.8,1.3,1.1,1.3,1.1,2.4-.2l13.9-17.1c.9-1.1,1.7-2.2,2.6-3.2,4.2-5,10.4-6.6,16.5-4.4,6.1,2.3,10,9.4,8.7,15.9-.5,2.5-1.6,4.8-3.2,6.8-5.5,6.7-11,13.5-16.4,20.3-.9,1.2-.9,1.2.2,2.1,9.6,7.8,19.1,15.5,28.7,23.3.8.6.8,1.3.2,2.1-1,1.2-2,2.4-3,3.7-.6.8-1.4.9-2.2.2-7.2-5.9-14.5-11.7-21.7-17.6-4.3-3.5-8.6-7-12.9-10.4-.9-.7-.9-1.5-.2-2.4,7-8.7,14.1-17.3,21.1-26,1.5-1.9,2.2-3.9,1.6-6.3-.7-2.4-2.3-4-4.7-4.6-2.5-.6-4.8,0-6.5,2.1-7.2,8.9-14.4,17.7-21.6,26.6-.7.8-1.4.9-2.3.2-6-4.9-12-9.7-18-14.6-.8-.7-1-1.1-.2-2,7.3-8.9,14.5-18,21.9-26.9,5.3-6.3,9.2-8.1,12.9-9.7,7.9-3.2,15.3-2.3,18.4-1.7,2.4.5,11.5,2.5,18.6,10.8h0Z"/>
  <path class="cls-1" d="M43.9,146.8c-4.2-4.9-5.9-10-6.6-12.3-.3-1.2-1-3.8-1.2-7.3-.4-7.4,1.5-14.2,5.7-20.3,1.9-2.7,4.1-5.3,6.2-7.9.6-.8.5-1.2-.2-1.8-5.1-4.1-10.2-8.2-15.3-12.4,1.7-2,3.3-4,4.7-6.2.9.7,1.8,1.4,2.6,2.2,6.2,5,12.4,10,18.6,15.1.8.7.9,1.4.2,2.3-3,3.7-6.1,7.5-9.1,11.2-5.4,6.9-7.1,14.7-4.7,23.2,1.2,4.3,3.6,8,6.9,11.1,8.4,7.8,20.7,8.5,29.6,3,2.2-1.3,4.3-3.1,6-5,5.9-7,11.6-14.2,17.4-21.3.6-.8.6-1.3-.2-1.9-2-1.6-3.9-3.2-5.9-4.8-1.3-1.1-1.3-1.1-2.4.2-4.6,5.7-9.3,11.4-13.9,17.1-.9,1.1-1.7,2.2-2.6,3.2-4.2,5-10.4,6.6-16.5,4.4-6.1-2.3-10-9.4-8.7-15.9.5-2.5,1.6-4.8,3.2-6.8,5.5-6.7,11-13.5,16.4-20.3.9-1.2.9-1.2-.2-2.1-9.6-7.8-19.1-15.5-28.7-23.3-.8-.6-.8-1.3-.2-2.1,1-1.2,2-2.4,3-3.7.6-.8,1.4-.9,2.2-.2,7.2,5.9,14.5,11.7,21.7,17.6,4.3,3.5,8.6,7,12.9,10.4.9.7.9,1.5.2,2.4-7,8.7-14.1,17.3-21.1,26-1.5,1.9-2.2,3.9-1.6,6.3.7,2.4,2.3,4,4.7,4.6,2.5.6,4.8,0,6.5-2.1,7.2-8.9,14.4-17.7,21.6-26.6.7-.8,1.4-.9,2.3-.2,6,4.9,12,9.7,18,14.6.8.7,1,1.1.2,2-7.3,8.9-14.5,18-21.9,26.9-5.3,6.3-9.2,8.1-12.9,9.7-7.9,3.2-15.3,2.3-18.4,1.7-2.4-.5-11.5-2.5-18.6-10.8h0Z"/>
</svg>