<?xml version="1.0" encoding="UTF-8"?>
<svg id="Calque_1" data-name="Calque 1" xmlns="http://www.w3.org/2000/svg" version="1.1" viewBox="0 0 166.8 216.3">
  <defs>
    <style>
      .cls-1 {
        fill: #f28f52;
        stroke-width: 0px;
        opacity: .1;
      }
    </style>
  </defs>
  <path class="cls-1" d="M149.6,17.2c6.4,7.4,9,15.1,10,18.6.5,1.8,1.6,5.8,1.8,11,.6,11.2-2.2,21.5-8.6,30.6-2.9,4.2-6.2,8.1-9.4,12-.9,1.1-.8,1.8.3,2.7,7.7,6.2,15.4,12.5,23.1,18.7-2.6,3-5,6.1-7.1,9.3-1.3-1.1-2.7-2.2-4-3.2-9.4-7.6-18.7-15.2-28.1-22.8-1.3-1-1.4-2.2-.3-3.5,4.6-5.7,9.3-11.3,13.8-17,8.2-10.5,10.7-22.2,7-35.1-1.9-6.5-5.5-12.1-10.5-16.8-12.7-11.8-31.2-12.9-44.8-4.6-3.3,2-6.6,4.6-9.1,7.6-8.9,10.6-17.6,21.5-26.3,32.2-1,1.2-.9,1.9.3,2.8,3,2.3,5.9,4.8,8.9,7.2,2,1.6,2,1.6,3.6-.3,7-8.6,14-17.2,21-25.9,1.3-1.6,2.6-3.3,4-4.9,6.3-7.5,15.8-10,25-6.6,9.3,3.5,15.2,14.2,13.2,24-.8,3.8-2.4,7.2-4.8,10.2-8.3,10.2-16.6,20.4-24.9,30.6-1.4,1.8-1.4,1.8.4,3.2,14.5,11.8,28.9,23.5,43.4,35.2,1.2,1,1.3,2,.3,3.2-1.5,1.9-3,3.7-4.5,5.5-1,1.2-2.1,1.3-3.3.3-10.9-8.9-21.9-17.8-32.8-26.7-6.5-5.3-13-10.5-19.4-15.8-1.3-1-1.4-2.2-.3-3.6,10.6-13.1,21.2-26.2,31.9-39.3,2.3-2.8,3.3-6,2.3-9.6-1-3.7-3.4-6.1-7.1-6.9-3.8-.9-7.3,0-9.9,3.2-10.9,13.4-21.8,26.9-32.7,40.3-1,1.2-2.2,1.3-3.4.3-9.1-7.3-18.1-14.7-27.2-22-1.3-1-1.4-1.7-.4-3,11.1-13.5,21.9-27.2,33.1-40.6,8-9.5,13.9-12.3,19.6-14.6C105.6-1.4,116.6,0,121.4,1c3.6.7,17.5,3.8,28.1,16.3Z"/>
  <path class="cls-1" d="M17.2,199.1c-6.4-7.4-9-15.1-10-18.6-.5-1.8-1.6-5.8-1.8-11-.6-11.2,2.2-21.5,8.6-30.6,2.9-4.1,6.2-8.1,9.4-12,.9-1.1.8-1.8-.3-2.7C15.4,117.9,7.7,111.7,0,105.4c2.6-3,5-6.1,7.1-9.3,1.3,1.1,2.7,2.2,4,3.2,9.4,7.6,18.7,15.2,28.1,22.8,1.3,1,1.4,2.2.3,3.5-4.6,5.7-9.3,11.3-13.8,17-8.2,10.5-10.7,22.2-7,35.1,1.9,6.6,5.5,12.1,10.5,16.8,12.7,11.8,31.2,12.9,44.8,4.6,3.3-2,6.6-4.6,9.1-7.6,8.9-10.6,17.6-21.5,26.3-32.2,1-1.2.9-1.9-.3-2.8-3-2.3-5.9-4.8-8.9-7.2-2-1.6-2-1.6-3.6.3-7,8.6-14,17.2-21,25.9-1.3,1.6-2.6,3.3-4,4.9-6.3,7.5-15.8,10.1-25,6.6-9.3-3.5-15.2-14.2-13.2-24,.8-3.8,2.4-7.2,4.8-10.2,8.3-10.2,16.6-20.4,24.9-30.6,1.4-1.8,1.4-1.8-.4-3.2-14.5-11.8-28.9-23.5-43.4-35.2-1.2-1-1.3-2-.3-3.2,1.5-1.8,3-3.7,4.5-5.5,1-1.2,2.1-1.3,3.3-.3,11,8.9,21.9,17.8,32.8,26.7,6.5,5.3,13,10.5,19.5,15.8,1.3,1,1.4,2.2.3,3.6-10.6,13.1-21.2,26.2-31.9,39.3-2.3,2.8-3.3,6-2.3,9.6,1,3.7,3.4,6.1,7.1,6.9,3.8.9,7.3,0,9.9-3.2,10.9-13.4,21.8-26.9,32.7-40.3,1-1.2,2.2-1.3,3.4-.3,9.1,7.4,18.1,14.7,27.2,22,1.3,1,1.4,1.7.4,3-11.1,13.5-21.9,27.2-33.1,40.6-8,9.5-13.9,12.3-19.6,14.6-12,4.9-23.1,3.4-27.9,2.5-3.6-.7-17.5-3.9-28.1-16.3h0Z"/>
</svg>