<svg version="1.2" xmlns="http://www.w3.org/2000/svg" viewBox="0 0 457 462" width="457" height="462">
	<title>Collab-bro-svg</title>
	<style>
		.s0 { fill: #f28f52 } 
		.s1 { opacity: .8;fill: #ffffff } 
		.s2 { fill: #bababa } 
		.s3 { fill: none;stroke: #000000;stroke-miterlimit:10 } 
		.s4 { fill: none;stroke: #263238;stroke-linecap: round;stroke-linejoin: round;stroke-width: 3 } 
		.s5 { fill: #ffffff } 
		.s6 { fill: none;stroke: #263238;stroke-linecap: round;stroke-linejoin: round;stroke-width: 2 } 
		.s7 { fill: #263238;stroke: #263238;stroke-linecap: round;stroke-linejoin: round } 
		.s8 { fill: #ffffff;stroke: #263238;stroke-linecap: round;stroke-miterlimit:10 } 
		.s9 { fill: none;stroke: #263238;stroke-linecap: round;stroke-miterlimit:10 } 
		.s10 { fill: #263238;stroke: #263238;stroke-linecap: round;stroke-miterlimit:10 } 
		.s11 { fill: #f28f52;stroke: #263238;stroke-linecap: round;stroke-miterlimit:10 } 
		.s12 { fill: #ffffff;stroke: #263238;stroke-linecap: round;stroke-linejoin: round;stroke-width: 2 } 
	</style>
	<g id="freepik--background-simple--inject-323">
		<path class="s0" d="m403.7 168.5q-1-3.2-2.1-6.4-1.1-3.2-2.4-6.3-1.3-3.1-2.8-6.2-1.4-3-3-6c-21.7-40.4-59.9-70.9-101.6-89-33.2-14.3-74.2-21.8-109.3-8.9-17.8 6.5-34.6 19-44.1 35.7-12.4 21.7-11.2 48.6-21.1 71.4-8 18.5-27.9 29.6-43.5 41-24.3 17.8-48.2 38.7-56.6 68.7-11.3 39.9-7.9 87.5 14.8 123 17 26.5 46.1 34.5 76.1 35 28.4 0.5 63-6.6 89.5 6.3 45 22 104.5 46.7 154.9 29.3 52-18 77.5-52.9 85-98.3 7.5-45.3-13.2-83.1-19.8-119-4.1-22.7-6.9-47.7-14-70.3z"/>
		<path class="s1" d="m403.7 168.5q-1-3.2-2.1-6.4-1.1-3.2-2.4-6.3-1.3-3.1-2.8-6.2-1.4-3-3-6c-21.7-40.4-59.9-70.9-101.6-89-33.2-14.3-74.2-21.8-109.3-8.9-17.8 6.5-34.6 19-44.1 35.7-12.4 21.7-11.2 48.6-21.1 71.4-8 18.5-27.9 29.6-43.5 41-24.3 17.8-48.2 38.7-56.6 68.7-11.3 39.9-7.9 87.5 14.8 123 17 26.5 46.1 34.5 76.1 35 28.4 0.5 63-6.6 89.5 6.3 45 22 104.5 46.7 154.9 29.3 52-18 77.5-52.9 85-98.3 7.5-45.3-13.2-83.1-19.8-119-4.1-22.7-6.9-47.7-14-70.3z"/>
	</g>
	<g id="freepik--Plants--inject-323">
		<path class="s2" d="m24.6 304.7c-0.3-2.9-0.3-5.6-0.3-7.9q0-2 0-3.7c1-0.9 5.1-4.3 6.3-6.7 1.1-2.3 1.9-5.5 0.7-7.9q-0.4-0.9-1.1-1.5-0.8-0.7-1.7-1-0.9-0.3-1.9-0.2-0.9 0.1-1.8 0.6c-3.2 2-3.5 8.9-2.6 12.3 0.1 0.2 1.8 4.6 1.8 4.6l0.1-0.1q-0.1 1.6-0.1 3.5c0 2.4 0 5 0.1 8 0 0.5 0.1 1 0.2 1.5 0.3 0.5 0.5 0.9 0.5 0.9 0-0.8-0.1-1.7-0.2-2.4z"/>
		<path class="s2" d="m14.2 297.3c-4.3 0.7-4.9 4.8-0.8 7.4 3.4 2.2 9.3 2.4 11 2.4 0-0.3 0-0.6-0.1-0.9-1.6-2.5-6.5-9.5-10.1-8.9z"/>
		<path class="s2" d="m100.6 278.2c-3.9-0.1-7.9 5.5-9 8.7-0.1 0.2-1.1 4.8-1 4.8q-0.9 1.3-2 2.8c-1.3 2-2.7 4.2-4.2 6.7l-0.5 0.9c0 0.7-0.1 1.1-0.1 1.1l-0.3-0.3q-0.5 0.8-0.9 1.6-0.5 0.8-0.9 1.7-0.4 0.8-0.8 1.6-0.4 0.9-0.7 1.7-0.6 1.2-1 2.4-0.5 1.2-0.9 2.5-0.5 1.2-0.8 2.5-0.4 1.2-0.7 2.5c-0.2 0.8 0 0.1 0 0.1-0.1-1.1-0.4-4.2-0.5-4.5-0.7-3.3-4.1-9.4-8-9.8q-0.9-0.1-1.8 0.2-0.9 0.4-1.6 1-0.7 0.7-1.1 1.6-0.3 0.9-0.3 1.8c0 2.8 2.2 5.3 4.3 6.9 2.3 1.7 8.4 3.1 8.9 3.2q-0.3 1.3-0.6 2.7-0.2 1.3-0.4 2.6-0.2 1.3-0.3 2.6-0.2 1.4-0.3 2.7-0.2 3.1-0.4 6.3c-0.1-1-0.2-1.9-0.2-2-0.8-3.4-4.2-9.5-8-9.9q-1 0-1.9 0.3-0.9 0.3-1.6 1-0.7 0.6-1 1.5-0.4 0.9-0.3 1.9c0 2.7 2.2 5.2 4.2 6.8 2.1 1.6 7.3 2.9 8.7 3.2 0 0.8-0.1 1.6-0.1 2.4-0.1 3.9-0.2 7.8-0.4 11.5q-0.1 2-0.3 4c-0.1-0.9-0.2-1.6-0.2-1.7-0.7-3.4-4.2-9.4-8-9.8q-1-0.1-1.9 0.2-0.9 0.3-1.6 1-0.7 0.7-1 1.6-0.4 0.8-0.3 1.8c0 2.7 2.2 5.3 4.2 6.8 2.1 1.6 6.8 2.8 8.4 3.2q-0.1 1.4-0.3 2.7 0.9 0.3 1.8 0.4 0.3-2.6 0.5-5.3c1.4 0.4 6.5 1.8 9 1.4 2.5-0.4 5.6-1.5 6.9-3.9q0.5-0.8 0.6-1.8 0.1-1-0.2-1.9-0.3-0.9-1-1.6-0.6-0.7-1.5-1.1c-3.6-1.5-9.4 2.1-11.6 4.7-0.1 0.2-1.5 2.2-2.2 3.4q0.2-2 0.2-4c0.2-3.8 0.2-7.7 0.2-11.5q0-1.8 0-3.6c0.5 0.2 6.5 1.9 9.3 1.5 2.6-0.4 5.7-1.6 6.9-3.9q0.5-0.9 0.6-1.8 0.1-1-0.2-1.9-0.3-0.9-1-1.7-0.6-0.7-1.5-1.1c-3.5-1.5-9.3 2.2-11.5 4.8-0.2 0.2-2.1 3.1-2.6 3.9q0-3.9 0.3-7.7 0-1.3 0.2-2.6 0.1-1.3 0.2-2.6 0.2-1.3 0.4-2.6 0.2-1.2 0.4-2.5c0.3 0.1 6.5 1.9 9.4 1.5 2.6-0.4 5.7-1.6 6.9-3.9q0.5-0.9 0.6-1.8 0.1-1-0.2-1.9-0.3-0.9-1-1.7-0.6-0.7-1.5-1.1c-3.5-1.5-9.3 2.2-11.5 4.8-0.2 0.2-2.3 3.4-2.6 4 0-0.2 0-0.4 0.1-0.6q0.2-1.3 0.6-2.5 0.3-1.3 0.7-2.5 0.4-1.2 0.8-2.4 0.5-1.3 1-2.5c0.7-1.7 1.5-3.4 2.3-5 1.1 0.5 6.3 2.6 9 2.5 2.6-0.1 5.7-0.9 7.3-3.2q0.5-0.7 0.7-1.7 0.2-0.9 0-1.9-0.2-0.9-0.7-1.7-0.6-0.8-1.4-1.3c-3.4-1.9-9.6 1.2-12 3.5-0.2 0.1-1.4 1.6-2.3 2.6 0.4-0.7 0.8-1.4 1.1-2.1 1.4-2.5 2.8-4.8 4.1-6.7q1.1-1.7 2.1-3c1.3-0.1 6.7-0.7 9-2 2.3-1.3 4.6-3.5 5-6.2q0.1-0.9-0.1-1.9-0.3-0.9-0.9-1.6-0.6-0.8-1.4-1.2-0.9-0.5-1.8-0.6z"/>
		<path class="s2" d="m48 360.8c0.3 0.5 0.5 1 0.8 1.5l1.7-0.5q-1-2-2-3.9c1.4-0.4 6.3-2.1 8.2-3.8 1.9-1.7 3.8-4.4 3.5-7.1q-0.1-1-0.5-1.8-0.5-0.9-1.2-1.5-0.8-0.6-1.7-0.9-0.9-0.2-1.9-0.1c-3.7 0.7-6.5 7-6.9 10.4 0 0.2 0 2.7 0 4-0.6-1.1-1.3-2.3-2-3.4-2-3.3-4.1-6.6-6.2-9.9l-1.9-3c0.5-0.1 6.4-2 8.5-3.9 1.9-1.7 3.8-4.4 3.5-7.1q-0.1-0.9-0.5-1.8-0.5-0.9-1.2-1.5-0.8-0.6-1.7-0.8-0.9-0.3-1.9-0.1c-3.8 0.7-6.5 7-6.9 10.3 0 0.3 0 3.9 0 4.8-1.4-2.3-2.8-4.5-4-6.7q-0.7-1.2-1.3-2.3-0.6-1.2-1.2-2.3-0.6-1.2-1.1-2.4-0.5-1.2-1-2.4c0.2 0 6.4-2 8.5-3.9 1.9-1.7 3.8-4.4 3.6-7.1q-0.1-1-0.6-1.8-0.4-0.9-1.2-1.5-0.7-0.6-1.6-0.9-1-0.2-1.9-0.1c-3.8 0.7-6.5 7-6.9 10.4 0 0.3 0 4.1 0 4.8q-0.1-0.3-0.3-0.6-0.4-1.2-0.8-2.4-0.5-1.2-0.8-2.5-0.4-1.2-0.7-2.5-0.3-1.3-0.5-2.6c-0.4-1.8-0.7-3.7-0.9-5.4 1.2-0.3 6.6-1.4 8.8-3 2.1-1.5 4.2-4 4.3-6.6q0-1-0.4-1.9-0.3-0.9-1-1.6-0.7-0.7-1.6-1-0.9-0.4-1.8-0.3c-3.9 0.2-7.3 6.2-8 9.5 0 0.2-0.3 2.1-0.4 3.5h-0.5c0.2 2.2 0.4 4.5 0.9 7q0.2 1.3 0.5 2.6 0.2 1.3 0.6 2.5 0.3 1.3 0.7 2.6 0.4 1.2 0.8 2.5 0 0 0 0 0 0 0.1 0 0 0.1 0 0.1 0 0 0 0c-0.7-0.9-2.7-3.4-2.9-3.5-2.4-2.4-8.6-5.7-12-3.9q-0.8 0.5-1.4 1.2-0.6 0.8-0.8 1.8-0.2 0.9 0 1.8 0.2 1 0.8 1.8c1.5 2.2 4.7 3.2 7.3 3.3 2.9 0.3 8.7-2 9.1-2.1q0.5 1.2 1.1 2.5 0.5 1.2 1 2.5 0.6 1.2 1.2 2.4 0.6 1.2 1.3 2.4 1.5 2.7 3.1 5.5c-0.6-0.8-1.2-1.5-1.2-1.6-2.5-2.4-8.7-5.6-12-3.9q-0.9 0.5-1.5 1.3-0.5 0.8-0.7 1.7-0.2 1 0 1.9 0.2 0.9 0.7 1.7c1.5 2.3 4.8 3.2 7.3 3.4 2.6 0.2 7.6-1.6 8.9-2.1q0.7 1 1.3 2.1c2 3.3 4.1 6.6 6 9.9q1 1.8 1.9 3.5c-0.5-0.7-1-1.2-1.1-1.3-2.4-2.4-8.6-5.7-12-3.9q-0.8 0.5-1.4 1.3-0.6 0.7-0.8 1.7-0.2 0.9 0 1.9 0.2 0.9 0.8 1.7c1.5 2.2 4.7 3.2 7.3 3.4 2.5 0.1 7.1-1.4 8.7-2z"/>
		<path class="s2" d="m81.7 288.9c-3.9-2.2-6.9 0.6-5.4 5.2 1.3 3.9 5.9 7.8 7.1 8.8l0.5-0.9c0.3-3 0.9-11.3-2.2-13.1z"/>
		<path class="s2" d="m312.3 447.6c-4.2 0.1-8.3 6.5-9.3 10.1-0.1 0.2-0.4 2.2-0.6 3.7q3 0.3 6 0.4 0.5-0.1 1-0.3 0.5-0.1 1-0.3 0.5-0.2 1-0.4 0.4-0.3 0.9-0.5c2.3-1.6 4.9-4.2 5.1-7.2q0.1-1-0.3-2.1-0.3-1-1-1.8-0.7-0.8-1.7-1.2-1-0.4-2.1-0.4z"/>
		<path class="s2" d="m275.9 391c-4.9 0-6.2 4.4-2.2 7.9 3.3 3 9.7 4.2 11.6 4.5v-1c-1.3-3.1-5.4-11.5-9.4-11.4z"/>
		<path class="s2" d="m354.1 446.8q0.7-0.8 1-1.8 0.3-1.1 0.1-2.1-0.2-1.1-0.8-2-0.5-0.9-1.4-1.5c-3.6-2.2-10.6 0.8-13.4 3.2-0.3 0.2-2.9 3.1-3.5 3.8 0.4-2.8 1-5.6 1.6-8.4q0.3-1.4 0.7-2.7 0.3-1.4 0.7-2.8 0.4-1.4 0.8-2.8 0.5-1.3 1-2.7c0.2 0.2 6.7 3.2 10 3.3 2.8 0 6.4-0.7 8.2-3.1q0.6-0.8 0.9-1.8 0.3-1.1 0.1-2.1-0.2-1.1-0.7-2-0.6-0.9-1.5-1.5c-3.6-2.2-10.6 0.8-13.4 3.2-0.3 0.2-3.1 3.3-3.6 3.9q0.1-0.3 0.2-0.6 0.6-1.4 1.2-2.7 0.5-1.3 1.2-2.6 0.6-1.2 1.3-2.5 0.7-1.2 1.5-2.4 1.6-2.7 3.3-5c1.2 0.7 6.5 3.8 9.4 4.2 2.9 0.3 6.5 0 8.5-2.2q0.8-0.7 1.2-1.7 0.3-1 0.3-2.1-0.1-1.1-0.5-2-0.5-1-1.4-1.7c-3.3-2.6-10.6-0.4-13.7 1.7-0.1 0.2-1.7 1.5-2.8 2.5 0.5-0.7 1-1.4 1.5-2.1 2-2.5 3.9-4.7 5.6-6.6 1-1.1 1.9-2 2.8-3 1.5 0.1 7.5 0.5 10.2-0.5 2.7-1 5.6-3 6.5-5.9q0.3-1 0.2-2.1-0.2-1-0.7-2-0.5-0.9-1.4-1.5-0.8-0.7-1.9-0.9c-4.1-0.8-9.5 4.5-11.3 7.9-0.1 0.3-2 5-1.9 5h0.1q-1.3 1.3-2.8 2.8c-1.7 1.9-3.7 4-5.7 6.5l-0.7 0.9c-0.2 0.7-0.4 1.1-0.4 1.1 0 0-0.1-0.1-0.3-0.3-1.6 2-3.2 4.2-4.7 6.6q-0.8 1.2-1.5 2.5-0.8 1.2-1.5 2.5-0.6 1.3-1.3 2.6-0.6 1.3-1.1 2.6c-0.4 0.9 0 0.1 0 0.2 0.1-1.3 0.3-4.7 0.2-5-0.2-3.8-2.8-11-7-12.2q-1-0.2-2 0-1.1 0.2-2 0.8-0.8 0.6-1.4 1.5-0.5 0.9-0.6 2c-0.5 3 1.5 6.1 3.4 8.2 2.3 2.3 8.7 4.9 9.2 5.1q-0.5 1.4-1 2.7-0.5 1.4-1 2.9-0.4 1.4-0.8 2.8-0.4 1.4-0.8 2.8c-0.5 2.3-1 4.5-1.5 6.8 0.1-1.1 0.1-2 0.1-2.2-0.2-3.8-2.9-11-7-12.1q-1-0.2-2.1 0-1 0.1-1.9 0.8-0.8 0.6-1.4 1.5-0.5 0.9-0.7 1.9c-0.4 3 1.5 6.2 3.5 8.2 2 2.1 7.4 4.4 8.9 5l-0.5 2.6c-0.7 3.6-1.4 7.2-2.1 10.7l1.8-0.2q0.9-5.1 1.7-10.2 0.4-1.9 0.7-3.8c0.5 0.2 6.8 3.1 9.9 3.2 2.9 0 6.5-0.7 8.2-3.1z"/>
		<path class="s2" d="m350.9 393.5c-3.7-3-7.5-0.5-6.7 4.7 0.7 4.5 5 9.5 6.2 10.9l0.7-0.9c0.9-3.2 2.9-12.2-0.2-14.7z"/>
		<path class="s2" d="m286 400.8c0.2-3.2 0.6-6.2 1-8.7q0.3-2.2 0.7-4c1.3-0.8 6.4-3.8 8-6.2 1.7-2.3 3.1-5.6 2.2-8.5q-0.3-1-1-1.8-0.6-0.9-1.6-1.4-0.9-0.4-2-0.5-1.1-0.1-2.1 0.3c-3.9 1.6-5.3 9.1-5 12.9 0 0.3 1.1 5.4 1.2 5.3h0.1q-0.4 1.8-0.8 3.8c-0.4 2.6-0.9 5.5-1.1 8.7q-0.1 0.8-0.2 1.7c0.3 0.6 0.5 1 0.5 1 0-0.9 0-1.8 0.1-2.6z"/>
		<path class="s2" d="m287.2 454.8q-0.6 0.2-1.2 0.6-0.5 0.4-0.9 0.9-0.5 0.5-0.7 1.1-0.3 0.7-0.3 1.3c5.1 1 10.3 1.8 15.5 2.4-2.3-3.1-8.4-7.6-12.4-6.3z"/>
		<path class="s2" d="m323.5 453q-1-0.3-2.1-0.1-1 0.2-1.9 0.8-0.8 0.6-1.4 1.6-0.5 0.9-0.7 1.9 0 0.6 0 1.2 0.1 0.7 0.2 1.3 0.1 0.6 0.3 1.1 0.2 0.6 0.5 1.2 5.7-0.2 11.3-0.8c-1.1-3.5-3.3-7.4-6.2-8.2z"/>
		<path class="s2" d="m300.7 458c-1.6-3.9-3.4-7.9-5.1-11.8q-0.8-1.8-1.6-3.6c0.6-0.1 7.4-1.1 10-2.8 2.4-1.6 4.9-4.2 5.1-7.2q0.1-1-0.2-2.1-0.3-1-1.1-1.8-0.7-0.8-1.6-1.2-1-0.4-2.1-0.4c-4.2 0.1-8.3 6.5-9.3 10.1-0.1 0.3-0.7 4.1-0.8 5.1-1.2-2.6-2.3-5.3-3.3-8q-0.5-1.3-0.9-2.7-0.5-1.3-0.9-2.7-0.5-1.4-0.8-2.8-0.4-1.4-0.8-2.8c0.3 0 7.4-1 10-2.8 2.4-1.5 4.9-4.1 5.1-7.1q0.1-1.1-0.2-2.1-0.3-1-1-1.8-0.8-0.8-1.7-1.2-1-0.5-2.1-0.5c-4.2 0.1-8.3 6.5-9.3 10.2-0.1 0.2-0.7 4.4-0.8 5.2q-0.1-0.3-0.2-0.7-0.3-1.4-0.5-2.8-0.2-1.4-0.4-2.9-0.2-1.4-0.3-2.8-0.1-1.5-0.1-2.9c-0.1-2.1-0.1-4.2 0-6.1 1.3-0.1 7.4-0.4 10-1.7 2.6-1.3 5.4-3.6 5.9-6.5q0.2-1.1 0-2.1-0.3-1.1-0.9-1.9-0.6-0.9-1.6-1.4-0.9-0.6-1.9-0.7c-4.3-0.4-9 5.5-10.4 9-0.1 0.2-0.7 2.2-1 3.7l-0.6-0.1c-0.2 2.5-0.3 5-0.2 7.8q0 1.4 0.1 2.9 0.1 1.5 0.2 2.9 0.1 1.5 0.3 2.9 0.3 1.5 0.5 2.9v0.1c-0.6-1.1-2.3-4.1-2.5-4.3-2.3-3.1-8.4-7.7-12.4-6.4q-1 0.4-1.7 1.2-0.8 0.7-1.2 1.7-0.4 1-0.3 2.1 0 1 0.5 2c1.3 2.7 4.6 4.3 7.4 5 3.1 0.7 9.8-0.7 10.3-0.8q0.3 1.5 0.7 2.9 0.4 1.5 0.8 2.9 0.4 1.4 0.8 2.8 0.5 1.5 1 2.9 1.1 3.2 2.4 6.5c-0.5-0.9-1-1.8-1.1-1.9-2.2-3-8.4-7.6-12.4-6.3q-1 0.4-1.7 1.1-0.8 0.8-1.2 1.8-0.3 0.9-0.3 2 0.1 1.1 0.5 2c1.3 2.8 4.6 4.3 7.4 5 2.7 0.7 8.5-0.4 10-0.7q0.6 1.3 1 2.5c1.7 4 3.4 8 4.9 11.9q0.5 1.3 0.9 2.5l2 0.2q-0.6-1.7-1.3-3.4z"/>
	</g>
	<g id="freepik--Gears--inject-323">
		<path fill-rule="evenodd" class="s3" d="m294.2 142l-3.3 2.3-3.4-2.9 1.7-3.7q-0.3-0.4-0.6-0.8-0.3-0.4-0.6-0.9-0.3-0.4-0.5-0.9-0.3-0.5-0.5-0.9h-4.1l-1.1-4.2 3.6-2q0-0.7 0-1.3 0-0.3 0-0.7 0-0.4 0-0.8 0.1-0.3 0.1-0.7 0.1-0.3 0.1-0.7l-3.4-2.3 1.5-4.2 4.2 0.4q0.2-0.4 0.5-0.8 0.3-0.5 0.6-0.9 0.3-0.4 0.7-0.8 0.3-0.4 0.7-0.8l-1.5-3.9 3.6-2.5 3.2 2.8q0.4-0.3 0.9-0.5 0.5-0.1 1-0.3 0.5-0.2 1-0.3 0.5-0.1 1.1-0.2l1-4h4.4l1 4q0.9 0.2 1.7 0.4 0.9 0.3 1.8 0.6 0.8 0.4 1.6 0.8 0.8 0.4 1.6 0.9l3.5-2.1 3.1 3.2-2.1 3.4q0.3 0.5 0.6 0.9 0.3 0.5 0.5 1 0.3 0.4 0.5 0.9 0.2 0.5 0.4 1l4 0.3 0.8 4.4-3.6 1.6q0 0.6-0.1 1.1 0 0.5-0.1 1.1 0 0.5-0.1 1.1-0.1 0.5-0.3 1l3.1 2.5-1.9 4-3.9-0.7q-0.3 0.5-0.6 0.9-0.4 0.4-0.7 0.8-0.4 0.4-0.8 0.8-0.4 0.4-0.8 0.7l1 3.8-3.8 2.2-2.8-2.8q-0.5 0.2-1 0.3-0.5 0.2-1 0.3-0.6 0.1-1.1 0.2-0.5 0.1-1.1 0.1l-1.3 3.8-4.4-0.4-0.7-4m6.4-27.7q-0.2 0-0.4-0.1-0.2 0-0.4 0-0.2 0-0.4 0-0.2 0-0.4 0c-4.9 0-9.3 3.3-10.6 8.1-1.3 4.8 0.8 9.9 5.1 12.4 4.3 2.5 9.7 1.8 13.3-1.7 3.5-3.5 4.3-8.9 1.8-13.2zm6.1 2.9q-0.3-0.2-0.5-0.4-0.3-0.3-0.6-0.5-0.3-0.2-0.6-0.4-0.3-0.2-0.6-0.4z"/>
		<path fill-rule="evenodd" class="s3" d="m304.7 367.2l-3.3 2.3-3.4-2.8 1.7-3.7q-0.3-0.4-0.6-0.8-0.3-0.5-0.6-0.9-0.3-0.5-0.5-0.9-0.3-0.5-0.5-1l-4.1 0.1-1.1-4.3 3.6-2q0-0.6 0-1.2 0-0.4 0-0.7 0-0.4 0-0.8 0.1-0.3 0.1-0.7 0-0.4 0.1-0.7l-3.4-2.4 1.5-4.1 4.1 0.4q0.3-0.4 0.6-0.9 0.3-0.4 0.6-0.8 0.3-0.4 0.7-0.8 0.3-0.4 0.7-0.8l-1.5-3.9 3.6-2.5 3.2 2.7q0.5-0.2 0.9-0.4 0.5-0.2 1-0.4 0.5-0.1 1.1-0.2 0.5-0.2 1-0.3l1-4h4.4l1 4q0.9 0.2 1.8 0.4 0.8 0.3 1.7 0.6 0.8 0.4 1.6 0.8 0.8 0.5 1.6 1l3.5-2.1 3.1 3.1-2 3.5q0.3 0.4 0.5 0.9 0.3 0.4 0.6 0.9 0.2 0.5 0.4 1 0.3 0.5 0.5 1l4 0.3 0.7 4.3-3.6 1.7q0 0.5 0 1-0.1 0.6-0.1 1.1-0.1 0.6-0.2 1.1-0.1 0.5-0.3 1.1l3 2.5-1.8 4-3.9-0.8q-0.3 0.5-0.7 0.9-0.3 0.4-0.7 0.8-0.3 0.4-0.7 0.8-0.4 0.4-0.8 0.7l1 3.8-3.9 2.3-2.7-2.9q-0.5 0.2-1.1 0.4-0.5 0.1-1 0.2-0.5 0.1-1.1 0.2-0.5 0.1-1.1 0.2l-1.3 3.7-4.4-0.4-0.6-3.9m6.4-27.8q-0.2 0-0.4-0.1-0.2 0-0.4 0-0.2 0-0.4 0-0.2 0-0.4 0c-5 0-9.3 3.3-10.6 8.1-1.3 4.8 0.8 9.9 5.1 12.4 4.2 2.5 9.7 1.8 13.2-1.7 3.6-3.5 4.3-8.9 1.9-13.2zm6.1 2.9q-0.3-0.2-0.6-0.4-0.3-0.3-0.6-0.5-0.2-0.2-0.5-0.4-0.4-0.2-0.7-0.4z"/>
		<path fill-rule="evenodd" class="s3" d="m329.5 95l-0.4-1.2 3.6-2.5 3.1 2.7q0.5-0.2 1-0.4 0.5-0.2 1-0.3 0.5-0.2 1-0.3 0.5-0.1 1-0.2l1-4h4.4l1 4q0.9 0.1 1.8 0.4 0.9 0.2 1.7 0.6 0.9 0.3 1.7 0.8 0.8 0.4 1.5 0.9l3.5-2.1 3.2 3.1-2.1 3.5q0.3 0.5 0.6 0.9 0.3 0.5 0.5 1 0.3 0.4 0.5 0.9 0.2 0.5 0.4 1l4 0.3 0.8 4.4-3.7 1.6q0 0.6 0 1.1 0 0.5-0.1 1.1-0.1 0.5-0.2 1-0.1 0.6-0.2 1.1l3 2.5-1.8 4-3.9-0.7q-0.3 0.5-0.7 0.9-0.3 0.4-0.7 0.8-0.3 0.4-0.7 0.8-0.4 0.4-0.8 0.7l1 3.8-3.9 2.2-2.7-2.8q-0.5 0.2-1.1 0.3-0.5 0.2-1 0.3-0.5 0.1-1.1 0.2-0.5 0.1-1.1 0.1l-1.3 3.7-4.4-0.3-0.6-4q-0.5-0.1-1.1-0.3-0.5-0.2-1-0.4-0.4-0.2-0.9-0.4-0.5-0.3-1-0.6l-3.3 2.4-3.3-2.8 1.7-3.7q-0.3-0.4-0.6-0.9-0.3-0.4-0.6-0.8-0.3-0.5-0.5-0.9-0.3-0.5-0.5-1h-4.1l-1.2-4.3 3.7-2q0-0.6 0-1.2 0-0.4 0-0.7 0-0.4 0-0.8 0.1-0.3 0.1-0.7 0.1-0.4 0.1-0.7l-3.4-2.4 1.5-4.1 4.1 0.4q0.2-0.2 0.3-0.3m1.4-2q0.4-0.5 0.9-0.9l-0.6-1.6zm24.4 12.2q0-0.4 0-0.8c-0.1-5.5-4.1-10.1-9.5-10.9-5.4-0.7-10.6 2.6-12.1 7.8-1.5 5.3 1 10.9 6 13.1 5 2.3 10.9 0.5 13.8-4.1zm-0.9 3.6q0.2-0.3 0.3-0.5 0.1-0.3 0.1-0.5 0.1-0.3 0.2-0.6 0.1-0.2 0.1-0.5z"/>
		<path fill-rule="evenodd" class="s3" d="m65 230.8q-0.5-0.6-0.9-1.2-0.4-0.7-0.8-1.3-0.3-0.7-0.7-1.3-0.3-0.7-0.6-1.4l-7.7 0.1-2.1-8 6.7-3.8q-0.1-1.1-0.1-2.3 0.1-0.6 0.1-1.3 0-0.7 0.1-1.4 0-0.7 0.1-1.4 0.1-0.7 0.2-1.3l-6.4-4.4 2.8-7.8 7.8 0.8q0.5-0.8 1-1.6 0.6-0.8 1.2-1.6 0.5-0.7 1.2-1.5 0.6-0.7 1.3-1.4l-2.8-7.3 6.8-4.7 5.9 5.1q0.9-0.4 1.8-0.8 0.9-0.3 1.8-0.6 0.9-0.3 1.9-0.5 0.9-0.3 1.9-0.5l1.9-7.5h8.2l1.9 7.5q1.7 0.3 3.3 0.8 1.7 0.4 3.2 1.1 1.6 0.6 3.1 1.4 1.5 0.8 2.9 1.8l6.6-3.9 5.8 5.8-3.8 6.5q0.5 0.9 1.1 1.7 0.5 0.9 0.9 1.8 0.5 0.8 0.9 1.8 0.4 0.9 0.8 1.8l7.5 0.6 1.4 8.1-6.8 3.1q0 1 0 2-0.1 1-0.2 2-0.2 1-0.3 2-0.2 1-0.5 2l5.7 4.7-3.5 7.4-7.2-1.3q-0.6 0.9-1.3 1.6-0.6 0.8-1.3 1.6-0.7 0.7-1.4 1.4-0.7 0.8-1.5 1.4l2 7.1-7.2 4.1-5.1-5.2q-1 0.3-2 0.6-0.9 0.3-1.9 0.5-1 0.2-2 0.3-1 0.2-2 0.3l-2.5 7-8.2-0.7-1.3-7.4q-0.9-0.3-1.9-0.6-0.9-0.3-1.8-0.7-1-0.4-1.9-0.9-0.9-0.4-1.7-0.9l-6.2 4.4-6.3-5.3 3.3-6.9m17-39.4c-9.5 4.2-14.4 14.9-11.3 24.9 3.1 9.9 13.2 16 23.5 14.1 10.2-2 17.4-11.3 16.7-21.7-0.7-10.4-9.1-18.6-19.6-19.1zm4.2-1.3q-0.3 0-0.6 0.1-0.4 0.1-0.7 0.2-0.4 0.1-0.7 0.2-0.4 0.1-0.7 0.2z"/>
	</g>
	<g id="freepik--light-bulb--inject-323">
		<path class="s4" d="m171.9 210.1l-8.2-5.3"/>
		<path class="s4" d="m186.1 194.2l-2.1-1.8"/>
		<path class="s4" d="m162.2 240.8l-16.9-4.3"/>
		<path fill-rule="evenodd" class="s0" d="m253.7 344.8q0 0-0.1 0 0 0-0.1 0 0 0-0.1 0 0 0-0.1 0-0.1-0.1-0.2-0.1-0.2-0.1-0.3-0.2-0.1-0.1-0.2-0.2-0.1-0.1-0.2-0.2c-0.5-0.9-0.8-1.4 3.4-6.3-9.1 5.6-10 5.4-10.6 5.2q-0.1 0-0.3-0.1-0.1 0-0.2-0.1-0.2-0.1-0.3-0.3-0.1-0.1-0.2-0.2c-0.8-1.5-1-1.8 15.9-15.5-2.7 1.7-5.5 3.6-8 5.3-14.9 9.8-19.5 12.7-21.5 12.2q-0.2-0.1-0.4-0.1-0.1-0.1-0.3-0.2-0.1-0.1-0.3-0.3-0.1-0.1-0.2-0.3c-0.9-1.5-0.9-1.5 19-15.9l3.9-2.9c-2.3 1.6-4.5 3.1-6.6 4.6-15.7 10.6-22.8 15.2-25.5 14.6q-0.2 0-0.4-0.1-0.2-0.1-0.4-0.2-0.1-0.2-0.3-0.3-0.1-0.2-0.2-0.4c-1-1.7-1.2-2.1 27.7-21.7l-38 22q-0.3 0.1-0.6 0.2-0.3 0-0.6-0.1-0.2-0.1-0.5-0.2-0.2-0.2-0.3-0.5c-0.7-1.1-0.2-2.6 2.6-5-4.4 2.5-7 3.6-8.2 3.3q-0.2-0.1-0.4-0.2-0.2 0-0.3-0.2-0.2-0.1-0.3-0.2-0.2-0.2-0.3-0.3c-0.8-1.5-0.5-2.8 10.1-9.9-10.9 6.8-14.9 8.8-16.5 8.4q-0.2 0-0.3-0.1-0.2-0.1-0.4-0.2-0.1-0.1-0.2-0.2-0.1-0.1-0.2-0.3c-0.8-1.2-0.1-1.7 2.4-3.4l5.6-3.6 8.4-5.4c-9.3 4.8-10.7 4.5-11.5 4.3q-0.2-0.1-0.4-0.1-0.1-0.1-0.3-0.2-0.2-0.2-0.3-0.3-0.1-0.2-0.3-0.3-0.1-0.3-0.1-0.6-0.1-0.3 0-0.5 0.1-0.3 0.3-0.5 0.1-0.3 0.4-0.4c29.3-17.4 74.6-45.3 85.6-54.6-10.9 5-43.5 25.2-62 36.7-23.9 14.9-24 14.9-25 14.6q-0.2 0-0.3-0.1-0.2-0.1-0.3-0.1-0.1-0.1-0.2-0.3-0.1-0.1-0.2-0.2c-0.8-1.4-0.8-2.3 8.8-8.2-4.4 2-7.3 3-8.6 2.7q-0.2-0.1-0.4-0.2-0.2-0.1-0.4-0.2-0.2-0.1-0.3-0.3-0.2-0.1-0.3-0.3-0.1-0.3-0.1-0.6-0.1-0.2 0-0.5 0.1-0.3 0.2-0.5 0.2-0.3 0.4-0.4c29.6-18.9 71.3-45.6 88.3-56.9-4.7 2.4-11.1 6-18.1 10.2-5.7 3.7-12.5 8-20.5 12.9-10.6 6.6-21.3 13.2-30.2 18.6-21.5 13.5-21.8 13.5-22.8 13.2q-0.2 0-0.3-0.1-0.2-0.1-0.3-0.1-0.1-0.1-0.2-0.3-0.1-0.1-0.2-0.2-0.2-0.3-0.2-0.6 0-0.2 0-0.5 0.1-0.3 0.3-0.5 0.2-0.3 0.4-0.4c6.5-3.9 13.6-8.2 21.1-12.7l3.9-2.4c-15.6 8.9-24.2 12.8-26.7 12.1q-0.2 0-0.4-0.1-0.2-0.1-0.4-0.2-0.2-0.1-0.3-0.3-0.2-0.2-0.3-0.4c-0.9-1.6 0.4-3.6 11.3-10.8-7 4.4-9.8 5.6-11 5.3q-0.2 0-0.3-0.1-0.2 0-0.3-0.1-0.2-0.1-0.3-0.3-0.1-0.1-0.2-0.3c-0.6-1-1.2-2 6.2-7.3-4 2-6.5 2.8-7.7 2.6q-0.2-0.1-0.3-0.2-0.2-0.1-0.4-0.2-0.2-0.1-0.3-0.2-0.1-0.2-0.3-0.4 0-0.1-0.1-0.3 0-0.1 0-0.2-0.1-0.2-0.1-0.3 0.1-0.2 0.1-0.3 0-0.2 0.1-0.3 0.1-0.1 0.2-0.3 0.1-0.1 0.2-0.2 0.1-0.1 0.2-0.1c32.4-18.5 81.6-47.7 96.5-59.5-16.4 9.1-61.6 35.6-93.2 54.3q-0.2 0.2-0.5 0.2-0.3 0.1-0.6 0-0.3-0.1-0.5-0.3-0.3-0.1-0.4-0.4-0.1-0.2-0.2-0.4-0.1-0.3-0.1-0.5 0-0.2 0-0.5 0-0.2 0.1-0.4 0.2-0.5 0.4-0.9 0.3-0.5 0.6-0.9 0.3-0.4 0.7-0.8 0.3-0.4 0.7-0.7c-2.3 0.9-3.9 1.3-4.7 1.1q-0.2-0.1-0.4-0.2-0.2-0.1-0.4-0.2-0.2-0.1-0.3-0.3-0.2-0.1-0.3-0.3c-0.9-1.6 0.9-2.8 3.5-4.6 2-1.3 4.8-3.2 8.7-5.7 7.4-4.6 17.6-10.7 28.3-17.2 12.1-7.3 26.4-15.9 37.8-23.1-24.4 14-62.7 36.4-81.2 47.2q-0.1 0.1-0.2 0.1-0.2 0.1-0.3 0.1-0.2 0-0.3 0-0.2 0-0.3 0-0.2-0.1-0.3-0.1-0.1-0.1-0.2-0.2-0.2-0.1-0.2-0.2-0.1-0.1-0.2-0.2c-0.8-1.4-1-1.8 12.2-10.1-5.2 2.8-8.4 4.1-10.1 3.7q-0.2-0.1-0.5-0.2-0.2-0.1-0.4-0.2-0.2-0.1-0.3-0.3-0.2-0.2-0.3-0.4c-1-1.7-1-1.7 23-15.7 11.2-6.5 24.4-14.2 36.7-21.6 10.2-6.8 18.2-12 24.3-15.6q1.2-0.8 2.4-1.6 1.2-0.9 2.3-1.8 1.1-0.8 2.2-1.8 1.1-0.9 2.2-1.9c-12.5 5.7-61.8 35.5-93 54.9-0.3 0.2-0.7 0.3-1.1 0.2-0.4-0.1-0.7-0.4-1-0.7-0.2-0.3-0.2-0.7-0.2-1.1 0.1-0.4 0.4-0.7 0.7-1l9.7-6.1c-8 4.1-11 4.8-12.2 4.5q-0.2-0.1-0.4-0.2-0.2-0.1-0.4-0.2-0.2-0.1-0.3-0.3-0.2-0.1-0.3-0.3-0.1-0.3-0.2-0.6 0-0.2 0.1-0.5 0-0.3 0.2-0.5 0.2-0.3 0.4-0.4l21.3-13.7c-17.4 9.8-18.8 9.5-19.7 9.3q-0.1-0.1-0.3-0.1-0.2-0.1-0.3-0.2-0.1-0.1-0.3-0.2-0.1-0.2-0.2-0.3-0.1-0.3-0.1-0.6-0.1-0.3 0-0.5 0.1-0.3 0.2-0.5 0.2-0.3 0.4-0.4c22.5-13.9 54.4-34 73-46.6-15 8.6-37 21.5-52.4 30.6l-17.2 10c-3.8 2.2-5.7 3.3-6.7 3.8l-0.2 0.2c-0.7 0.3-0.9 0.2-1.2 0.2q-0.4-0.1-0.7-0.5-0.3-0.3-0.4-0.8 0-0.4 0.2-0.8 0.1-0.4 0.5-0.7c23.8-14.7 59-36.9 74.8-47.8-8.4 4.9-20.9 12.8-31 19.3-28.3 18-36.9 23.2-39.4 22.6q-0.1-0.1-0.3-0.2-0.2 0-0.3-0.1-0.2-0.2-0.3-0.3-0.1-0.1-0.2-0.3c-0.6-1.1-1.1-1.8 8.3-8.6-2.5 1.1-4.3 1.6-5.3 1.3q-0.2 0-0.4-0.1-0.2-0.1-0.4-0.2-0.2-0.2-0.3-0.3-0.1-0.2-0.3-0.4-0.1-0.2-0.1-0.5-0.1-0.3 0-0.6 0.1-0.3 0.2-0.5 0.2-0.2 0.4-0.4c18.5-11.6 46.5-29.8 56.2-37.3-8.5 4.1-26.9 16-37.7 22.9-17.7 11.3-18.4 11.6-19.5 11.3q-0.2 0-0.3-0.1-0.2-0.1-0.3-0.2-0.1-0.1-0.2-0.2-0.1-0.1-0.2-0.2c-0.8-1.4-1.5-2.6 15.8-14.5q-3.2 2-6.6 4.2-0.1 0.1-0.3 0.2-0.1 0-0.3 0.1-0.2 0-0.3 0-0.2 0-0.4 0-0.1-0.1-0.3-0.1-0.1-0.1-0.2-0.2-0.2-0.1-0.3-0.2-0.1-0.1-0.1-0.2c-1.1-1.9 0.4-3.5 12.6-12.8q-0.2 0-0.3-0.1-0.2-0.1-0.3-0.2-0.2-0.1-0.3-0.2-0.1-0.1-0.2-0.3-0.1-0.2-0.1-0.5-0.1-0.3 0-0.6 0.1-0.3 0.3-0.5 0.1-0.3 0.4-0.4 0.1-0.1 0.2-0.1 0.1 0 0.2-0.1 0.2 0 0.3 0 0.1 0 0.2 0 0.6-0.3 1.2-0.7 0.6-0.4 1.2-0.7 0.5-0.4 1.1-0.8 0.6-0.4 1.1-0.8c4.9-3.4 6.3-4.2 7.5-4q0.1 0 0.3 0.1 0.2 0.1 0.3 0.2 0.1 0.1 0.3 0.2 0.1 0.2 0.2 0.3c0.8 1.5 0.2 2.4-8 8.8 2.3-1.5 4.6-2.9 7-4.4 23.1-14.1 24.9-13.7 26-13.4q0.2 0 0.3 0.1 0.2 0.1 0.3 0.2 0.2 0.1 0.3 0.2 0.1 0.2 0.2 0.3 0.2 0.3 0.2 0.6 0 0.3 0 0.5-0.1 0.3-0.3 0.5-0.1 0.3-0.4 0.4c-11.3 7-23 14.6-32.8 21.2 22.8-14.6 33.8-21 36.9-20.3q0.2 0.1 0.4 0.2 0.2 0.1 0.3 0.2 0.2 0.1 0.3 0.2 0.2 0.2 0.3 0.4c0.9 1.6 1.6 2.8-30 23.6l-4.5 3c6.4-4 12.8-8.2 18-11.6 20.3-13.1 23.5-15.1 25.1-14.7q0.1 0 0.3 0.1 0.1 0.1 0.2 0.2 0.2 0.1 0.3 0.2 0.1 0.1 0.2 0.3 0.1 0.2 0.1 0.5 0.1 0.3 0 0.6-0.1 0.2-0.2 0.5-0.2 0.2-0.4 0.4c-19.6 12.4-48.2 31.1-62.4 41.1 7.6-4.5 18.4-11.4 27.8-17.3 29.7-19 39.4-24.8 42.2-24.1q0.2 0 0.3 0.1 0.2 0.1 0.3 0.2 0.2 0.1 0.3 0.2 0.2 0.2 0.2 0.3c0.8 1.3 1.3 2.2-16.1 13.8 24.4-14.1 24.9-14 25.6-13.8q0.2 0 0.3 0.1 0.2 0.1 0.3 0.2 0.1 0.1 0.2 0.2 0.1 0.1 0.2 0.2c1 1.7 1.7 3-44.3 32.4-3.3 2.1-6.7 4.3-10 6.3 18.2-10.7 39.9-24 56.3-34.2q0.1-0.1 0.3-0.2 0.1 0 0.3 0 0.1 0 0.3 0 0.1 0 0.3 0 0.1 0 0.3 0.1 0.1 0.1 0.2 0.2 0.1 0 0.2 0.2 0.1 0.1 0.2 0.2c0.7 1.2-0.3 2-1.4 2.8q-1 0.7-3 2c-2.4 1.6-6 4-10.6 7-7.8 5-18.7 12.1-32.4 20.9-13.1 8.4-26.4 17-35.5 22.8 12-6.4 35.4-20.1 80.4-48.9 6.5-4.1 6.5-4.1 7.1-4q0.2 0.1 0.3 0.2 0.2 0 0.3 0.1 0.1 0.1 0.2 0.2 0.1 0.1 0.2 0.3c0.4 0.6 0.6 1-0.6 2-1.6 1.4-5.6 4-14.7 9.9 12.9-7 14.1-6.7 14.8-6.5q0.2 0 0.4 0.1 0.1 0.1 0.3 0.2 0.1 0.1 0.2 0.2 0.2 0.1 0.2 0.3c0.6 0.9 0.7 2-1.3 4.3q0.3-0.1 0.6-0.2 0.3 0 0.6-0.1 0.3 0 0.6 0 0.3 0.1 0.6 0.1 0.3 0.1 0.5 0.2 0.3 0.1 0.5 0.2 0.2 0.1 0.3 0.3 0.2 0.2 0.3 0.4c1 1.7 1.5 2.6-28.2 21.4 31.5-18.3 31.8-18.2 32.5-18q0.2 0.1 0.3 0.1 0.1 0.1 0.3 0.2 0.1 0.1 0.2 0.2 0.1 0.1 0.1 0.2c1 1.7-0.8 3.4-5.1 6.5-2.7 2-6.6 4.6-11.9 8 17.5-10.9 21.9-13.2 23.4-12.8q0.2 0.1 0.4 0.1 0.1 0.1 0.3 0.2 0.1 0.1 0.2 0.2 0.1 0.2 0.2 0.3 0.1 0.1 0.1 0.3 0.1 0.1 0.1 0.3 0 0.1 0 0.2 0 0.2-0.1 0.3 0 0.2-0.1 0.3 0 0.2-0.1 0.3-0.1 0.1-0.2 0.2-0.1 0.1-0.3 0.2c-10.2 5.7-20.5 11.7-30.6 17.6l-10.3 6.6c-20.4 12.9-35.3 22.2-45.8 28.3-3.3 2.2-6.1 4.3-8.4 6 9.3-5.5 25.1-14.9 41-24.1 50-29.3 50.8-29.1 51.7-28.8q0.2 0 0.3 0.1 0.1 0 0.3 0.1 0.1 0.1 0.2 0.2 0.1 0.1 0.2 0.3 0.1 0.2 0.1 0.4 0.1 0.2 0.1 0.4 0.1 0.2 0 0.4 0 0.3-0.1 0.5-0.1 0.3-0.2 0.7-0.2 0.3-0.4 0.6-0.2 0.4-0.4 0.6-0.3 0.3-0.6 0.6c3.4-1.7 5.6-2.4 6.7-2.2q0.2 0.1 0.3 0.1 0.2 0.1 0.4 0.2 0.1 0.2 0.3 0.3 0.1 0.1 0.2 0.3c0.8 1.4-0.3 2.1-2.8 3.8-1.5 1-3.7 2.4-6.7 4.3l-0.6 0.3c4.6-2.2 7.9-3.2 9.5-2.8q0.3 0 0.5 0.1 0.3 0.1 0.5 0.3 0.2 0.1 0.4 0.3 0.1 0.2 0.3 0.4c1.3 2.4 0 3.9-48.8 32.8-20.5 12.2-47.6 28.2-55 34.2 4.1-1.4 14.3-6.3 39.4-21.6 20.6-12.4 43.2-26.9 54-33.9 7.6-4.8 7.6-4.8 8.2-4.7q0.2 0.1 0.3 0.2 0.2 0 0.3 0.1 0.1 0.1 0.2 0.2 0.1 0.1 0.2 0.3c0.6 1 1.2 2.1-7 8.2q0.4-0.2 0.9-0.3 0.4-0.2 0.9-0.2 0.5-0.1 0.9-0.1 0.5-0.1 1 0 0.2 0 0.4 0.1 0.2 0.1 0.4 0.2 0.1 0.2 0.3 0.3 0.1 0.2 0.2 0.4c0.9 1.5 0.9 1.5-15.3 12.1-8 5.2-19.1 12.4-33.1 21.4-13.5 8.7-27.1 17.4-36.4 23.4 18.9-10.1 54.3-32.6 70-42.6 14-8.8 14-8.8 14.8-8.6q0.1 0 0.3 0.1 0.1 0 0.2 0.1 0.1 0.1 0.2 0.2 0.1 0.2 0.2 0.3c1.1 1.8-0.6 4.5-7.2 9.4q0.1 0 0.1 0 0.1 0 0.2 0 0.1 0 0.1 0 0.1 0 0.2 0 0.2 0 0.3 0.1 0.2 0.1 0.4 0.2 0.1 0.1 0.2 0.2 0.2 0.2 0.3 0.3c1 1.9 2.2 3.9-42.2 31.7 12.8-7.8 26-16.2 36.7-23.1q0.3-0.2 0.6-0.3 0.3 0 0.6 0.1 0.3 0 0.5 0.2 0.3 0.2 0.4 0.5c0.8 1.3-0.3 2-2 3.2-1 0.7-2.5 1.7-4.5 3-1.9 1.4-4.4 3-7.4 5 4.2-2.1 6.7-3 8-2.7q0.2 0.1 0.4 0.2 0.2 0.1 0.4 0.2 0.2 0.1 0.3 0.3 0.2 0.2 0.3 0.3c0.8 1.5 0.6 2-9.5 8.6 2.1-0.9 3.6-1.3 4.6-1q0.2 0 0.5 0.1 0.2 0.1 0.4 0.3 0.1 0.1 0.3 0.3 0.2 0.1 0.3 0.3c1.1 2 0.3 3-26.8 19.4-7.8 4.7-17.6 10.6-25.5 15.7l53.2-30.7q0.2-0.1 0.3-0.1 0.1-0.1 0.3-0.1 0.1 0 0.3 0 0.1 0 0.3 0 0.1 0.1 0.2 0.1 0.2 0.1 0.3 0.2 0.1 0.1 0.2 0.2 0.1 0.1 0.2 0.2c0.7 1.3-0.3 2.1-2.1 3.4-1 0.7-2.6 1.8-4.7 3.3-3.9 2.7-9.4 6.4-15.2 10.4-6.8 4.5-15.3 10.3-22.3 15.2 3.2-2.2 6.5-4.4 9.5-6.4 15.5-10.6 22-14.8 24.6-14.2q0.2 0 0.4 0.1 0.1 0.1 0.3 0.2 0.2 0.1 0.3 0.3 0.2 0.1 0.3 0.3c0.8 1.5 0.9 1.6-16.9 14.5 12.9-8.6 17.1-11 19-10.6q0.2 0 0.4 0.1 0.2 0.1 0.3 0.2 0.2 0.1 0.3 0.3 0.1 0.1 0.2 0.3c0.7 1.2 0.7 1.2-8.2 8.5-2.7 2.2-6.5 5.2-9.9 8.1 2.8-1.7 5.8-3.6 8.7-5.5q0.2-0.2 0.5-0.2 0.3-0.1 0.6 0 0.3 0.1 0.6 0.3 0.2 0.2 0.4 0.4c0.5 1 0.3 1.2-1.7 3.4q-2.5 2.7-4.3 4.7c9.1-5.4 9.4-5.3 10-5.1q0.2 0 0.3 0.1 0.1 0 0.3 0.1 0.1 0.1 0.2 0.2 0.1 0.1 0.2 0.3 0.1 0.2 0.2 0.5 0 0.3-0.1 0.6-0.1 0.3-0.2 0.5-0.2 0.3-0.5 0.4 0 0.1-0.1 0.1-0.1 0-0.1 0-0.1 0.1-0.1 0.1-0.1 0-0.2 0c-1.3 0.6-8.7 4.9-15.2 8.9q-0.1 0-0.2 0.1 0 0-0.1 0-0.1 0-0.2 0-0.1 0-0.2 0zm14.4-9.8q0.1 0.1 0.2 0.2 0 0.1 0.1 0.2 0.1 0 0.2 0.1 0.1 0.1 0.2 0.1-0.1 0-0.2-0.1-0.1-0.1-0.2-0.1-0.1-0.1-0.1-0.2-0.1-0.1-0.2-0.2zm-36.9-15.3c-8.6 5.4-17.1 10.8-22.7 14.7 6.1-3.6 14.8-9.4 22.7-14.7zm37.2-26.6c-9.8 5.4-25.7 15.7-37.7 23.5 4.4-2.8 9.5-5.9 15.2-9.5 7.9-4.9 16.5-10.1 22.5-14zm-0.6 7q-0.1 0-0.2 0.1 0.1-0.1 0.2-0.1zm-21.3 13.2l0.8-0.5c7.3-4.5 15.2-9.3 20.3-12.6-5.3 2.9-13.3 8-21.1 13.1zm-27.9-35.6c-6.6 4.1-12.6 8-17.6 11.3 5.2-3.3 11.3-7.3 17.6-11.3zm71.2-39.4c-2.9 1-9.1 3.8-22.1 11.6-13 7.9-28.7 18.1-42.7 27.2-6.1 4-11.3 7.3-15.6 10.1 8.4-5.2 19.7-11.9 34.8-20.9 18.4-10.9 39-23.1 45.6-28zm-9.4 29.4l-2.1 1.3q-10.5 6.7-19.9 12.6c8.3-5 16.2-10 22-13.9zm-66.3-6.7c-9.2 5.6-18.1 11-24 14.8 3-1.6 6.6-3.6 10.7-6 4-2.8 8.5-5.7 13.3-8.8zm23.5-26.4c-3.9 2.6-7.7 5.1-11.2 7.5q-10.5 7-18.6 12.4l5.5-3.4c20.3-12.5 49.5-30.6 58.1-37.1q-1.2 0.5-2.4 1.1-1.2 0.6-2.3 1.2-1.2 0.6-2.3 1.2-1.1 0.7-2.2 1.4c-3.5 2.4-7.8 5.2-13.3 8.7-3.6 2.3-7.4 4.6-11.3 7z"/>
		<g style="opacity: .4">
			<path fill-rule="evenodd" class="s5" d="m253.7 344.8q0 0-0.1 0 0 0-0.1 0 0 0-0.1 0 0 0-0.1 0-0.1-0.1-0.2-0.1-0.2-0.1-0.3-0.2-0.1-0.1-0.2-0.2-0.1-0.1-0.2-0.2c-0.5-0.9-0.8-1.4 3.4-6.3-9.1 5.6-10 5.4-10.6 5.2q-0.1 0-0.3-0.1-0.1 0-0.2-0.1-0.2-0.1-0.3-0.3-0.1-0.1-0.2-0.2c-0.8-1.5-1-1.8 15.9-15.5-2.7 1.7-5.5 3.6-8 5.3-14.9 9.8-19.5 12.7-21.5 12.2q-0.2-0.1-0.4-0.1-0.1-0.1-0.3-0.2-0.1-0.1-0.3-0.3-0.1-0.1-0.2-0.3c-0.9-1.5-0.9-1.5 19-15.9l3.9-2.9c-2.3 1.6-4.5 3.1-6.6 4.6-15.7 10.6-22.8 15.2-25.5 14.6q-0.2 0-0.4-0.1-0.2-0.1-0.4-0.2-0.1-0.2-0.3-0.3-0.1-0.2-0.2-0.4c-1-1.7-1.2-2.1 27.7-21.7l-38 22q-0.3 0.1-0.6 0.2-0.3 0-0.6-0.1-0.2-0.1-0.5-0.2-0.2-0.2-0.3-0.5c-0.7-1.1-0.2-2.6 2.6-5-4.4 2.5-7 3.6-8.2 3.3q-0.2-0.1-0.4-0.2-0.2 0-0.3-0.2-0.2-0.1-0.3-0.2-0.2-0.2-0.3-0.3c-0.8-1.5-0.5-2.8 10.1-9.9-10.9 6.8-14.9 8.8-16.5 8.4q-0.2 0-0.3-0.1-0.2-0.1-0.4-0.2-0.1-0.1-0.2-0.2-0.1-0.1-0.2-0.3c-0.8-1.2-0.1-1.7 2.4-3.4l5.6-3.6 8.4-5.4c-9.3 4.8-10.7 4.5-11.5 4.3q-0.2-0.1-0.4-0.1-0.1-0.1-0.3-0.2-0.2-0.2-0.3-0.3-0.1-0.2-0.3-0.3-0.1-0.3-0.1-0.6-0.1-0.3 0-0.5 0.1-0.3 0.3-0.5 0.1-0.3 0.4-0.4c29.3-17.4 74.6-45.3 85.6-54.6-10.9 5-43.5 25.2-62 36.7-23.9 14.9-24 14.9-25 14.6q-0.2 0-0.3-0.1-0.2-0.1-0.3-0.1-0.1-0.1-0.2-0.3-0.1-0.1-0.2-0.2c-0.8-1.4-0.8-2.3 8.8-8.2-4.4 2-7.3 3-8.6 2.7q-0.2-0.1-0.4-0.2-0.2-0.1-0.4-0.2-0.2-0.1-0.3-0.3-0.2-0.1-0.3-0.3-0.1-0.3-0.1-0.6-0.1-0.2 0-0.5 0.1-0.3 0.2-0.5 0.2-0.3 0.4-0.4c29.6-18.9 71.3-45.6 88.3-56.9-4.7 2.4-11.1 6-18.1 10.2-5.7 3.7-12.5 8-20.5 12.9-10.6 6.6-21.3 13.2-30.2 18.6-21.5 13.5-21.8 13.5-22.8 13.2q-0.2 0-0.3-0.1-0.2-0.1-0.3-0.1-0.1-0.1-0.2-0.3-0.1-0.1-0.2-0.2-0.2-0.3-0.2-0.6 0-0.2 0-0.5 0.1-0.3 0.3-0.5 0.2-0.3 0.4-0.4c6.5-3.9 13.6-8.2 21.1-12.7l3.9-2.4c-15.6 8.9-24.2 12.8-26.7 12.1q-0.2 0-0.4-0.1-0.2-0.1-0.4-0.2-0.2-0.1-0.3-0.3-0.2-0.2-0.3-0.4c-0.9-1.6 0.4-3.6 11.3-10.8-7 4.4-9.8 5.6-11 5.3q-0.2 0-0.3-0.1-0.2 0-0.3-0.1-0.2-0.1-0.3-0.3-0.1-0.1-0.2-0.3c-0.6-1-1.2-2 6.2-7.3-4 2-6.5 2.8-7.7 2.6q-0.2-0.1-0.3-0.2-0.2-0.1-0.4-0.2-0.2-0.1-0.3-0.2-0.1-0.2-0.3-0.4 0-0.1-0.1-0.3 0-0.1 0-0.2-0.1-0.2-0.1-0.3 0.1-0.2 0.1-0.3 0-0.2 0.1-0.3 0.1-0.1 0.2-0.3 0.1-0.1 0.2-0.2 0.1-0.1 0.2-0.1c32.4-18.5 81.6-47.7 96.5-59.5-16.4 9.1-61.6 35.6-93.2 54.3q-0.2 0.2-0.5 0.2-0.3 0.1-0.6 0-0.3-0.1-0.5-0.3-0.3-0.1-0.4-0.4-0.1-0.2-0.2-0.4-0.1-0.3-0.1-0.5 0-0.2 0-0.5 0-0.2 0.1-0.4 0.2-0.5 0.4-0.9 0.3-0.5 0.6-0.9 0.3-0.4 0.7-0.8 0.3-0.4 0.7-0.7c-2.3 0.9-3.9 1.3-4.7 1.1q-0.2-0.1-0.4-0.2-0.2-0.1-0.4-0.2-0.2-0.1-0.3-0.3-0.2-0.1-0.3-0.3c-0.9-1.6 0.9-2.8 3.5-4.6 2-1.3 4.8-3.2 8.7-5.7 7.4-4.6 17.6-10.7 28.3-17.2 12.1-7.3 26.4-15.9 37.8-23.1-24.4 14-62.7 36.4-81.2 47.2q-0.1 0.1-0.2 0.1-0.2 0.1-0.3 0.1-0.2 0-0.3 0-0.2 0-0.3 0-0.2-0.1-0.3-0.1-0.1-0.1-0.2-0.2-0.2-0.1-0.2-0.2-0.1-0.1-0.2-0.2c-0.8-1.4-1-1.8 12.2-10.1-5.2 2.8-8.4 4.1-10.1 3.7q-0.2-0.1-0.5-0.2-0.2-0.1-0.4-0.2-0.2-0.1-0.3-0.3-0.2-0.2-0.3-0.4c-1-1.7-1-1.7 23-15.7 11.2-6.5 24.4-14.2 36.7-21.6 10.2-6.8 18.2-12 24.3-15.6q1.2-0.8 2.4-1.6 1.2-0.9 2.3-1.8 1.1-0.8 2.2-1.8 1.1-0.9 2.2-1.9c-12.5 5.7-61.8 35.5-93 54.9-0.3 0.2-0.7 0.3-1.1 0.2-0.4-0.1-0.7-0.4-1-0.7-0.2-0.3-0.2-0.7-0.2-1.1 0.1-0.4 0.4-0.7 0.7-1l9.7-6.1c-8 4.1-11 4.8-12.2 4.5q-0.2-0.1-0.4-0.2-0.2-0.1-0.4-0.2-0.2-0.1-0.3-0.3-0.2-0.1-0.3-0.3-0.1-0.3-0.2-0.6 0-0.2 0.1-0.5 0-0.3 0.2-0.5 0.2-0.3 0.4-0.4l21.3-13.7c-17.4 9.8-18.8 9.5-19.7 9.3q-0.1-0.1-0.3-0.1-0.2-0.1-0.3-0.2-0.1-0.1-0.3-0.2-0.1-0.2-0.2-0.3-0.1-0.3-0.1-0.6-0.1-0.3 0-0.5 0.1-0.3 0.2-0.5 0.2-0.3 0.4-0.4c22.5-13.9 54.4-34 73-46.6-15 8.6-37 21.5-52.4 30.6l-17.2 10c-3.8 2.2-5.7 3.3-6.7 3.8l-0.2 0.2c-0.7 0.3-0.9 0.2-1.2 0.2q-0.4-0.1-0.7-0.5-0.3-0.3-0.4-0.8 0-0.4 0.2-0.8 0.1-0.4 0.5-0.7c23.8-14.7 59-36.9 74.8-47.8-8.4 4.9-20.9 12.8-31 19.3-28.3 18-36.9 23.2-39.4 22.6q-0.1-0.1-0.3-0.2-0.2 0-0.3-0.1-0.2-0.2-0.3-0.3-0.1-0.1-0.2-0.3c-0.6-1.1-1.1-1.8 8.3-8.6-2.5 1.1-4.3 1.6-5.3 1.3q-0.2 0-0.4-0.1-0.2-0.1-0.4-0.2-0.2-0.2-0.3-0.3-0.1-0.2-0.3-0.4-0.1-0.2-0.1-0.5-0.1-0.3 0-0.6 0.1-0.3 0.2-0.5 0.2-0.2 0.4-0.4c18.5-11.6 46.5-29.8 56.2-37.3-8.5 4.1-26.9 16-37.7 22.9-17.7 11.3-18.4 11.6-19.5 11.3q-0.2 0-0.3-0.1-0.2-0.1-0.3-0.2-0.1-0.1-0.2-0.2-0.1-0.1-0.2-0.2c-0.8-1.4-1.5-2.6 15.8-14.5q-3.2 2-6.6 4.2-0.1 0.1-0.3 0.2-0.1 0-0.3 0.1-0.2 0-0.3 0-0.2 0-0.4 0-0.1-0.1-0.3-0.1-0.1-0.1-0.2-0.2-0.2-0.1-0.3-0.2-0.1-0.1-0.1-0.2c-1.1-1.9 0.4-3.5 12.6-12.8q-0.2 0-0.3-0.1-0.2-0.1-0.3-0.2-0.2-0.1-0.3-0.2-0.1-0.1-0.2-0.3-0.1-0.2-0.1-0.5-0.1-0.3 0-0.6 0.1-0.3 0.3-0.5 0.1-0.3 0.4-0.4 0.1-0.1 0.2-0.1 0.1 0 0.2-0.1 0.2 0 0.3 0 0.1 0 0.2 0 0.6-0.3 1.2-0.7 0.6-0.4 1.2-0.7 0.5-0.4 1.1-0.8 0.6-0.4 1.1-0.8c4.9-3.4 6.3-4.2 7.5-4q0.1 0 0.3 0.1 0.2 0.1 0.3 0.2 0.1 0.1 0.3 0.2 0.1 0.2 0.2 0.3c0.8 1.5 0.2 2.4-8 8.8 2.3-1.5 4.6-2.9 7-4.4 23.1-14.1 24.9-13.7 26-13.4q0.2 0 0.3 0.1 0.2 0.1 0.3 0.2 0.2 0.1 0.3 0.2 0.1 0.2 0.2 0.3 0.2 0.3 0.2 0.6 0 0.3 0 0.5-0.1 0.3-0.3 0.5-0.1 0.3-0.4 0.4c-11.3 7-23 14.6-32.8 21.2 22.8-14.6 33.8-21 36.9-20.3q0.2 0.1 0.4 0.2 0.2 0.1 0.3 0.2 0.2 0.1 0.3 0.2 0.2 0.2 0.3 0.4c0.9 1.6 1.6 2.8-30 23.6l-4.5 3c6.4-4 12.8-8.2 18-11.6 20.3-13.1 23.5-15.1 25.1-14.7q0.1 0 0.3 0.1 0.1 0.1 0.2 0.2 0.2 0.1 0.3 0.2 0.1 0.1 0.2 0.3 0.1 0.2 0.1 0.5 0.1 0.3 0 0.6-0.1 0.2-0.2 0.5-0.2 0.2-0.4 0.4c-19.6 12.4-48.2 31.1-62.4 41.1 7.6-4.5 18.4-11.4 27.8-17.3 29.7-19 39.4-24.8 42.2-24.1q0.2 0 0.3 0.1 0.2 0.1 0.3 0.2 0.2 0.1 0.3 0.2 0.2 0.2 0.2 0.3c0.8 1.3 1.3 2.2-16.1 13.8 24.4-14.1 24.9-14 25.6-13.8q0.2 0 0.3 0.1 0.2 0.1 0.3 0.2 0.1 0.1 0.2 0.2 0.1 0.1 0.2 0.2c1 1.7 1.7 3-44.3 32.4-3.3 2.1-6.7 4.3-10 6.3 18.2-10.7 39.9-24 56.3-34.2q0.1-0.1 0.3-0.2 0.1 0 0.3 0 0.1 0 0.3 0 0.1 0 0.3 0 0.1 0 0.3 0.1 0.1 0.1 0.2 0.2 0.1 0 0.2 0.2 0.1 0.1 0.2 0.2c0.7 1.2-0.3 2-1.4 2.8q-1 0.7-3 2c-2.4 1.6-6 4-10.6 7-7.8 5-18.7 12.1-32.4 20.9-13.1 8.4-26.4 17-35.5 22.8 12-6.4 35.4-20.1 80.4-48.9 6.5-4.1 6.5-4.1 7.1-4q0.2 0.1 0.3 0.2 0.2 0 0.3 0.1 0.1 0.1 0.2 0.2 0.1 0.1 0.2 0.3c0.4 0.6 0.6 1-0.6 2-1.6 1.4-5.6 4-14.7 9.9 12.9-7 14.1-6.7 14.8-6.5q0.2 0 0.4 0.1 0.1 0.1 0.3 0.2 0.1 0.1 0.2 0.2 0.2 0.1 0.2 0.3c0.6 0.9 0.7 2-1.3 4.3q0.3-0.1 0.6-0.2 0.3 0 0.6-0.1 0.3 0 0.6 0 0.3 0.1 0.6 0.1 0.3 0.1 0.5 0.2 0.3 0.1 0.5 0.2 0.2 0.1 0.3 0.3 0.2 0.2 0.3 0.4c1 1.7 1.5 2.6-28.2 21.4 31.5-18.3 31.8-18.2 32.5-18q0.2 0.1 0.3 0.1 0.1 0.1 0.3 0.2 0.1 0.1 0.2 0.2 0.1 0.1 0.1 0.2c1 1.7-0.8 3.4-5.1 6.5-2.7 2-6.6 4.6-11.9 8 17.5-10.9 21.9-13.2 23.4-12.8q0.2 0.1 0.4 0.1 0.1 0.1 0.3 0.2 0.1 0.1 0.2 0.2 0.1 0.2 0.2 0.3 0.1 0.1 0.1 0.3 0.1 0.1 0.1 0.3 0 0.1 0 0.2 0 0.2-0.1 0.3 0 0.2-0.1 0.3 0 0.2-0.1 0.3-0.1 0.1-0.2 0.2-0.1 0.1-0.3 0.2c-10.2 5.7-20.5 11.7-30.6 17.6l-10.3 6.6c-20.4 12.9-35.3 22.2-45.8 28.3-3.3 2.2-6.1 4.3-8.4 6 9.3-5.5 25.1-14.9 41-24.1 50-29.3 50.8-29.1 51.7-28.8q0.2 0 0.3 0.1 0.1 0 0.3 0.1 0.1 0.1 0.2 0.2 0.1 0.1 0.2 0.3 0.1 0.2 0.1 0.4 0.1 0.2 0.1 0.4 0.1 0.2 0 0.4 0 0.3-0.1 0.5-0.1 0.3-0.2 0.7-0.2 0.3-0.4 0.6-0.2 0.4-0.4 0.6-0.3 0.3-0.6 0.6c3.4-1.7 5.6-2.4 6.7-2.2q0.2 0.1 0.3 0.1 0.2 0.1 0.4 0.2 0.1 0.2 0.3 0.3 0.1 0.1 0.2 0.3c0.8 1.4-0.3 2.1-2.8 3.8-1.5 1-3.7 2.4-6.7 4.3l-0.6 0.3c4.6-2.2 7.9-3.2 9.5-2.8q0.3 0 0.5 0.1 0.3 0.1 0.5 0.3 0.2 0.1 0.4 0.3 0.1 0.2 0.3 0.4c1.3 2.4 0 3.9-48.8 32.8-20.5 12.2-47.6 28.2-55 34.2 4.1-1.4 14.3-6.3 39.4-21.6 20.6-12.4 43.2-26.9 54-33.9 7.6-4.8 7.6-4.8 8.2-4.7q0.2 0.1 0.3 0.2 0.2 0 0.3 0.1 0.1 0.1 0.2 0.2 0.1 0.1 0.2 0.3c0.6 1 1.2 2.1-7 8.2q0.4-0.2 0.9-0.3 0.4-0.2 0.9-0.2 0.5-0.1 0.9-0.1 0.5-0.1 1 0 0.2 0 0.4 0.1 0.2 0.1 0.4 0.2 0.1 0.2 0.3 0.3 0.1 0.2 0.2 0.4c0.9 1.5 0.9 1.5-15.3 12.1-8 5.2-19.1 12.4-33.1 21.4-13.5 8.7-27.1 17.4-36.4 23.4 18.9-10.1 54.3-32.6 70-42.6 14-8.8 14-8.8 14.8-8.6q0.1 0 0.3 0.1 0.1 0 0.2 0.1 0.1 0.1 0.2 0.2 0.1 0.2 0.2 0.3c1.1 1.8-0.6 4.5-7.2 9.4q0.1 0 0.1 0 0.1 0 0.2 0 0.1 0 0.1 0 0.1 0 0.2 0 0.2 0 0.3 0.1 0.2 0.1 0.4 0.2 0.1 0.1 0.2 0.2 0.2 0.2 0.3 0.3c1 1.9 2.2 3.9-42.2 31.7 12.8-7.8 26-16.2 36.7-23.1q0.3-0.2 0.6-0.3 0.3 0 0.6 0.1 0.3 0 0.5 0.2 0.3 0.2 0.4 0.5c0.8 1.3-0.3 2-2 3.2-1 0.7-2.5 1.7-4.5 3-1.9 1.4-4.4 3-7.4 5 4.2-2.1 6.7-3 8-2.7q0.2 0.1 0.4 0.2 0.2 0.1 0.4 0.2 0.2 0.1 0.3 0.3 0.2 0.2 0.3 0.3c0.8 1.5 0.6 2-9.5 8.6 2.1-0.9 3.6-1.3 4.6-1q0.2 0 0.5 0.1 0.2 0.1 0.4 0.3 0.1 0.1 0.3 0.3 0.2 0.1 0.3 0.3c1.1 2 0.3 3-26.8 19.4-7.8 4.7-17.6 10.6-25.5 15.7l53.2-30.7q0.2-0.1 0.3-0.1 0.1-0.1 0.3-0.1 0.1 0 0.3 0 0.1 0 0.3 0 0.1 0.1 0.2 0.1 0.2 0.1 0.3 0.2 0.1 0.1 0.2 0.2 0.1 0.1 0.2 0.2c0.7 1.3-0.3 2.1-2.1 3.4-1 0.7-2.6 1.8-4.7 3.3-3.9 2.7-9.4 6.4-15.2 10.4-6.8 4.5-15.3 10.3-22.3 15.2 3.2-2.2 6.5-4.4 9.5-6.4 15.5-10.6 22-14.8 24.6-14.2q0.2 0 0.4 0.1 0.1 0.1 0.3 0.2 0.2 0.1 0.3 0.3 0.2 0.1 0.3 0.3c0.8 1.5 0.9 1.6-16.9 14.5 12.9-8.6 17.1-11 19-10.6q0.2 0 0.4 0.1 0.2 0.1 0.3 0.2 0.2 0.1 0.3 0.3 0.1 0.1 0.2 0.3c0.7 1.2 0.7 1.2-8.2 8.5-2.7 2.2-6.5 5.2-9.9 8.1 2.8-1.7 5.8-3.6 8.7-5.5q0.2-0.2 0.5-0.2 0.3-0.1 0.6 0 0.3 0.1 0.6 0.3 0.2 0.2 0.4 0.4c0.5 1 0.3 1.2-1.7 3.4q-2.5 2.7-4.3 4.7c9.1-5.4 9.4-5.3 10-5.1q0.2 0 0.3 0.1 0.1 0 0.3 0.1 0.1 0.1 0.2 0.2 0.1 0.1 0.2 0.3 0.1 0.2 0.2 0.5 0 0.3-0.1 0.6-0.1 0.3-0.2 0.5-0.2 0.3-0.5 0.4 0 0.1-0.1 0.1-0.1 0-0.1 0-0.1 0.1-0.1 0.1-0.1 0-0.2 0c-1.3 0.6-8.7 4.9-15.2 8.9q-0.1 0-0.2 0.1 0 0-0.1 0-0.1 0-0.2 0-0.1 0-0.2 0zm14.4-9.8q0.1 0.1 0.2 0.2 0 0.1 0.1 0.2 0.1 0 0.2 0.1 0.1 0.1 0.2 0.1-0.1 0-0.2-0.1-0.1-0.1-0.2-0.1-0.1-0.1-0.1-0.2-0.1-0.1-0.2-0.2zm-36.9-15.3c-8.6 5.4-17.1 10.8-22.7 14.7 6.1-3.6 14.8-9.4 22.7-14.7zm37.2-26.6c-9.8 5.4-25.7 15.7-37.7 23.5 4.4-2.8 9.5-5.9 15.2-9.5 7.9-4.9 16.5-10.1 22.5-14zm-0.6 7q-0.1 0-0.2 0.1 0.1-0.1 0.2-0.1zm-21.3 13.2l0.8-0.5c7.3-4.5 15.2-9.3 20.3-12.6-5.3 2.9-13.3 8-21.1 13.1zm-27.9-35.6c-6.6 4.1-12.6 8-17.6 11.3 5.2-3.3 11.3-7.3 17.6-11.3zm71.2-39.4c-2.9 1-9.1 3.8-22.1 11.6-13 7.9-28.7 18.1-42.7 27.2-6.1 4-11.3 7.3-15.6 10.1 8.4-5.2 19.7-11.9 34.8-20.9 18.4-10.9 39-23.1 45.6-28zm-9.4 29.4l-2.1 1.3q-10.5 6.7-19.9 12.6c8.3-5 16.2-10 22-13.9zm-66.3-6.7c-9.2 5.6-18.1 11-24 14.8 3-1.6 6.6-3.6 10.7-6 4-2.8 8.5-5.7 13.3-8.8zm23.5-26.4c-3.9 2.6-7.7 5.1-11.2 7.5q-10.5 7-18.6 12.4l5.5-3.4c20.3-12.5 49.5-30.6 58.1-37.1q-1.2 0.5-2.4 1.1-1.2 0.6-2.3 1.2-1.2 0.6-2.3 1.2-1.1 0.7-2.2 1.4c-3.5 2.4-7.8 5.2-13.3 8.7-3.6 2.3-7.4 4.6-11.3 7z"/>
		</g>
		<path fill-rule="evenodd" class="s6" d="m232.5 184.6h-0.7c-36.3 0.6-63.6 28.4-63.6 62.5q0 3.8 0.5 7.6 0.4 3.8 1.3 7.5 1 3.7 2.3 7.2 1.4 3.6 3.2 6.9c2 4.8 6.8 16.4 11.6 31.5 4.4 13.8 6.7 27.8 6.7 30q0 0.2 0 0.6 0 0.9 0.4 1.8 0.3 0.9 1 1.6 0.6 0.7 1.5 1.1 0.9 0.3 1.8 0.3h65q0.9 0 1.8-0.3 0.9-0.4 1.5-1.1 0.7-0.7 1-1.6 0.4-0.9 0.3-1.8 0-0.4 0-0.6c0-2.2 2.4-16.1 6.8-30 4.8-15 9.6-26.7 11.6-31.5 5-9.4 7.5-20 7.3-30.6-0.3-10.7-3.3-21.1-8.7-30.3-5.4-9.2-13.1-16.9-22.3-22.3-9.2-5.4-19.6-8.3-30.3-8.5z"/>
		<path fill-rule="evenodd" class="s4" d="m254.4 194.6q-0.7-0.3-1.4-0.6-0.7-0.3-1.4-0.6-0.7-0.2-1.4-0.5-0.7-0.2-1.4-0.4"/>
		<path fill-rule="evenodd" class="s4" d="m275.2 210.5c0 0-5.1-8.1-16.3-13.6"/>
		<path fill-rule="evenodd" class="s4" d="m226.8 314.9v-32.1c0 0 2.5-15.7-5.6-15.7-8.2 0-7.5 8.2 1.8 16.9 9.4 8.8 23.8 0.6 25.7-6.2 1.9-6.9-3.1-10-6.2-4.4-3.2 5.6 0 69.4 0 69.4"/>
		<path class="s4" d="m209.4 168.3l3.5 10.9"/>
		<path class="s4" d="m294.2 192.1l-11.4 8.9"/>
		<path class="s4" d="m252 160.3l-4.3 18.9"/>
		<path class="s7" d="m196.7 347.9h68.6c0.8 0 1.6 0.7 1.6 1.6v0.8c0 0.9-0.8 1.6-1.6 1.6h-68.6c-0.9 0-1.6-0.7-1.6-1.6v-0.8c0-0.9 0.7-1.6 1.6-1.6z"/>
		<path class="s7" d="m196.7 356.9h68.6c0.8 0 1.6 0.7 1.6 1.5v0.8c0 0.9-0.8 1.6-1.6 1.6h-68.6c-0.9 0-1.6-0.7-1.6-1.6v-0.8c0-0.8 0.7-1.5 1.6-1.5z"/>
		<path class="s7" d="m196.7 365.8h68.6c0.8 0 1.6 0.7 1.6 1.6v0.8c0 0.8-0.8 1.6-1.6 1.6h-68.6c-0.9 0-1.6-0.8-1.6-1.6v-0.8c0-0.9 0.7-1.6 1.6-1.6z"/>
		<path class="s7" d="m233.1 374.5h-35.2l10.1 14q0.7 0.9 1.5 1.6 0.8 0.8 1.8 1.3 1 0.5 2.1 0.7 1.1 0.3 2.2 0.3h31q1.1 0 2.2-0.3 1.1-0.2 2.1-0.7 1-0.5 1.8-1.3 0.9-0.7 1.5-1.6l10.1-13.9z"/>
	</g>
	<g id="freepik--hand-3--inject-323">
		<path class="s8" d="m308.7 225c0 0-6.4 7-11.6 10.5-5.3 3.5-8.9 8.1-4.1 10.5 2.9 1.4 7-0.6 7-0.6 0 0-6.4 1.7-7.6 7.5-1.2 5.9 11.6 3.5 11.6 3.5 0 0-9.3 6.4-6.4 8.8 2.9 2.3 8.7 0.5 11.6 0.5 2.9 0 17.5-9.3 21-9.3 3.6 0 10.5 7.6 10.5 13.4 0 5.8 9.3 5.3 10.5-12.8 1.2-18.1-3.5-33.2-11.1-37.8-7.5-4.7-31.4 5.8-31.4 5.8z"/>
		<path fill-rule="evenodd" class="s9" d="m305.2 244.8l23.2-8.7c0 0 10.2-2.2 17.6 9.8"/>
		<path fill-rule="evenodd" class="s9" d="m309.3 251.8l21-3.5c0 0 9.3-0.6 15.1 10.4"/>
		<path class="s8" d="m334.9 265.7l-15.7 3.5 9.3 37.3c0 0 8.1 16.3 10.5 23.3 2.3 7 26.2 30.2 26.2 30.2l27.9-26.8c0 0-12.8-15.1-13.4-18.6-0.6-3.5-2.9-44.2-2.9-50.1 0-5.8-11.6-19.8-11.6-19.8 0 0-4.8-6.8-7.1-18.5-2.4-11.6-13-16.4-18.9-15.8-5.8 0.6-21.8 2.3-28.2 7-6.4 4.7-12.2 10.5-6.4 12.2 9.7 2.9 25.5-10 33.1-1.1 3.5 4.1 7.7 22 8.3 24.4 0 0-3 11.1-11.1 12.8"/>
		<path class="s10" d="m276.3 211.6q0.1-0.1 0.3-0.2 0.2-0.1 0.3-0.1 0.2 0 0.4 0 0.2 0.1 0.4 0.2l2.3 1.6q0.2 0.2 0.3 0.3 0.2 0.2 0.2 0.4 0 0.2 0 0.5-0.1 0.2-0.2 0.3-0.1 0.2-0.3 0.3-0.2 0.1-0.4 0.2-0.2 0-0.4 0-0.2-0.1-0.4-0.2l-2.4-1.6q-0.1-0.2-0.3-0.4-0.1-0.1-0.1-0.3 0-0.3 0-0.5 0-0.2 0.2-0.3 0-0.1 0-0.1 0 0 0 0 0 0 0 0 0.1-0.1 0.1-0.1z"/>
		<path class="s11" d="m279 213.5q0.3-0.3 0.7-0.5 0.4-0.2 0.8-0.2 0.5-0.1 0.9 0 0.4 0.2 0.8 0.4l7.5 3.8 73.2 48.2c1.3 0.9 2.1 2.2 2.4 3.8 0.3 1.5-0.1 3-1 4.3-0.8 1.3-2.2 2.1-3.7 2.4-1.5 0.3-3-0.1-4.3-1l-71.1-52.4-5.8-5q-0.4-0.3-0.7-0.7-0.2-0.4-0.3-0.9-0.1-0.5 0-1 0.1-0.4 0.4-0.8 0-0.1 0-0.1 0.1-0.1 0.1-0.1 0 0 0-0.1 0.1 0 0.1-0.1z"/>
		<path class="s10" d="m362.9 265.2l-21.1-13.9q-1.3 0.4-2.3 1.1-1.1 0.7-1.8 1.7-0.8 1-1.2 2.2-0.5 1.2-0.5 2.5 0 0.1 0 0.3 0 0.1 0 0.2 0 0.1 0 0.3 0.1 0.1 0.1 0.2l20.2 14.9c1.3 0.9 2.8 1.2 4.3 1 1.5-0.3 2.9-1.2 3.8-2.4 0.8-1.3 1.2-2.8 0.9-4.4-0.3-1.5-1.1-2.8-2.4-3.7z"/>
		<path class="s8" d="m339 329.8c-6.4-9.3-14.6-33.2-18-37.9-3.4-4.6-12.9-15-16.4-25.4-3.4-10.5-5.7-18.8-5.7-27.6 0-8.7 7.5-10.2 13.3-0.9 5.8 9.3 12.8 23.7 12.8 23.7 0 0 4.7 5.8 14 4"/>
		<path class="s8" d="m306.1 235.3l2 3.9c0 0-0.5 0-3.6 1.8q-0.7 0.4-1.3 0.8-0.6 0.5-1.2 1.1-0.6 0.5-1.1 1.2-0.5 0.6-0.9 1.3c-0.3 0.4-3-8.4-0.3-11q0.2-0.3 0.5-0.5 0.3-0.2 0.6-0.4 0.3-0.1 0.6-0.2 0.3-0.2 0.7-0.2 0.6-0.1 1.2 0 0.6 0.2 1.1 0.5 0.6 0.3 1 0.7 0.4 0.5 0.7 1z"/>
		<path class="s8" d="m387 321.4c0 0-15.4 4.5-23.4 12.5q-2 2-3.9 4.1-1.9 2.1-3.8 4.3-1.9 2.1-3.6 4.3-1.8 2.2-3.6 4.4l14.3 16.6c0 0 12-13.7 20-20q2.1-1.6 4.2-3.1 2.1-1.5 4.2-2.9 2.1-1.4 4.3-2.8 2.2-1.3 4.4-2.6z"/>
		<path class="s10" d="m401.3 441.8l-45.1-72.5c0 0 11.4-17.1 21.1-25.7 9.7-8.5 22.3-10.8 22.3-10.8l56.4 54.1"/>
		<path fill-rule="evenodd" class="s9" d="m314.4 256.5l1-0.1"/>
		<path fill-rule="evenodd" class="s9" d="m305.7 261.3c0 0 0.5-3.2 6.9-4.5"/>
		<path fill-rule="evenodd" class="s9" d="m312.6 259.1c0 0-0.4 1.3-4.9 3.1"/>
		<path fill-rule="evenodd" class="s9" d="m312.5 254.8q-0.9 0.1-1.7 0.4-0.8 0.2-1.6 0.5-0.8 0.3-1.5 0.7-0.8 0.4-1.5 0.9"/>
	</g>
	<g id="freepik--hand-2--inject-323">
		<path class="s8" d="m171.8 155.3c0 0 9.4 0.8 15.4 2.8 6 2 11.8 2 10.7-3.2-0.6-3.2-4.7-5.2-4.7-5.2 0 0 5.3 4 10.6 1.4 5.3-2.7-4.4-11.4-4.4-11.4 0 0 10.8 3.4 10.9-0.3 0-3.7-4.9-7.2-6.7-9.5-1.8-2.3-18.1-8.1-20.2-10.9-2.2-2.7-0.5-12.9 4.1-16.5 4.6-3.5-1.6-10.5-16.5-0.4-14.9 10.2-24 23.2-23.1 32 0.9 8.9 23.9 21.2 23.9 21.2z"/>
		<path fill-rule="evenodd" class="s9" d="m189.5 146l-21.1-13c0 0-8-6.7-3-19.9"/>
		<path fill-rule="evenodd" class="s9" d="m192.5 138.4l-15.6-14.4c0 0-6.2-7-1-18.3"/>
		<path class="s8" d="m187.8 109.7l12.4 10.2 23.8-30.2c0 0 15.3-6.9 19.3-13 4.1-6.1 7.5-39.3 7.5-39.3l-38.4-5.4c0 0-3.9 19.4-6.3 22.1-2.4 2.6-40.3 19.6-44.9 23.2-4.6 3.6-8.5 21.3-8.5 21.3q-0.7 2.7-1.6 5.4-0.9 2.7-1.9 5.3-1 2.6-2.1 5.2-1.2 2.6-2.4 5.1c-8.7 17.7-7.2 16.4-3.1 20.6 4 4.3 13.8 12.9 21.4 15.1 7.6 2.2 17.1 10 15 0.4-2.2-9.8-23.6-14-21.2-25.5 1-5.2 12.7-19.5 14.2-21.4 0 0 10.5-4.5 16.9 0.9"/>
		<path class="s10" d="m181.1 189.2q-0.2-0.1-0.4-0.1-0.1-0.1-0.3-0.3-0.1-0.1-0.2-0.3-0.1-0.2-0.1-0.3l-0.1-2.9c-0.1-0.3 0-0.7 0.2-0.9 0.2-0.2 0.5-0.4 0.8-0.4 0.3 0 0.6 0.1 0.8 0.3 0.2 0.2 0.3 0.5 0.3 0.8l0.2 2.9q0 0.2-0.1 0.4 0 0.2-0.2 0.4-0.1 0.2-0.3 0.3-0.2 0.1-0.4 0.1z"/>
		<path class="s11" d="m181 185.8q-0.4 0-0.8-0.2-0.4-0.2-0.7-0.5-0.4-0.4-0.5-0.8-0.2-0.4-0.2-0.8l-1.6-8.3-6.9-87.4c-0.1-1.5 0.5-3 1.5-4.1 1-1.2 2.4-1.9 4-2 1.5 0 3 0.5 4.2 1.5 1.1 1 1.8 2.5 1.9 4l2.2 88.3-0.4 7.7q0 0.5-0.1 1-0.2 0.4-0.5 0.8-0.4 0.4-0.8 0.6-0.5 0.2-0.9 0.2-0.1 0-0.1 0-0.1 0-0.1 0-0.1 0-0.1 0-0.1 0-0.1 0z"/>
		<path class="s10" d="m170.3 87.8l1.9 25.3q1.1 0.7 2.3 1.1 1.2 0.4 2.5 0.4 1.2 0 2.5-0.4 1.2-0.4 2.2-1.1 0.1-0.1 0.2-0.2 0.1-0.1 0.2-0.2 0.1-0.1 0.2-0.1 0.1-0.1 0.1-0.2l-0.6-25.1c-0.1-1.6-0.8-3-1.9-4-1.1-1.1-2.6-1.6-4.2-1.5-1.5 0.1-2.9 0.8-4 1.9-1 1.1-1.5 2.6-1.4 4.2z"/>
		<path class="s8" d="m243.3 76.7c-3.3 10.8-17.8 25.6-20.3 30.9q-2.1 4.4-4.4 8.8-2.3 4.3-4.7 8.6-2.5 4.3-5.1 8.5-2.6 4.2-5.4 8.2c-2.5 3.8-5.1 4.3-6.8 5.6-2.4 2-3.6 4.1-7.7 7.3-6.9 5.3-12.7 0.3-8.9-10 3.8-10.3 10.7-24.6 10.7-24.6 0 0 1.7-7.2-5.4-13.5"/>
		<path class="s8" d="m181.5 151.1l1.9-4c0 0 0.3 0.4 3.6 1.8q0.7 0.3 1.5 0.5 0.7 0.2 1.5 0.3 0.8 0.1 1.6 0.1 0.8 0 1.6-0.1c0.5 0-4.8 7.6-8.5 7.1q-0.3-0.1-0.7-0.1-0.3-0.1-0.6-0.3-0.4-0.1-0.6-0.3-0.3-0.2-0.6-0.4-0.4-0.5-0.7-1.1-0.3-0.5-0.4-1.1-0.1-0.6 0-1.3 0.1-0.6 0.4-1.1z"/>
		<path class="s10" d="m209.2 0.7l-8 51.6c0 0 9.6 8.4 22.3 10.7 12.8 2.3 36 5.7 36 5.7l20.4-68.1"/>
		<path class="s12" d="m255.4 57.2c0 1.6-0.9 3-2.4 3.6-1.5 0.6-3.1 0.3-4.3-0.9-1.1-1.1-1.4-2.8-0.8-4.2 0.6-1.5 2-2.5 3.6-2.5q0.8 0 1.5 0.3 0.7 0.3 1.3 0.9 0.5 0.5 0.8 1.3 0.3 0.7 0.3 1.5z"/>
		<path fill-rule="evenodd" class="s9" d="m190.2 138.3l-0.7-0.7"/>
		<path fill-rule="evenodd" class="s9" d="m199.4 142.2c0 0-2.9 1.6-7.9-2.7"/>
		<path fill-rule="evenodd" class="s9" d="m193.3 138.1c0 0 1.4-0.5 5.5 2"/>
		<path fill-rule="evenodd" class="s9" d="m190.1 140.9q0.6 0.6 1.3 1.1 0.7 0.5 1.4 0.9 0.7 0.4 1.5 0.8 0.8 0.3 1.6 0.5"/>
	</g>
	<g id="freepik--hand-1--inject-323">
		<path class="s8" d="m192.9 309.2c0 0 0.9 9.4 3 15.4 2.1 5.9 2.3 11.8-3 10.8-3.2-0.6-5.3-4.7-5.3-4.7 0 0 4.1 5.2 1.5 10.6-2.5 5.3-11.4-4.2-11.4-4.2 0 0 3.6 10.7-0.1 10.8-3.7 0.1-7.3-4.8-9.6-6.5-2.4-1.8-8.4-18-11.2-20.1-2.8-2.1-12.9-0.3-16.4 4.4-3.5 4.6-10.6-1.4-0.7-16.6 10-15.1 22.8-24.4 31.7-23.5 8.8 0.8 21.5 23.6 21.5 23.6z"/>
		<path fill-rule="evenodd" class="s9" d="m183.8 327.1l-13.3-21c0 0-6.8-7.9-19.9-2.6"/>
		<path fill-rule="evenodd" class="s9" d="m176.3 330.2l-14.6-15.4c0 0-7.1-6.1-18.4-0.8"/>
		<path class="s8" d="m147.5 325.9l10.4 12.3-29.8 24.1c0 0-16.4 8.1-22.4 12.3-6.1 4.2-39.2 8.4-39.2 8.4l-6.2-38.2c0 0 19.4-4.4 22-6.8 2.5-2.4 29-33.6 32.4-38.2 3.5-4.7 21.2-8.8 21.2-8.8 0 0 8-2.6 16.9-10.5 8.8-7.9 20.2-5.3 24.5-1.3 4.3 3.9 16 15 18.3 22.5 2.3 7.6 3.5 15.8-2.2 13.6-9.5-3.5-14.4-23.3-25.8-20.8-5.3 1.2-19.4 13-21.2 14.5 0 0-4.4 10.6 1.1 16.9z"/>
		<path class="s10" d="m226.9 318q0-0.2-0.1-0.4-0.1-0.1-0.2-0.3-0.2-0.1-0.4-0.2-0.1-0.1-0.3-0.1l-2.9-0.1c-0.3 0-0.6 0.1-0.8 0.3-0.2 0.2-0.3 0.4-0.3 0.7-0.1 0.3 0 0.6 0.2 0.8 0.2 0.2 0.5 0.3 0.8 0.3l2.9 0.2q0.2 0 0.4-0.1 0.2-0.1 0.3-0.2 0.2-0.2 0.3-0.3 0.1-0.2 0.1-0.4 0-0.1 0-0.1 0 0 0 0 0 0 0-0.1 0 0 0 0z"/>
		<path class="s11" d="m223.5 317.9q0-0.4-0.2-0.8-0.2-0.4-0.5-0.7-0.4-0.3-0.8-0.5-0.4-0.2-0.8-0.2l-8.3-1.4-87.5-5.6c-1.5-0.1-3 0.5-4.1 1.5-1.2 1-1.8 2.5-1.9 4-0.1 1.6 0.5 3.1 1.5 4.2 1.1 1.1 2.5 1.8 4.1 1.8l88.3 1 7.7-0.6q0.5 0.1 0.9-0.1 0.5-0.2 0.8-0.5 0.4-0.3 0.6-0.8 0.2-0.4 0.2-0.9 0-0.1 0-0.1 0-0.1 0-0.1 0-0.1 0-0.1 0 0 0-0.1z"/>
		<path class="s10" d="m125.4 308.7l25.3 1.6q0.7 1 1.1 2.2 0.4 1.2 0.5 2.5 0 1.3-0.4 2.5-0.4 1.2-1.1 2.2-0.1 0.1-0.2 0.2-0.1 0.1-0.2 0.2 0 0.1-0.1 0.2-0.1 0.1-0.2 0.2l-25.1-0.3c-1.5 0-3-0.7-4-1.8-1.1-1.1-1.6-2.6-1.6-4.2 0.1-1.5 0.8-3 1.9-4 1.1-1 2.6-1.6 4.1-1.5z"/>
		<path class="s8" d="m105.7 374.6c10.7-3.6 31.6-17.7 37.2-19.3 5.6-1.7 19.2-4.2 28.3-10.5 9.1-6.3 16-11.5 21.2-18.5 5.3-7 0.2-12.7-10.1-8.8-10.2 4-24.5 11.1-24.5 11.1 0 0-7.2 1.9-13.6-5.1"/>
		<path class="s8" d="m188.8 319l-3.9 1.9c0 0 0.4 0.3 1.8 3.6q0.3 0.7 0.5 1.5 0.2 0.7 0.4 1.5 0.1 0.8 0.1 1.6 0 0.8 0 1.6c-0.1 0.6 7.4-4.9 6.9-8.6q0-0.3-0.1-0.7-0.1-0.3-0.3-0.6-0.1-0.3-0.3-0.6-0.2-0.3-0.5-0.6-0.4-0.4-1-0.7-0.6-0.2-1.2-0.3-0.6-0.1-1.2 0-0.6 0.1-1.2 0.4z"/>
		<path class="s8" d="m80.2 336.6c0 0 9.5 12.9 11.1 24.1q0.4 2.8 0.7 5.6 0.2 2.9 0.4 5.7 0.2 2.8 0.3 5.6 0.1 2.9 0.1 5.7l-29.1 7c0 0-1.4-18.2-4-28q-0.6-2.5-1.4-4.9-0.8-2.5-1.6-4.9-0.9-2.4-1.8-4.9-0.9-2.4-2-4.7z"/>
		<path class="s10" d="m81.5 359.1c-2.6-12.7-11.2-22-11.2-22l-69.1 11v78l81.7-33.8c0 0 1.2-20.5-1.4-33.2z"/>
		<path class="s5" d="m63 393c0 1.2-0.7 2.4-1.9 2.9-1.1 0.5-2.4 0.2-3.3-0.7-0.9-0.9-1.2-2.2-0.7-3.3 0.5-1.2 1.7-1.9 2.9-1.9q0.6 0 1.1 0.2 0.6 0.3 1 0.7 0.4 0.4 0.7 1 0.2 0.5 0.2 1.1z"/>
		<path class="s5" d="m71.6 389.4c0 1.2-0.8 2.3-1.9 2.8-1.2 0.5-2.5 0.2-3.3-0.7-0.9-0.9-1.2-2.2-0.7-3.3 0.5-1.2 1.6-1.9 2.8-1.9q0.6 0 1.2 0.2 0.6 0.3 1 0.7 0.4 0.4 0.6 1 0.3 0.6 0.3 1.2z"/>
		<path fill-rule="evenodd" class="s9" d="m169.4 330.9l-0.7-0.7"/>
		<path fill-rule="evenodd" class="s9" d="m173.4 340c0 0 1.5-2.9-2.8-7.8"/>
		<path fill-rule="evenodd" class="s9" d="m169.3 334c-0.1 0-0.5 1.4 2 5.5"/>
		<path fill-rule="evenodd" class="s9" d="m172 330.7q0.6 0.6 1.1 1.3 0.5 0.7 1 1.4 0.4 0.7 0.7 1.5 0.4 0.8 0.6 1.6"/>
	</g>
</svg>