<svg version="1.2" xmlns="http://www.w3.org/2000/svg" viewBox="0 0 383 461" width="383" height="461">
	<title>Man thinking-bro</title>
	<style>
		.s0 { fill: #263238;stroke: #263238;stroke-miterlimit:10 } 
		.s1 { fill: #f28f52;stroke: #263238;stroke-miterlimit:10 } 
		.s2 { fill: none;stroke: #263238;stroke-miterlimit:10 } 
		.s3 { fill: #ffffff;stroke: #263238;stroke-miterlimit:10 } 
		.s4 { fill: #263238 } 
		.s5 { fill: #cccccc } 
	</style>
	<g id="freepik--Character--inject-645">
		<path fill-rule="evenodd" class="s0" d="m348 460.3l-5.7-66.7h-136.9l-7.5 66.6h150.1z"/>
		<path class="s1" d="m264.2 191.7c0 0-40 11-57.5 24.2-17.5 13.3-29.6 26.8-26.8 52.4 2.9 25.7 21.2 95.9 21.2 95.9 0 0-2.6 28.4-2.6 30.1 0 1.7-0.2 6.5 6 6.8 6.2 0.3 80.6 3.4 97.2 3.7 16.6 0.2 38.6-1.5 41.2-3.4q0.9-0.8 1.6-1.8 0.8-0.9 1.4-2 0.5-1.1 0.8-2.3 0.3-1.2 0.4-2.4c0.3-3.4 3.1-44.8 3.1-44.8l0.3-18.6c0 0 18.3-60.9 19.4-80.6 1.1-19.7-6.2-26.2-14.4-32.4-8.1-6.2-33.6-16.7-47.3-20.9-13.8-4.1-44-3.9-44-3.9z"/>
		<path class="s2" d="m274.1 286.3c-2 27.4-5.7 78-5.4 86.7 0.5 12-4.4 15.5-4.4 20"/>
		<path class="s2" d="m275.4 268.6c0 0-0.3 4.6-0.9 12"/>
		<path fill-rule="evenodd" class="s0" d="m293.3 303.8l2.5 30.2 14.4-1-16.9-29.2z"/>
		<path class="s0" d="m279.7 356.5c0 0 35-5.5 37.6-4.9 2.7 0.5 20.6 9.2 23.2 9.8q0.6 0.2 1.3 0.3 0.6 0.2 1.2 0.4 0.6 0.3 1.2 0.5 0.6 0.3 1.2 0.5l3.9 3.3-1.3-9.9c0 0-5.2-6.4-16.8-11-11.6-4.6-17.4-2-20-1.2-2.6 0.9-31.5 12.2-31.5 12.2z"/>
		<path class="s3" d="m225.9 330.1l91-0.3c0 0 29.3-2.8 30.4-3.1 1.1-0.3 12.7 2.8 13.8 3.6 1.2 0.9 1.2 3.4 0.6 6l-0.6 2.5q0.2 0.8 0.3 1.6 0.2 0.8 0.3 1.6 0.1 0.8 0.1 1.7 0.1 0.8 0.2 1.6c0 2-2.3 2.5-2.6 3.4-0.3 0.8 1.7 3.9-0.5 5.9l-2.3 2c0 0-0.3 5.3-1.4 6.8-1.1 1.4-4.5 3.9-5.9 3.1-1.4-0.9-0.9-3.1-0.9-4.6 0-1.4-0.5-2.8-2.2-2.8-1.7 0-2 1.4-10.7-0.8-8.7-2.3-18.3-9.9-19.2-10.2-0.8-0.3-77.2 20.3-99.8 23.1-22.5 2.9-24.5-0.2-25.3-4-0.9-3.7-2.3-12.4-2.3-12.4l-4-17.1z"/>
		<path class="s1" d="m285.1 224.7c-0.1 0 4.7-5 7.6-2.7 3 2.3 5.7 14.1 9.4 13.1 3.7-1 11.2-24 11.2-33.2 0-9.1-6.5-14.6-8-15.1-1.4-0.5-39.3-1-43.8 0.8-4.4 1.7-6.1 17.3-7.9 26.7-1.7 9.4 2.2 11.6 4.7 10.4 2.5-1.2 12.1-5.2 14.4-5.2 2.2 0 12.3 5.2 12.3 5.2z"/>
		<path class="s3" d="m310.4 172.5c0 0-3.6 17.6-4.9 21.9-1.4 4.3-11.5 17.5-14 20.3-2.6 2.8-10.1 16.4-12 16.8-2 0.4-7.5-18.2-7.5-18.2 0 0-7.1-12.2-8.5-15.3-1.4-3.2-3.5-12.4-3.5-12.4 0 0 11.6 10 24 7.8 12.4-2.1 18.7-14.6 18.7-14.6z"/>
		<path class="s3" d="m262.3 137.6c0 0-3.5-3.7-5.5 2-1.9 5.7 2 15.8 2 15.8z"/>
		<path class="s3" d="m262.9 126c0 0-5.7 40.6-5.7 43 0 2.4-1.6 10.2 0.8 15.4 2.4 5.1 9.4 11.4 15.2 12.2 5.7 0.8 16.9-0.4 23.2-5.3 6.3-5 13.6-15.6 13.6-15.6 0 0 7.9-1.2 13-3.4 5.1-2.1 9.1-7.1 8.9-12.2q-0.1-1.2-0.4-2.4-0.2-1.2-0.7-2.3-0.4-1.2-1-2.3-0.5-1-1.3-2l-3-5.6 7.9-14.7c0 0-4.5-8.5-19.1-16.6-14.6-8.1-27.6-10.6-33.7-10.6-6.1 0-13.8 2.5-16 7.5-2.2 4.9-1.7 14.9-1.7 14.9z"/>
		<path class="s0" d="m281.6 106.1c0 0 11.3 18.6 19.7 17.8 8.5-0.8 11-4.7 11-4.7l5.7 7.6c0 0-6.1 2.6-4.9 5.8 1.2 3.1 6.5 10.2 6.5 10.2l-4.3 18.5c0 0 3.3 0.6 3.9-0.6 0.6-1.2 3.6-8.4 3.6-8.4q0.3-0.2 0.6-0.4 0.3-0.2 0.6-0.3 0.3-0.2 0.7-0.3 0.3-0.1 0.6-0.2 0.4-0.1 0.8-0.2 0.4 0 0.8 0 0.4 0 0.8 0 0.4 0.1 0.8 0.2c0.3 0 2.2-7.3 3-7.5 0.8-0.2 8.7-2.4 11.6-10.1 3-7.6-1.6-19.9-11.8-29.5-10.3-9.7-31.9-12.2-33.1-14-1.2-1.8 5.5 0.8 4.1-3.2-1.3-3.9-10-9-21-3.5-11.1 5.5-9.5 11.6-8.3 13.6l1.2 2c0 0-9.3-3.2-15.8 0.8-6.5 3.9-9.6 11.8-6.7 12.6 3 0.8 6.7-1 6.7-1 0 0-3.9 6.5-2.8 7.9 1.2 1.3 7.3 6.8 7.3 6.8 0 0 2.4-13.7 7.3-15.7 4.9-2 11.4-4.2 11.4-4.2z"/>
		<path fill-rule="evenodd" class="s2" d="m278.1 132.7l1.8 5.8-10.1 18.9 10.6 4.1"/>
		<path class="s0" d="m276.1 130.6c0 0-4.7-3.8-8.7-2.8-3.9 1-1.5 1.6 1.2 2.6 2.8 1 8.3 3.5 7.5 0.2z"/>
		<path class="s0" d="m290.7 129.8c0 0-4.5 1.2-2.4 2.1 2.2 1 8.7-1 11.3 0 2.5 1 5.9 4.4 5.7 2.8q-0.2-1-0.7-1.9-0.5-1-1.2-1.7-0.7-0.8-1.5-1.4-0.9-0.6-1.9-0.9c-3.6-1.2-9.3 1-9.3 1z"/>
		<path class="s4" d="m273.5 139.3c-0.3 1.4-1.3 2.4-2.2 2.2-0.8-0.2-1.2-1.5-0.9-2.9 0.4-1.4 1.4-2.4 2.2-2.2 0.8 0.2 1.3 1.5 0.9 2.9z"/>
		<path class="s4" d="m295 144.9c-0.4 1.5-1.3 2.4-2.2 2.3-0.8-0.2-1.2-1.6-0.9-3 0.4-1.5 1.3-2.5 2.2-2.3 0.8 0.2 1.2 1.6 0.9 3z"/>
		<path fill-rule="evenodd" class="s2" d="m263.7 163.9l8.1 5.3"/>
		<path class="s1" d="m346.8 211.7c0 0 27.9 10.7 33.3 26.8 5.3 16-1.5 36.3-4.3 44.8-2.8 8.4-20.3 41.4-23.1 49.3-2.8 7.9-7 17.5-7 17.5 0 0-4-23.7-14.7-38.3-10.7-14.7-13.3-28-13.3-28 0 0 19.5-34.3 24.6-45.1"/>
		<path class="s1" d="m320.7 277.9c0 0 5.7-2.9 7.6-1.9 1.9 0.9 26.4 14 29.5 28.9q0.9 4.1 1 8.4 0.2 4.2-0.4 8.4-0.6 4.2-1.8 8.3-1.3 4.1-3.2 7.9c-2.9 5.4-8.2 15.8-12.4 17.1-4.1 1.3-7.6-32.7-16.1-50.4-8.6-17.8-4.2-26.7-4.2-26.7z"/>
		<path class="s2" d="m330.2 261.6c0 0 5-17.2 7-24"/>
		<path class="s3" d="m279.3 200.5c0 0-7.9-11-14-18.3-6.2-7.3-12.5-11.6-14.6-11-2.2 0.6-3 2.8-1.6 5.3 1.4 2.6 7.9 8.3 9.1 9.9 1.2 1.6 3 7.3 3 7.3 0 0-5.7 0.4-6.7 1.5q-0.4 0.6-0.7 1.1-0.3 0.5-0.6 1.1-0.3 0.5-0.6 1.1-0.2 0.5-0.5 1.1-0.4 0.2-0.8 0.5-0.5 0.3-0.8 0.6-0.4 0.3-0.8 0.7-0.3 0.3-0.6 0.7-0.2 0.3-0.4 0.7-0.2 0.3-0.3 0.7-0.2 0.3-0.3 0.7-0.1 0.3-0.2 0.7c-0.2 0.8-3 2.2-2.7 5.7 0.2 3.6 3.5 8.7 4.7 11 1.2 2.3 9.9 12.8 11.4 14.6 1.6 1.8 10.7 17.5 13 22.8 2.4 5.4 25.3 67 32 76.3 6.7 9.3 19.1 18.1 25.8 21.3 6.7 3.1 11.4-2.2 14.5-8.9 3.2-6.7 6-20.1-0.1-35.5-6.1-15.3-18.2-28.5-27.4-36.4-9.3-7.9-26.6-27.6-28.6-31.1-2-3.6-4.5-11.5-4.5-11.5 0 0 5.1-15 5.5-18.5 0.4-3.5-1.6-9.8-1-12.6 0.6-2.8 3-8.3 3.9-10.6 1-2.4 4.4-6.4 2.6-8.1-1.8-1.8-9.1 0.4-11.6 4.5q-0.9 1.5-1.7 3.1-0.8 1.5-1.6 3.1-0.7 1.6-1.4 3.2-0.8 1.6-1.4 3.2z"/>
		<path class="s1" d="m218.4 243.2c0.6-3.1 1-5.3 1-5.3"/>
		<path class="s1" d="m216.6 210.8c0 0-15 2-30.5 18.6-15.5 16.6-8.7 56.1-7.3 64.3 1.4 8.2 3.7 33.3 3.7 33.3l39.7-13.3c0 0-6.5-44.2-7-48.1-0.3-2 0.8-9 1.9-15.5"/>
		<path class="s1" d="m178.5 318.2c0 0 4 21.2 5.9 22.3 2 1.1 32.7-7.3 36.1-7.9 3.4-0.6 5.4 0.3 5.4-2.5 0-2.8-2.8-16.1-4.5-18.3-1.7-2.3-38.4 2.5-41.5 3.3-3.1 0.9-1.4 3.1-1.4 3.1z"/>
		<path class="s2" d="m201 301.9q2.6 1 5.2 2.2 2.6 1.1 5.1 2.4 2.6 1.2 5.1 2.5 2.5 1.3 4.9 2.7c1.7 1-9.6-17.9-13.5-21.7"/>
		<path class="s2" d="m195.7 299.9q1.7 0.6 3.4 1.2"/>
		<path class="s2" d="m288.2 392.2c7.3-2.6 14-5.5 18-8.3"/>
		<path class="s2" d="m253.8 402.2c0 0 15.6-3.7 30.3-8.6"/>
		<path class="s2" d="m319.3 382.7c-7.7 3.9-19.8 9.4-29.7 11.9"/>
		<path class="s2" d="m326.8 378.8c0 0-1.6 0.9-4.2 2.2"/>
	</g>
	<g id="freepik--speech-bubble--inject-645">
		<path class="s0" d="m63.1 21.1c-67.1 32.4-79.8 127.2-37.2 184.2 8.9 11.9 20.5 22 34.3 27.8 47 20 84.6-19.7 107.5-56.1 36.6-58.1 41.2-72.5 40.5-62.7-0.6 9.8 16.4 20.3 26.2-31.3 12.5-66-79.9-81-126.6-74.8q-5.8 0.8-11.5 1.9-5.8 1.2-11.4 2.8-5.6 1.6-11 3.7-5.5 2.1-10.8 4.5z"/>
		<path fill-rule="evenodd" class="s0" d="m228.7 141.1c-4 7.1-10.6 11-14.9 8.6-4.2-2.4-4.5-10-0.5-17.1 3.9-7.1 10.5-11 14.8-8.6 4.3 2.4 4.5 10 0.6 17.1z"/>
		<path class="s0" d="m235.7 142.6c-2.3 4.2-2.2 8.7 0.3 10.1 2.6 1.4 6.5-0.9 8.8-5.1 2.3-4.2 2.2-8.7-0.3-10.1-2.6-1.4-6.5 0.9-8.8 5.1z"/>
		<path class="s3" d="m67 15c-67.1 32.3-79.8 127.1-37.3 184.2 8.9 11.9 20.5 22 34.3 27.8 47 19.9 84.7-19.7 107.6-56.2 36.6-58.1 41.2-72.5 40.5-62.7-0.7 9.8 16.3 20.3 26.1-31.3 12.6-66-79.8-81-126.6-74.8q-5.8 0.7-11.5 1.9-5.7 1.2-11.3 2.8-5.6 1.7-11.1 3.7-5.4 2.1-10.7 4.6z"/>
		<path class="s3" d="m217.1 126.4c-3.9 7.1-3.7 14.8 0.6 17.1 4.3 2.4 10.9-1.5 14.8-8.6 4-7.1 3.7-14.7-0.6-17.1-4.2-2.3-10.8 1.5-14.8 8.6z"/>
		<path class="s3" d="m239.6 136.4c-2.4 4.2-2.2 8.7 0.3 10.1 2.5 1.4 6.5-0.8 8.8-5 2.3-4.2 2.1-8.8-0.4-10.2-2.5-1.4-6.4 0.9-8.7 5.1z"/>
	</g>
	<g id="freepik--Gears--inject-645">
		<path class="s5" d="m31.6 86.5v-13.3h8q0.1-0.8 0.3-1.6 0.2-0.8 0.4-1.6 0.2-0.8 0.4-1.6 0.3-0.8 0.6-1.6l-7-4 6.7-11.4 7 4q0.5-0.7 1.1-1.3 0.6-0.6 1.1-1.2 0.6-0.6 1.3-1.1 0.6-0.6 1.2-1.1l-4-7 11.4-6.6 4 7q0.8-0.3 1.6-0.6 0.8-0.2 1.6-0.4 0.8-0.2 1.6-0.4 0.8-0.2 1.7-0.3v-8h13.2v8q0.8 0.1 1.6 0.3 0.8 0.2 1.6 0.4 0.8 0.2 1.6 0.5 0.8 0.2 1.6 0.5l4-6.9 11.4 6.6-4 7q0.7 0.5 1.3 1.1 0.6 0.5 1.2 1.1 0.6 0.6 1.1 1.2 0.6 0.6 1.1 1.3l7-4 6.6 11.4-7 4q0.3 0.8 0.6 1.6 0.2 0.8 0.4 1.6 0.2 0.8 0.4 1.6 0.2 0.8 0.3 1.6h8v13.2h-8q-0.1 0.9-0.3 1.7-0.2 0.8-0.4 1.6-0.2 0.8-0.5 1.6-0.2 0.8-0.5 1.6l7 4-6.6 11.4-7-4q-0.6 0.6-1.1 1.2-0.6 0.7-1.2 1.2-0.6 0.6-1.2 1.2-0.6 0.6-1.2 1.1l4 7-11.5 6.6-4-7q-0.8 0.3-1.6 0.5-0.8 0.3-1.6 0.5-0.8 0.2-1.6 0.4-0.8 0.1-1.6 0.3v8h-13.2v-8q-0.8-0.2-1.7-0.3-0.8-0.2-1.6-0.4-0.8-0.2-1.6-0.5-0.8-0.2-1.5-0.5l-4 7-11.5-6.7 4-7q-0.6-0.5-1.2-1.1-0.7-0.6-1.3-1.1-0.5-0.6-1.1-1.3-0.6-0.6-1.1-1.2l-7 4-6.6-11.4 7-4q-0.3-0.8-0.5-1.6-0.3-0.8-0.5-1.6-0.2-0.8-0.4-1.6-0.2-0.8-0.3-1.7zm45.5 18c10 0 18.9-6 22.8-15.2 3.8-9.2 1.7-19.8-5.4-26.8-7-7-17.6-9.1-26.8-5.3-9.2 3.8-15.2 12.8-15.2 22.7 0 3.3 0.6 6.5 1.9 9.4 1.2 3 3 5.8 5.3 8 2.3 2.3 5 4.1 8 5.4 3 1.2 6.2 1.9 9.4 1.8z"/>
		<path class="s5" d="m50.3 164.1v-10.8l6.6 0.1q0.1-0.7 0.2-1.4 0.2-0.6 0.3-1.3 0.2-0.6 0.4-1.3 0.2-0.6 0.4-1.3l-5.6-3.2 5.4-9.3 5.6 3.2q0.5-0.5 0.9-1 0.5-0.5 1-1 0.4-0.4 0.9-0.9 0.5-0.5 1-0.9l-3.2-5.6 9.3-5.4 3.2 5.6q0.7-0.2 1.3-0.4 0.7-0.2 1.3-0.4 0.7-0.1 1.3-0.3 0.7-0.1 1.4-0.2v-6.6h10.7v6.6q0.7 0.1 1.3 0.2 0.7 0.2 1.3 0.3 0.7 0.2 1.3 0.4 0.7 0.2 1.3 0.4l3.3-5.6 9.3 5.4-3.3 5.6q0.5 0.4 1 0.9 0.5 0.4 1 0.9 0.5 0.5 0.9 1 0.5 0.5 0.9 1l5.7-3.3 5.4 9.4-5.7 3.2q0.2 0.7 0.4 1.3 0.2 0.6 0.4 1.3 0.2 0.7 0.3 1.3 0.2 0.7 0.3 1.3h6.5v10.8h-6.5q-0.1 0.7-0.3 1.3-0.1 0.7-0.3 1.3-0.2 0.7-0.4 1.3-0.2 0.7-0.4 1.3l5.7 3.3-5.4 9.3-5.7-3.3q-0.4 0.5-0.9 1-0.4 0.5-0.9 1-0.5 0.5-1 0.9-0.5 0.5-1 0.9l3.2 5.7-9.3 5.4-3.2-5.7q-0.7 0.2-1.3 0.4-0.6 0.2-1.3 0.4-0.7 0.2-1.3 0.3-0.7 0.2-1.3 0.3v6.5h-10.7v-6.5q-0.7-0.1-1.3-0.3-0.7-0.1-1.3-0.3-0.7-0.2-1.3-0.4-0.7-0.2-1.3-0.4l-3.3 5.7-9.3-5.4 3.3-5.7q-0.5-0.4-1-0.9-0.5-0.4-1-0.9-0.5-0.5-0.9-1-0.5-0.5-0.9-1l-5.7 3.3-5.4-9.3 5.7-3.3q-0.2-0.6-0.4-1.3-0.2-0.6-0.4-1.3-0.2-0.6-0.3-1.3-0.2-0.7-0.3-1.3zm37 14.6c8.1 0 15.4-4.8 18.5-12.3 3.1-7.5 1.4-16.1-4.4-21.8-5.7-5.7-14.3-7.4-21.8-4.3-7.4 3-12.3 10.3-12.3 18.4 0 2.7 0.5 5.3 1.5 7.7 1 2.4 2.5 4.6 4.4 6.5 1.8 1.8 4 3.3 6.5 4.3 2.4 1 5 1.5 7.6 1.5z"/>
		<path class="s5" d="m118.6 139.5v-8.1h5q0-0.6 0.1-1.1 0.2-0.5 0.3-1 0.1-0.5 0.3-1 0.1-0.5 0.3-0.9l-4.3-2.5 4.1-7.1 4.3 2.5q0.3-0.4 0.7-0.8 0.3-0.4 0.7-0.7 0.4-0.4 0.7-0.8 0.4-0.3 0.8-0.6l-2.5-4.3 7.1-4.1 2.5 4.3q0.5-0.2 1-0.4 0.5-0.1 1-0.2 0.5-0.2 1-0.3 0.5-0.1 1-0.2v-5h8.2v5q0.5 0.1 1 0.2 0.5 0.1 1 0.3 0.5 0.1 1 0.2 0.5 0.2 1 0.4l2.5-4.3 7.1 4.1-2.5 4.3q0.4 0.3 0.7 0.7 0.4 0.3 0.8 0.7 0.3 0.3 0.7 0.7 0.3 0.4 0.7 0.8l4.3-2.5 4.1 7.1-4.3 2.5q0.1 0.5 0.3 1 0.1 0.4 0.3 0.9 0.1 0.5 0.2 1.1 0.1 0.5 0.2 1h5v8.1h-5q-0.1 0.6-0.2 1.1-0.1 0.5-0.3 1-0.1 0.5-0.3 1-0.1 0.5-0.3 0.9l4.3 2.5-4.1 7.1-4.3-2.5q-0.3 0.4-0.7 0.8-0.3 0.4-0.7 0.7-0.4 0.4-0.7 0.7-0.4 0.4-0.8 0.7l2.5 4.3-7.1 4.1-2.5-4.3q-0.5 0.2-1 0.3-0.5 0.2-1 0.3-0.5 0.1-1 0.3-0.5 0.1-1 0.2v5h-8.2v-5q-0.5-0.1-1-0.2-0.5-0.1-1-0.3-0.5-0.1-1-0.2-0.5-0.2-1-0.3l-2.5 4.3-7.1-4.1 2.5-4.3q-0.4-0.4-0.7-0.7-0.4-0.4-0.8-0.7-0.3-0.4-0.7-0.8-0.3-0.4-0.7-0.7l-4.3 2.4-4-7.1 4.3-2.5q-0.2-0.5-0.3-1-0.2-0.5-0.3-1-0.2-0.5-0.3-1-0.1-0.5-0.2-1zm28.2 11.2c6.2 0 11.7-3.7 14.1-9.4 2.4-5.7 1.1-12.3-3.3-16.6-4.4-4.4-10.9-5.7-16.6-3.3-5.7 2.3-9.4 7.9-9.4 14 0 2 0.4 4 1.1 5.9 0.8 1.8 1.9 3.5 3.3 4.9 1.5 1.4 3.1 2.5 5 3.3 1.8 0.8 3.8 1.2 5.8 1.2z"/>
		<path class="s5" d="m147.7 63.9v-8.2h5q0.1-0.5 0.2-1 0.1-0.5 0.2-1 0.2-0.5 0.3-1 0.2-0.5 0.3-1l-4.3-2.5 4.1-7.1 4.3 2.5q0.4-0.4 0.7-0.8 0.4-0.3 0.7-0.7 0.4-0.4 0.8-0.7 0.4-0.4 0.8-0.7l-2.5-4.3 7.1-4.1 2.4 4.3q0.5-0.2 1-0.3 0.5-0.2 1-0.3 0.5-0.1 1-0.3 0.5-0.1 1-0.2v-5h8.2v5q0.5 0.1 1 0.2 0.5 0.2 1 0.3 0.5 0.1 1 0.3 0.5 0.1 1 0.3l2.5-4.3 7.1 4.1-2.6 4.3q0.4 0.4 0.8 0.7 0.3 0.4 0.7 0.7 0.4 0.4 0.7 0.8 0.4 0.3 0.7 0.7l4.3-2.5 4.1 7.1-4.3 2.5q0.2 0.5 0.3 1 0.2 0.5 0.3 1 0.1 0.5 0.3 1 0.1 0.5 0.2 1h5v8.2h-5q-0.1 0.5-0.2 1-0.1 0.5-0.3 1-0.1 0.5-0.3 1-0.1 0.5-0.3 1l4.3 2.5-4.1 7.1-4.3-2.5q-0.3 0.4-0.7 0.8-0.3 0.3-0.7 0.7-0.3 0.4-0.7 0.7-0.4 0.3-0.8 0.7l2.5 4.3-7.1 4.1-2.5-4.3q-0.5 0.1-0.9 0.3-0.5 0.1-1 0.3-0.5 0.1-1 0.2-0.5 0.1-1 0.2v5h-8.2v-5q-0.5-0.1-1-0.2-0.5-0.1-1-0.2-0.5-0.1-1-0.3-0.5-0.1-1-0.3l-2.5 4.3-7-4.1 2.4-4.3q-0.4-0.3-0.7-0.7-0.4-0.3-0.8-0.7-0.3-0.4-0.7-0.7-0.3-0.4-0.7-0.8l-4.3 2.5-4.1-7.1 4.3-2.5q-0.1-0.5-0.3-1-0.1-0.5-0.3-1-0.1-0.5-0.2-1-0.1-0.5-0.2-1zm28.2 11.1c6.1 0 11.7-3.7 14.1-9.4 2.3-5.7 1-12.2-3.3-16.6-4.4-4.4-11-5.7-16.7-3.3-5.7 2.4-9.4 7.9-9.4 14.1 0 2 0.4 4 1.2 5.8 0.8 1.9 1.9 3.6 3.3 5 1.4 1.4 3.1 2.5 4.9 3.3 1.9 0.7 3.9 1.1 5.9 1.1z"/>
	</g>
</svg>