<svg version="1.2" xmlns="http://www.w3.org/2000/svg" viewBox="0 0 381 309" width="381" height="309">
	<title>New message-bro-svg</title>
	<defs>
		<clipPath clipPathUnits="userSpaceOnUse" id="cp1">
			<path d="m315.83 131.47c-5.48-8.22-18.56-10.65-28.9-14-10.34-3.35-16.43-10-13.69-26.46 2.74-16.46 17-43.2 16.73-48.07-0.27-4.87-49.28-4.56-53.85-3-4.57 1.56-5.47 1.21-9.73 6.69q-0.89 1.11-1.73 2.25-0.84 1.14-1.64 2.32-0.8 1.17-1.56 2.37-0.75 1.2-1.46 2.43l5.28-11.1h0.39q0.21-0.55 0.47-1.07 0.26-0.53 0.57-1.03 0.3-0.5 0.64-0.98 0.35-0.47 0.73-0.92 1.73-2.01 3.09-4.28 1.36-2.27 2.31-4.74 0.96-2.48 1.47-5.07 0.52-2.6 0.58-5.25c0.2-10.47-7.25-9.46-8.66-6.24-1.41 3.22-9.66 14.3-12.08 17.32-2.42 3.02-7.45 11.28-7.45 11.28l-5.59 19.38c0 0-1.22 5.78-8.22 27.69-7 21.91-3.95 32.01-3.95 32.01 0 0-1.83-0.91-6.09 12.17-4.26 13.08-2.43 29.81 5.17 37.72 7.6 7.91 17.65 7.61 28.91 3.05q2.58-1.11 4.95-2.61 2.37-1.51 4.46-3.38 2.1-1.87 3.86-4.05 1.77-2.18 3.16-4.62c0.93-1.62 11.87-3 20.69-9.73 8.82-6.73 15.51-13.69 28.31-13.08 12.8 0.61 27.38 7.91 32.25 7.6 4.87-0.31 6.06-6.39 0.58-14.6z"/>
		</clipPath>
	</defs>
	<style>
		.s0 { fill: #f28f52 } 
		.s1 { opacity: .3;fill: #ffffff } 
		.s2 { fill: #ffffff } 
		.s3 { opacity: .5;fill: #ffffff } 
		.s4 { fill: none;stroke: #263238;stroke-linecap: round;stroke-linejoin: round } 
		.s5 { fill: #263238;stroke: #263238;stroke-miterlimit:10 } 
		.s6 { fill: #ffffff;stroke: #263238;stroke-linecap: round;stroke-linejoin: round;stroke-width: .9 } 
		.s7 { fill: #263238;stroke: #263238;stroke-linecap: round;stroke-linejoin: round } 
		.s8 { fill: #ffffff;stroke: #263238;stroke-linecap: round;stroke-linejoin: round } 
		.s9 { fill: #f28f52;stroke: #263238;stroke-miterlimit:10;stroke-width: 2 } 
		.s10 { fill: none;stroke: #263238;stroke-linecap: round;stroke-miterlimit:10;stroke-width: 2.1 } 
		.s11 { fill: #263238 } 
	</style>
	<g id="freepik--Shadow--inject-81">
		<path class="s0" d="m380.4 302.5c0 3.1-85 5.6-189.8 5.6-104.8 0-189.8-2.5-189.8-5.6 0-3.1 85-5.7 189.8-5.7 104.8 0 189.8 2.6 189.8 5.7z"/>
		<path class="s1" d="m380.4 302.5c0 3.1-85 5.6-189.8 5.6-104.8 0-189.8-2.5-189.8-5.6 0-3.1 85-5.7 189.8-5.7 104.8 0 189.8 2.6 189.8 5.7z"/>
	</g>
	<g id="freepik--Plants--inject-81">
		<path class="s0" d="m344.1 193.5c0 0.1 2.5-2.6 2.7-2.8 1.6-2.2 3.5-7.4 1.7-9.9q-0.5-0.6-1.1-1-0.7-0.3-1.5-0.4-0.7-0.1-1.5 0.2-0.7 0.2-1.2 0.8c-1.7 1.4-2 4-1.9 6 0.2 2.4 2.8 7.1 2.8 7.1z"/>
		<path class="s0" d="m367.4 184.2c-2.5-1.7-7.6 0.2-9.8 1.8-0.2 0.2-2.9 2.7-2.8 2.7q-1.2 0.5-2.6 1c-1.7 0.7-3.7 1.6-5.8 2.6q-0.8 0.4-1.7 0.8-0.8 0.5-1.6 0.9-0.8 0.5-1.6 0.9-0.8 0.5-1.6 1-0.9 0.6-1.8 1.2-0.8 0.6-1.7 1.2-0.8 0.6-1.6 1.3-0.8 0.7-1.6 1.4 0 0 0 0 0 0 0 0 0 0 0 0 0 0 0 0c0.4-0.7 1.6-2.9 1.6-3.1 1-2.6 1.5-8-0.9-10q-0.6-0.4-1.4-0.6-0.7-0.2-1.5 0-0.7 0.1-1.4 0.5-0.6 0.5-1 1.1c-1.2 1.8-0.8 4.5-0.2 6.4 0.8 2.2 4.2 5.7 4.5 6q-0.8 0.7-1.5 1.5-0.7 0.8-1.5 1.5-0.7 0.8-1.4 1.6-0.7 0.8-1.3 1.7c-1 1.3-2.1 2.6-3 4 0.3-0.7 0.6-1.3 0.7-1.4 1-2.5 1.4-8-1-10q-0.6-0.4-1.3-0.6-0.8-0.2-1.5 0-0.8 0.1-1.4 0.5-0.6 0.5-1 1.1c-1.2 1.8-0.9 4.5-0.2 6.4 0.6 1.9 3.5 5.1 4.3 5.9l-1.2 1.5c-1.8 2.5-3.5 5-5.4 7.4q-0.9 1.3-2 2.5c0.3-0.6 0.6-1.1 0.6-1.2 1-2.5 1.5-8-0.9-10q-0.6-0.5-1.3-0.6-0.8-0.2-1.5-0.1-0.8 0.2-1.4 0.6-0.7 0.4-1.1 1.1c-1.2 1.8-0.8 4.4-0.2 6.4 0.7 1.9 3.3 4.7 4.2 5.7q-1 1.2-2.1 2.4c-0.5 0.5-0.9 1-1.5 1.5l-1.5 1.4c-1 0.9-2 1.8-3 2.7q-1.1 0.8-2 1.6c0.6-0.8 1.8-2.5 2-2.6q0.4-0.8 0.7-1.6 0.3-0.9 0.5-1.7 0.2-0.9 0.3-1.8 0.1-0.9 0.1-1.8 0-0.1 0.1-0.2 0-0.1 0.1-0.1 0-0.1 0.1-0.2 0-0.1 0-0.2 0.3-0.7 0.3-1.5 0-0.8-0.4-1.5-0.3-0.6-0.9-1.1-0.6-0.5-1.4-0.7c-3-0.8-7.1 2.9-8.5 5.2-0.1 0.1-0.8 1.7-1.3 2.7q0.3-0.9 0.6-1.9c0.3-1.3 0.6-2.6 1-4q0.2-1 0.4-2c0.1-0.7 0.2-1.5 0.4-2.2q0.3-2.5 0.5-5.1c1.2 0.3 5.2 1.4 7.2 1 2-0.4 4.5-1.3 5.5-3.2q0.4-0.6 0.5-1.4 0.1-0.8-0.1-1.5-0.3-0.7-0.8-1.3-0.5-0.6-1.2-0.9c-2.8-1.2-7.4 1.8-9.2 3.9-0.1 0.1-1.2 1.7-1.8 2.7 0.1-1 0.1-2.1 0.2-3.2 0.1-3 0.2-6.1 0.2-9.2q0-1.4 0.1-2.8c0.4 0.1 5.1 1.4 7.4 1.1 2-0.3 4.5-1.3 5.5-3.2q0.4-0.6 0.5-1.4 0.1-0.8-0.2-1.5-0.2-0.7-0.7-1.3-0.5-0.6-1.2-0.9c-2.8-1.1-7.5 1.8-9.2 3.9-0.2 0.1-1.8 2.5-2.1 3.1 0-2.1 0.1-4.1 0.2-6.2q0.1-1 0.2-2 0.1-1 0.3-2.1 0.1-1 0.3-2 0.1-1 0.3-2c0.2 0 5.2 1.5 7.5 1.1 2-0.3 4.5-1.3 5.5-3.2q0.4-0.6 0.5-1.4 0.1-0.8-0.1-1.5-0.3-0.7-0.8-1.3-0.5-0.6-1.2-0.9c-2.8-1.1-7.5 1.8-9.2 3.9-0.1 0.1-1.4 1.9-1.9 2.8l-0.2-0.1q0.3-1 0.5-2 0.3-1 0.6-2 0.4-1 0.7-2 0.4-0.9 0.8-1.9c0.6-1.4 1.2-2.7 1.9-4 0.9 0.4 5 2 7.1 1.9 2.1-0.1 4.6-0.8 5.8-2.5q0.5-0.6 0.7-1.4 0.1-0.7 0-1.5-0.2-0.8-0.6-1.4-0.5-0.6-1.1-1c-2.7-1.5-7.6 1-9.6 2.8-0.1 0.1-1.1 1.3-1.8 2.1 0.3-0.5 0.6-1.1 0.9-1.7 1.1-2 2.2-3.8 3.3-5.3q0.9-1.3 1.6-2.4c1.1-0.1 5.4-0.6 7.2-1.7 1.8-1 3.7-2.7 4-4.9q0.1-0.7-0.1-1.5-0.1-0.7-0.6-1.3-0.5-0.6-1.2-1-0.7-0.3-1.5-0.4c-3 0-6.3 4.4-7.2 7 0 0.2-0.9 3.8-0.8 3.8h0.1q-0.8 1-1.7 2.3c-1.1 1.5-2.2 3.3-3.4 5.3q-0.5 0.8-0.9 1.6-0.5 0.8-0.9 1.6-0.5 0.9-0.9 1.7-0.4 0.9-0.8 1.7-0.4 1-0.8 1.9-0.4 1-0.7 2-0.4 1-0.7 2-0.3 1-0.5 2 0 0 0 0 0 0 0 0.1 0 0 0 0 0 0 0 0c0-0.9-0.3-3.4-0.4-3.6-0.5-2.6-3.2-7.4-6.2-7.7q-0.8-0.1-1.5 0.2-0.7 0.2-1.3 0.8-0.5 0.5-0.8 1.2-0.3 0.7-0.3 1.5c0 2.1 1.7 4.2 3.3 5.4 1.9 1.4 6.7 2.5 7.1 2.5q-0.2 1.1-0.4 2.1-0.2 1.1-0.4 2.1-0.1 1.1-0.3 2.1-0.1 1.1-0.2 2.2-0.2 2.4-0.4 5c0-0.8-0.1-1.5-0.1-1.6-0.6-2.7-3.3-7.5-6.3-7.8q-0.8 0-1.5 0.2-0.7 0.3-1.3 0.8-0.5 0.5-0.8 1.3-0.3 0.7-0.3 1.4c0 2.2 1.8 4.2 3.4 5.4 1.6 1.3 5.7 2.3 6.8 2.6 0 0.6 0 1.2 0 1.9-0.2 3.1-0.3 6.1-0.5 9.1q-0.1 1.6-0.2 3.2c-0.1-0.7-0.2-1.3-0.2-1.3-0.5-2.7-3.2-7.5-6.2-7.8q-0.8-0.1-1.5 0.2-0.8 0.2-1.3 0.8-0.6 0.5-0.9 1.2-0.2 0.7-0.2 1.5c0 2.1 1.7 4.2 3.3 5.4 1.6 1.2 5.4 2.1 6.7 2.4q-0.2 1.7-0.5 3.2c-0.1 0.7-0.2 1.4-0.4 2.1l-0.4 2c-0.4 1.3-0.7 2.6-1.1 3.9q-0.4 1.3-0.8 2.5c0.1-1.1 0.2-3.1 0.2-3.3-0.2-2.7-2.1-7.9-5-8.6q-0.8-0.2-1.5-0.1-0.8 0.2-1.4 0.6-0.6 0.5-1 1.1-0.4 0.7-0.5 1.4c-0.3 2.2 1.1 4.4 2.5 5.9 1.4 1.4 6 3.4 6.5 3.6q-0.6 2-1.3 4c-1.5 4.3-2.9 7.9-3.9 10.4 0 0.1 0 0.1-0.1 0.2l1.8 1q0.1-0.2 0.2-0.5c1-2.5 2.3-6.1 3.7-10.6q0.7-2.1 1.4-4.4 0.6 0.1 1.1 0.1 0.6 0.1 1.2 0.1 0.6 0 1.1 0.1 0.6 0 1.2 0c0.5 2.2 3.1 5.9 3.4 6.3q-1.7 1.4-3.2 2.6c-3.7 2.9-6.8 5-9 6.6l-0.3 0.1 2 1.1c2.2-1.5 5-3.7 8.4-6.3 1.1-1 2.3-2 3.5-3 0.5 0.3 4.1 3.4 6.3 4.1 1.9 0.5 4.6 0.7 6.3-0.6q0.6-0.4 1-1.1 0.4-0.6 0.5-1.4 0.1-0.8-0.1-1.5-0.2-0.7-0.7-1.3c-2.1-2.3-7.5-1.5-10-0.4-0.2 0.1-1.7 1-2.6 1.6q0.7-0.6 1.5-1.3c1-0.9 2-1.8 3-2.8l1.5-1.4c0.6-0.5 1-1.1 1.5-1.6q1.7-1.9 3.3-4c0.8 0.9 3.6 4 5.5 4.9 1.8 0.8 4.4 1.4 6.3 0.4q0.7-0.4 1.2-1 0.5-0.6 0.7-1.3 0.2-0.7 0.1-1.5-0.1-0.7-0.5-1.4c-1.7-2.5-7.2-2.6-9.9-1.9-0.1 0.1-2 0.8-3 1.3 0.7-0.9 1.3-1.7 1.9-2.5 1.8-2.5 3.6-5 5.3-7.6l1.6-2.3c0.3 0.3 3.5 4.1 5.6 5 1.8 0.8 4.4 1.4 6.3 0.4q0.7-0.3 1.2-0.9 0.5-0.6 0.7-1.4 0.2-0.7 0.1-1.5-0.1-0.7-0.5-1.4c-1.7-2.5-7.2-2.6-9.8-1.8-0.2 0-2.8 1.1-3.5 1.4 1.2-1.7 2.4-3.4 3.6-5q0.7-0.8 1.3-1.6 0.7-0.8 1.3-1.6 0.7-0.8 1.4-1.5 0.7-0.8 1.5-1.5c0.1 0.2 3.4 4.1 5.6 5.1 1.8 0.8 4.4 1.4 6.3 0.4q0.7-0.4 1.2-0.9 0.5-0.6 0.7-1.4 0.2-0.7 0.1-1.5-0.1-0.7-0.5-1.4c-1.7-2.5-7.2-2.6-9.9-1.9-0.1 0.1-2.1 0.9-3.1 1.3l-0.1-0.1q0.8-0.7 1.6-1.4 0.8-0.7 1.6-1.3 0.8-0.7 1.6-1.3 0.9-0.6 1.7-1.2 1.9-1.2 3.8-2.3c0.5 0.8 3.1 4.4 4.9 5.5 1.8 1.1 4.3 1.9 6.3 1.1q0.7-0.2 1.2-0.8 0.6-0.5 0.9-1.2 0.3-0.7 0.2-1.5 0-0.8-0.3-1.5c-1.4-2.7-6.9-3.3-9.6-2.9-0.1 0-1.6 0.5-2.6 0.8l1.6-0.9c2.1-1.1 4-2 5.7-2.7 1-0.4 1.9-0.8 2.8-1.1 0.9 0.5 4.8 2.5 6.8 2.6 2.1 0.1 4.7-0.3 6.1-1.9q0.5-0.6 0.7-1.3 0.2-0.7 0.2-1.4-0.1-0.7-0.4-1.4-0.4-0.6-1-1.1z"/>
		<path class="s0" d="m297.2 166.4c1.4 1.9 6.2 4.3 6.2 4.3 0 0 0.7-3.6 0.7-3.8 0.2-2.8-1.2-8.1-4-9.2q-0.7-0.2-1.5-0.2-0.8 0.1-1.4 0.4-0.7 0.4-1.2 1-0.5 0.6-0.6 1.4c-0.6 2.1 0.6 4.4 1.8 6.1z"/>
		<g style="opacity: .5">
			<path class="s2" d="m344.1 193.5c0 0.1 2.5-2.6 2.7-2.8 1.6-2.2 3.5-7.4 1.7-9.9q-0.5-0.6-1.1-1-0.7-0.3-1.5-0.4-0.7-0.1-1.5 0.2-0.7 0.2-1.2 0.8c-1.7 1.4-2 4-1.9 6 0.2 2.4 2.8 7.1 2.8 7.1z"/>
			<path class="s2" d="m367.4 184.2c-2.5-1.7-7.6 0.2-9.8 1.8-0.2 0.2-2.9 2.7-2.8 2.7q-1.2 0.5-2.6 1c-1.7 0.7-3.7 1.6-5.8 2.6q-0.8 0.4-1.7 0.8-0.8 0.5-1.6 0.9-0.8 0.5-1.6 0.9-0.8 0.5-1.6 1-0.9 0.6-1.8 1.2-0.8 0.6-1.7 1.2-0.8 0.6-1.6 1.3-0.8 0.7-1.6 1.4 0 0 0 0 0 0 0 0 0 0 0 0 0 0 0 0c0.4-0.7 1.6-2.9 1.6-3.1 1-2.6 1.5-8-0.9-10q-0.6-0.4-1.4-0.6-0.7-0.2-1.5 0-0.7 0.1-1.4 0.5-0.6 0.5-1 1.1c-1.2 1.8-0.8 4.5-0.2 6.4 0.8 2.2 4.2 5.7 4.5 6q-0.8 0.7-1.5 1.5-0.7 0.8-1.5 1.5-0.7 0.8-1.4 1.6-0.7 0.8-1.3 1.7c-1 1.3-2.1 2.6-3 4 0.3-0.7 0.6-1.3 0.7-1.4 1-2.5 1.4-8-1-10q-0.6-0.4-1.3-0.6-0.8-0.2-1.5 0-0.8 0.1-1.4 0.5-0.6 0.5-1 1.1c-1.2 1.8-0.9 4.5-0.2 6.4 0.6 1.9 3.5 5.1 4.3 5.9l-1.2 1.5c-1.8 2.5-3.5 5-5.4 7.4q-0.9 1.3-2 2.5c0.3-0.6 0.6-1.1 0.6-1.2 1-2.5 1.5-8-0.9-10q-0.6-0.5-1.3-0.6-0.8-0.2-1.5-0.1-0.8 0.2-1.4 0.6-0.7 0.4-1.1 1.1c-1.2 1.8-0.8 4.4-0.2 6.4 0.7 1.9 3.3 4.7 4.2 5.7q-1 1.2-2.1 2.4c-0.5 0.5-0.9 1-1.5 1.5l-1.5 1.4c-1 0.9-2 1.8-3 2.7q-1.1 0.8-2 1.6c0.6-0.8 1.8-2.5 2-2.6q0.4-0.8 0.7-1.6 0.3-0.9 0.5-1.7 0.2-0.9 0.3-1.8 0.1-0.9 0.1-1.8 0-0.1 0.1-0.2 0-0.1 0.1-0.1 0-0.1 0.1-0.2 0-0.1 0-0.2 0.3-0.7 0.3-1.5 0-0.8-0.4-1.5-0.3-0.6-0.9-1.1-0.6-0.5-1.4-0.7c-3-0.8-7.1 2.9-8.5 5.2-0.1 0.1-0.8 1.7-1.3 2.7q0.3-0.9 0.6-1.9c0.3-1.3 0.6-2.6 1-4q0.2-1 0.4-2c0.1-0.7 0.2-1.5 0.4-2.2q0.3-2.5 0.5-5.1c1.2 0.3 5.2 1.4 7.2 1 2-0.4 4.5-1.3 5.5-3.2q0.4-0.6 0.5-1.4 0.1-0.8-0.1-1.5-0.3-0.7-0.8-1.3-0.5-0.6-1.2-0.9c-2.8-1.2-7.4 1.8-9.2 3.9-0.1 0.1-1.2 1.7-1.8 2.7 0.1-1 0.1-2.1 0.2-3.2 0.1-3 0.2-6.1 0.2-9.2q0-1.4 0.1-2.8c0.4 0.1 5.1 1.4 7.4 1.1 2-0.3 4.5-1.3 5.5-3.2q0.4-0.6 0.5-1.4 0.1-0.8-0.2-1.5-0.2-0.7-0.7-1.3-0.5-0.6-1.2-0.9c-2.8-1.1-7.5 1.8-9.2 3.9-0.2 0.1-1.8 2.5-2.1 3.1 0-2.1 0.1-4.1 0.2-6.2q0.1-1 0.2-2 0.1-1 0.3-2.1 0.1-1 0.3-2 0.1-1 0.3-2c0.2 0 5.2 1.5 7.5 1.1 2-0.3 4.5-1.3 5.5-3.2q0.4-0.6 0.5-1.4 0.1-0.8-0.1-1.5-0.3-0.7-0.8-1.3-0.5-0.6-1.2-0.9c-2.8-1.1-7.5 1.8-9.2 3.9-0.1 0.1-1.4 1.9-1.9 2.8l-0.2-0.1q0.3-1 0.5-2 0.3-1 0.6-2 0.4-1 0.7-2 0.4-0.9 0.8-1.9c0.6-1.4 1.2-2.7 1.9-4 0.9 0.4 5 2 7.1 1.9 2.1-0.1 4.6-0.8 5.8-2.5q0.5-0.6 0.7-1.4 0.1-0.7 0-1.5-0.2-0.8-0.6-1.4-0.5-0.6-1.1-1c-2.7-1.5-7.6 1-9.6 2.8-0.1 0.1-1.1 1.3-1.8 2.1 0.3-0.5 0.6-1.1 0.9-1.7 1.1-2 2.2-3.8 3.3-5.3q0.9-1.3 1.6-2.4c1.1-0.1 5.4-0.6 7.2-1.7 1.8-1 3.7-2.7 4-4.9q0.1-0.7-0.1-1.5-0.1-0.7-0.6-1.3-0.5-0.6-1.2-1-0.7-0.3-1.5-0.4c-3 0-6.3 4.4-7.2 7 0 0.2-0.9 3.8-0.8 3.8h0.1q-0.8 1-1.7 2.3c-1.1 1.5-2.2 3.3-3.4 5.3q-0.5 0.8-0.9 1.6-0.5 0.8-0.9 1.6-0.5 0.9-0.9 1.7-0.4 0.9-0.8 1.7-0.4 1-0.8 1.9-0.4 1-0.7 2-0.4 1-0.7 2-0.3 1-0.5 2 0 0 0 0 0 0 0 0.1 0 0 0 0 0 0 0 0c0-0.9-0.3-3.4-0.4-3.6-0.5-2.6-3.2-7.4-6.2-7.7q-0.8-0.1-1.5 0.2-0.7 0.2-1.3 0.8-0.5 0.5-0.8 1.2-0.3 0.7-0.3 1.5c0 2.1 1.7 4.2 3.3 5.4 1.9 1.4 6.7 2.5 7.1 2.5q-0.2 1.1-0.4 2.1-0.2 1.1-0.4 2.1-0.1 1.1-0.3 2.1-0.1 1.1-0.2 2.2-0.2 2.4-0.4 5c0-0.8-0.1-1.5-0.1-1.6-0.6-2.7-3.3-7.5-6.3-7.8q-0.8 0-1.5 0.2-0.7 0.3-1.3 0.8-0.5 0.5-0.8 1.3-0.3 0.7-0.3 1.4c0 2.2 1.8 4.2 3.4 5.4 1.6 1.3 5.7 2.3 6.8 2.6 0 0.6 0 1.2 0 1.9-0.2 3.1-0.3 6.1-0.5 9.1q-0.1 1.6-0.2 3.2c-0.1-0.7-0.2-1.3-0.2-1.3-0.5-2.7-3.2-7.5-6.2-7.8q-0.8-0.1-1.5 0.2-0.8 0.2-1.3 0.8-0.6 0.5-0.9 1.2-0.2 0.7-0.2 1.5c0 2.1 1.7 4.2 3.3 5.4 1.6 1.2 5.4 2.1 6.7 2.4q-0.2 1.7-0.5 3.2c-0.1 0.7-0.2 1.4-0.4 2.1l-0.4 2c-0.4 1.3-0.7 2.6-1.1 3.9q-0.4 1.3-0.8 2.5c0.1-1.1 0.2-3.1 0.2-3.3-0.2-2.7-2.1-7.9-5-8.6q-0.8-0.2-1.5-0.1-0.8 0.2-1.4 0.6-0.6 0.5-1 1.1-0.4 0.7-0.5 1.4c-0.3 2.2 1.1 4.4 2.5 5.9 1.4 1.4 6 3.4 6.5 3.6q-0.6 2-1.3 4c-1.5 4.3-2.9 7.9-3.9 10.4 0 0.1 0 0.1-0.1 0.2l1.8 1q0.1-0.2 0.2-0.5c1-2.5 2.3-6.1 3.7-10.6q0.7-2.1 1.4-4.4 0.6 0.1 1.1 0.1 0.6 0.1 1.2 0.1 0.6 0 1.1 0.1 0.6 0 1.2 0c0.5 2.2 3.1 5.9 3.4 6.3q-1.7 1.4-3.2 2.6c-3.7 2.9-6.8 5-9 6.6l-0.3 0.1 2 1.1c2.2-1.5 5-3.7 8.4-6.3 1.1-1 2.3-2 3.5-3 0.5 0.3 4.1 3.4 6.3 4.1 1.9 0.5 4.6 0.7 6.3-0.6q0.6-0.4 1-1.1 0.4-0.6 0.5-1.4 0.1-0.8-0.1-1.5-0.2-0.7-0.7-1.3c-2.1-2.3-7.5-1.5-10-0.4-0.2 0.1-1.7 1-2.6 1.6q0.7-0.6 1.5-1.3c1-0.9 2-1.8 3-2.8l1.5-1.4c0.6-0.5 1-1.1 1.5-1.6q1.7-1.9 3.3-4c0.8 0.9 3.6 4 5.5 4.9 1.8 0.8 4.4 1.4 6.3 0.4q0.7-0.4 1.2-1 0.5-0.6 0.7-1.3 0.2-0.7 0.1-1.5-0.1-0.7-0.5-1.4c-1.7-2.5-7.2-2.6-9.9-1.9-0.1 0.1-2 0.8-3 1.3 0.7-0.9 1.3-1.7 1.9-2.5 1.8-2.5 3.6-5 5.3-7.6l1.6-2.3c0.3 0.3 3.5 4.1 5.6 5 1.8 0.8 4.4 1.4 6.3 0.4q0.7-0.3 1.2-0.9 0.5-0.6 0.7-1.4 0.2-0.7 0.1-1.5-0.1-0.7-0.5-1.4c-1.7-2.5-7.2-2.6-9.8-1.8-0.2 0-2.8 1.1-3.5 1.4 1.2-1.7 2.4-3.4 3.6-5q0.7-0.8 1.3-1.6 0.7-0.8 1.3-1.6 0.7-0.8 1.4-1.5 0.7-0.8 1.5-1.5c0.1 0.2 3.4 4.1 5.6 5.1 1.8 0.8 4.4 1.4 6.3 0.4q0.7-0.4 1.2-0.9 0.5-0.6 0.7-1.4 0.2-0.7 0.1-1.5-0.1-0.7-0.5-1.4c-1.7-2.5-7.2-2.6-9.9-1.9-0.1 0.1-2.1 0.9-3.1 1.3l-0.1-0.1q0.8-0.7 1.6-1.4 0.8-0.7 1.6-1.3 0.8-0.7 1.6-1.3 0.9-0.6 1.7-1.2 1.9-1.2 3.8-2.3c0.5 0.8 3.1 4.4 4.9 5.5 1.8 1.1 4.3 1.9 6.3 1.1q0.7-0.2 1.2-0.8 0.6-0.5 0.9-1.2 0.3-0.7 0.2-1.5 0-0.8-0.3-1.5c-1.4-2.7-6.9-3.3-9.6-2.9-0.1 0-1.6 0.5-2.6 0.8l1.6-0.9c2.1-1.1 4-2 5.7-2.7 1-0.4 1.9-0.8 2.8-1.1 0.9 0.5 4.8 2.5 6.8 2.6 2.1 0.1 4.7-0.3 6.1-1.9q0.5-0.6 0.7-1.3 0.2-0.7 0.2-1.4-0.1-0.7-0.4-1.4-0.4-0.6-1-1.1z"/>
			<path class="s2" d="m297.2 166.4c1.4 1.9 6.2 4.3 6.2 4.3 0 0 0.7-3.6 0.7-3.8 0.2-2.8-1.2-8.1-4-9.2q-0.7-0.2-1.5-0.2-0.8 0.1-1.4 0.4-0.7 0.4-1.2 1-0.5 0.6-0.6 1.4c-0.6 2.1 0.6 4.4 1.8 6.1z"/>
		</g>
		<path class="s0" d="m102 115.8c0.1 0-0.8-4.2-0.9-4.4-1-3-4.6-8.2-8.1-8.2q-0.9 0-1.7 0.4-0.8 0.4-1.3 1-0.6 0.7-0.9 1.6-0.2 0.8-0.1 1.7c0.3 2.5 2.5 4.6 4.5 5.8 2.3 1.4 8.5 2.1 8.5 2.1z"/>
		<path class="s0" d="m108.8 87.6c-3.3 1.2-5 7.3-4.9 10.5 0 0.2 0.7 4.5 0.7 4.4h0.1c-0.3 1-0.5 2-0.8 3.2q-0.8 3.2-1.5 7.1-0.1 1.1-0.3 2.2-0.1 1-0.3 2.1-0.1 1.1-0.2 2.2-0.1 1-0.1 2.1-0.1 1.2-0.1 2.4 0 1.2 0 2.4 0.1 1.3 0.2 2.5 0.1 1.2 0.2 2.4 0 0 0 0 0 0 0 0 0 0 0 0.1 0 0 0 0c-0.4-1-1.7-3.5-1.8-3.7-1.8-2.6-6.6-6.7-10-5.8q-0.9 0.3-1.6 0.9-0.6 0.6-1 1.4-0.4 0.8-0.4 1.6 0 0.9 0.3 1.8c0.9 2.3 3.6 3.7 5.9 4.4 2.6 0.7 8.2-0.2 8.7-0.2q0.2 1.2 0.4 2.4 0.2 1.2 0.5 2.4 0.2 1.2 0.5 2.4 0.3 1.2 0.7 2.4 0.8 2.7 1.7 5.5c-0.4-0.8-0.8-1.5-0.8-1.6-1.8-2.6-6.6-6.7-10-5.8q-0.9 0.3-1.6 0.9-0.6 0.6-1 1.4-0.4 0.8-0.4 1.6 0 0.9 0.3 1.7c0.9 2.4 3.6 3.8 5.9 4.5 2.3 0.6 7.1 0 8.4-0.2q0.4 1 0.8 2.1c1.1 3.4 2.3 6.7 3.3 10q0.6 1.8 1 3.5c-0.3-0.7-0.6-1.3-0.7-1.4-1.7-2.6-6.6-6.7-10-5.7q-0.8 0.2-1.5 0.8-0.7 0.6-1 1.4-0.4 0.8-0.4 1.7 0 0.9 0.3 1.7c0.9 2.3 3.6 3.8 5.9 4.4 2.2 0.6 6.6 0.1 8.2-0.1 0.3 1.2 0.6 2.4 0.8 3.5 0.1 0.9 0.3 1.6 0.4 2.5 0.1 0.8 0.3 1.6 0.4 2.4 0.1 1.5 0.3 3.1 0.4 4.6q0.2 1.5 0.2 3c-0.3-1.2-1.1-3.5-1.1-3.6q-0.5-1-1.1-1.8-0.6-0.9-1.2-1.7-0.7-0.7-1.5-1.4-0.8-0.7-1.6-1.3-0.1-0.1-0.1-0.2-0.1-0.1-0.1-0.2-0.1-0.1-0.2-0.2 0-0.1-0.1-0.2-0.5-0.7-1.2-1.2-0.7-0.5-1.6-0.6-0.9-0.2-1.8 0-0.8 0.3-1.5 0.8c-2.7 2.3-2 8.6-0.8 11.5 0.1 0.2 1.1 2 1.7 3-0.5-0.5-0.9-1.1-1.4-1.7-1-1.2-2-2.4-3.1-3.7l-1.6-1.7c-0.6-0.7-1.2-1.2-1.8-1.8-1.4-1.4-2.9-2.7-4.4-4 1-0.9 4.7-4 5.7-6.1 1.1-2.1 1.8-5.1 0.7-7.3q-0.3-0.8-1-1.4-0.7-0.6-1.5-0.9-0.8-0.2-1.7-0.1-0.9 0.1-1.7 0.5c-3 1.9-3.3 8.2-2.5 11.3 0.1 0.2 0.9 2.3 1.3 3.5q-1.4-1.2-2.8-2.3c-2.8-2.2-5.7-4.3-8.5-6.4q-1.3-0.9-2.6-1.9c0.3-0.3 4.8-3.9 6-6.3 1-2.1 1.8-5 0.7-7.3q-0.4-0.8-1.1-1.4-0.6-0.5-1.5-0.8-0.8-0.3-1.7-0.2-0.9 0.1-1.6 0.6c-3 1.8-3.3 8.2-2.6 11.2 0 0.3 1.3 3.3 1.6 4.1-1.9-1.4-3.8-2.9-5.6-4.4q-1-0.7-1.9-1.5-0.9-0.8-1.7-1.6-0.9-0.8-1.8-1.7-0.8-0.8-1.6-1.7c0.1-0.1 4.8-3.8 6-6.3 1-2.1 1.8-5 0.7-7.3q-0.4-0.8-1.1-1.4-0.6-0.5-1.5-0.8-0.8-0.3-1.7-0.2-0.9 0.1-1.6 0.6c-3 1.8-3.3 8.2-2.6 11.2 0 0.2 1 2.6 1.4 3.7l-0.2 0.1q-0.7-0.9-1.5-1.9-0.8-0.9-1.5-1.9-0.7-0.9-1.4-1.9-0.6-1-1.3-2c-0.9-1.5-1.7-3-2.5-4.4 0.9-0.6 5.2-3.4 6.5-5.5 1.4-2.1 2.4-4.8 1.5-7.2q-0.2-0.8-0.8-1.5-0.6-0.6-1.4-1-0.8-0.4-1.7-0.4-0.9 0-1.7 0.4c-3.2 1.5-4.2 7.8-3.8 10.9 0 0.2 0.5 1.9 0.8 3.1-0.3-0.6-0.7-1.3-1-2-1.1-2.4-2-4.6-2.8-6.7-0.5-1.1-0.9-2.1-1.2-3.1 0.6-1.1 3-5.5 3.2-7.9 0.3-2.4-0.1-5.3-2-7q-0.6-0.7-1.4-1-0.8-0.3-1.7-0.2-0.9 0-1.7 0.4-0.8 0.5-1.3 1.2c-2.1 2.8-0.1 8.8 1.7 11.4 0.1 0.2 3 3.4 3 3.3v-0.1c0.3 1 0.6 2 1 3.1 0.7 2 1.6 4.4 2.7 6.8q0.5 1 0.9 1.9 0.5 1 1 2 0.5 0.9 1 1.9 0.5 0.9 1.1 1.9 0.6 1 1.2 2 0.7 1 1.4 2 0.7 1 1.4 2 0.8 0.9 1.6 1.8v0.1c-0.8-0.5-3.3-2-3.5-2-2.9-1.3-9.2-2-11.6 0.7q-0.5 0.7-0.8 1.5-0.2 0.9-0.1 1.7 0.2 0.9 0.7 1.7 0.4 0.7 1.2 1.2c2 1.4 5 1.2 7.3 0.4 2.5-0.8 6.8-4.6 7.1-5q0.8 1 1.7 1.9 0.8 0.8 1.7 1.7 0.9 0.9 1.8 1.7 0.9 0.8 1.8 1.6 2.2 1.9 4.5 3.7l-1.6-0.9c-2.9-1.2-9.2-1.9-11.5 0.7q-0.6 0.7-0.8 1.6-0.2 0.8-0.1 1.7 0.1 0.9 0.6 1.6 0.5 0.8 1.2 1.3c2 1.4 5.1 1.1 7.3 0.4 2.3-0.7 6-3.9 7-4.8l1.7 1.4c2.9 2.1 5.7 4.3 8.4 6.5 0.9 0.7 1.9 1.5 2.8 2.3-0.7-0.4-1.3-0.7-1.4-0.7-2.9-1.3-9.2-2-11.5 0.7q-0.6 0.7-0.8 1.5-0.2 0.9-0.1 1.8 0.1 0.8 0.6 1.6 0.5 0.7 1.2 1.2c2 1.5 5.1 1.2 7.3 0.5 2.3-0.7 5.6-3.7 6.8-4.7q1.4 1.3 2.7 2.6c0.5 0.6 1.1 1.1 1.7 1.7l1.6 1.8c1 1.2 2 2.5 2.9 3.7q1 1.2 1.9 2.4c-1-0.8-2.8-2.3-3-2.4-2.7-1.7-8.8-3.3-11.5-1q-0.7 0.6-1 1.4-0.4 0.8-0.4 1.7 0 0.9 0.4 1.7 0.3 0.8 1 1.4c1.8 1.7 4.8 1.9 7.2 1.6 2.5-0.4 7.1-3.5 7.7-3.8 1 1.3 2 2.6 2.9 3.8 3.1 4.3 5.5 8 7.2 10.7l0.2 0.2 2.1-1-0.3-0.5c-1.8-2.6-4.3-6.3-7.5-10.6-1-1.4-2.2-2.8-3.3-4.2q0.4-0.5 0.8-1 0.5-0.5 0.9-1.1 0.4-0.5 0.8-1 0.4-0.5 0.8-1.1c2.5 1 7.6 1 8.3 1q0.2 2.5 0.3 4.8c0.2 5.4 0.2 9.8 0.1 12.9v0.3l2.4-1.1c0-3.1-0.1-7.2-0.5-12.2-0.1-1.6-0.2-3.5-0.4-5.3 0.7-0.2 6-1.6 8-3.2 1.9-1.4 3.8-3.8 3.7-6.3q0-0.9-0.3-1.7-0.4-0.8-1-1.4-0.7-0.6-1.5-0.9-0.9-0.3-1.8-0.2c-3.5 0.5-6.4 6.1-7 9.2 0 0.2-0.1 2.2-0.2 3.5q-0.1-1.1-0.2-2.3c-0.2-1.5-0.4-3.1-0.6-4.7l-0.4-2.4c-0.1-0.8-0.3-1.6-0.5-2.5q-0.6-2.8-1.5-5.7c1.3-0.2 6.1-0.7 8.2-1.9 2-1.2 4.3-3.2 4.6-5.7q0.1-0.9-0.1-1.7-0.2-0.9-0.8-1.6-0.6-0.7-1.3-1.1-0.8-0.4-1.7-0.4c-3.5-0.1-7.3 5-8.3 8-0.1 0.2-0.6 2.4-0.9 3.6q-0.5-1.7-1-3.5c-1.2-3.3-2.4-6.6-3.7-10l-1.1-3c0.5-0.1 6.2-0.6 8.5-1.9 2-1.2 4.3-3.3 4.6-5.7q0.1-0.9-0.1-1.8-0.2-0.8-0.8-1.5-0.5-0.7-1.3-1.1-0.8-0.4-1.7-0.4c-3.5-0.1-7.3 5-8.3 8-0.1 0.2-0.8 3.4-0.9 4.2-0.9-2.3-1.6-4.5-2.3-6.8q-0.4-1.1-0.7-2.3-0.3-1.1-0.6-2.3-0.3-1.1-0.5-2.3-0.3-1.1-0.5-2.3c0.3 0 6.2-0.6 8.6-1.9 2-1.2 4.3-3.3 4.6-5.7q0.1-0.9-0.1-1.8-0.3-0.8-0.8-1.5-0.6-0.7-1.4-1.1-0.7-0.4-1.6-0.4c-3.6-0.1-7.3 5-8.3 8-0.1 0.2-0.7 2.6-0.9 3.7h-0.2q-0.2-1.2-0.3-2.3-0.1-1.2-0.2-2.4 0-1.2 0-2.4-0.1-1.2 0-2.4c0-1.8 0.1-3.5 0.3-5.1 1.1 0 6.2 0 8.5-1 2.2-1 4.6-2.7 5.2-5.1q0.2-0.9 0.1-1.8-0.1-0.9-0.6-1.6-0.5-0.8-1.2-1.2-0.8-0.5-1.6-0.7c-3.5-0.4-7.8 4.2-9.2 7-0.1 0.2-0.6 1.8-1 3 0-0.7 0.1-1.5 0.2-2.2 0.4-2.6 0.9-5 1.3-7.1q0.4-1.8 0.8-3.3c1.1-0.6 5.5-2.9 7-4.8 1.5-1.8 2.9-4.5 2.3-7q-0.3-0.7-0.8-1.3-0.5-0.6-1.2-1-0.7-0.4-1.4-0.5-0.8-0.1-1.6 0.1z"/>
		<path class="s0" d="m45.2 141.9c2.7-0.1 8.2-3 8.2-3 0 0-3-3-3.2-3.2-2.4-2-8.3-4.3-11.3-2.4q-0.7 0.6-1.1 1.3-0.5 0.8-0.6 1.7-0.1 0.8 0.2 1.7 0.2 0.8 0.8 1.5c1.6 1.9 4.6 2.5 7 2.4z"/>
		<g style="opacity: .5">
			<path class="s2" d="m102 115.8c0.1 0-0.8-4.2-0.9-4.4-1-3-4.6-8.2-8.1-8.2q-0.9 0-1.7 0.4-0.8 0.4-1.3 1-0.6 0.7-0.9 1.6-0.2 0.8-0.1 1.7c0.3 2.5 2.5 4.6 4.5 5.8 2.3 1.4 8.5 2.1 8.5 2.1z"/>
			<path class="s2" d="m108.8 87.6c-3.3 1.2-5 7.3-4.9 10.5 0 0.2 0.7 4.5 0.7 4.4h0.1c-0.3 1-0.5 2-0.8 3.2q-0.8 3.2-1.5 7.1-0.1 1.1-0.3 2.2-0.1 1-0.3 2.1-0.1 1.1-0.2 2.2-0.1 1-0.1 2.1-0.1 1.2-0.1 2.4 0 1.2 0 2.4 0.1 1.3 0.2 2.5 0.1 1.2 0.2 2.4 0 0 0 0 0 0 0 0 0 0 0 0.1 0 0 0 0c-0.4-1-1.7-3.5-1.8-3.7-1.8-2.6-6.6-6.7-10-5.8q-0.9 0.3-1.6 0.9-0.6 0.6-1 1.4-0.4 0.8-0.4 1.6 0 0.9 0.3 1.8c0.9 2.3 3.6 3.7 5.9 4.4 2.6 0.7 8.2-0.2 8.7-0.2q0.2 1.2 0.4 2.4 0.2 1.2 0.5 2.4 0.2 1.2 0.5 2.4 0.3 1.2 0.7 2.4 0.8 2.7 1.7 5.5c-0.4-0.8-0.8-1.5-0.8-1.6-1.8-2.6-6.6-6.7-10-5.8q-0.9 0.3-1.6 0.9-0.6 0.6-1 1.4-0.4 0.8-0.4 1.6 0 0.9 0.3 1.7c0.9 2.4 3.6 3.8 5.9 4.5 2.3 0.6 7.1 0 8.4-0.2q0.4 1 0.8 2.1c1.1 3.4 2.3 6.7 3.3 10q0.6 1.8 1 3.5c-0.3-0.7-0.6-1.3-0.7-1.4-1.7-2.6-6.6-6.7-10-5.7q-0.8 0.2-1.5 0.8-0.7 0.6-1 1.4-0.4 0.8-0.4 1.7 0 0.9 0.3 1.7c0.9 2.3 3.6 3.8 5.9 4.4 2.2 0.6 6.6 0.1 8.2-0.1 0.3 1.2 0.6 2.4 0.8 3.5 0.1 0.9 0.3 1.6 0.4 2.5 0.1 0.8 0.3 1.6 0.4 2.4 0.1 1.5 0.3 3.1 0.4 4.6q0.2 1.5 0.2 3c-0.3-1.2-1.1-3.5-1.1-3.6q-0.5-1-1.1-1.8-0.6-0.9-1.2-1.7-0.7-0.7-1.5-1.4-0.8-0.7-1.6-1.3-0.1-0.1-0.1-0.2-0.1-0.1-0.1-0.2-0.1-0.1-0.2-0.2 0-0.1-0.1-0.2-0.5-0.7-1.2-1.2-0.7-0.5-1.6-0.6-0.9-0.2-1.8 0-0.8 0.3-1.5 0.8c-2.7 2.3-2 8.6-0.8 11.5 0.1 0.2 1.1 2 1.7 3-0.5-0.5-0.9-1.1-1.4-1.7-1-1.2-2-2.4-3.1-3.7l-1.6-1.7c-0.6-0.7-1.2-1.2-1.8-1.8-1.4-1.4-2.9-2.7-4.4-4 1-0.9 4.7-4 5.7-6.1 1.1-2.1 1.8-5.1 0.7-7.3q-0.3-0.8-1-1.4-0.7-0.6-1.5-0.9-0.8-0.2-1.7-0.1-0.9 0.1-1.7 0.5c-3 1.9-3.3 8.2-2.5 11.3 0.1 0.2 0.9 2.3 1.3 3.5q-1.4-1.2-2.8-2.3c-2.8-2.2-5.7-4.3-8.5-6.4q-1.3-0.9-2.6-1.9c0.3-0.3 4.8-3.9 6-6.3 1-2.1 1.8-5 0.7-7.3q-0.4-0.8-1.1-1.4-0.6-0.5-1.5-0.8-0.8-0.3-1.7-0.2-0.9 0.1-1.6 0.6c-3 1.8-3.3 8.2-2.6 11.2 0 0.3 1.3 3.3 1.6 4.1-1.9-1.4-3.8-2.9-5.6-4.4q-1-0.7-1.9-1.5-0.9-0.8-1.7-1.6-0.9-0.8-1.8-1.7-0.8-0.8-1.6-1.7c0.1-0.1 4.8-3.8 6-6.3 1-2.1 1.8-5 0.7-7.3q-0.4-0.8-1.1-1.4-0.6-0.5-1.5-0.8-0.8-0.3-1.7-0.2-0.9 0.1-1.6 0.6c-3 1.8-3.3 8.2-2.6 11.2 0 0.2 1 2.6 1.4 3.7l-0.2 0.1q-0.7-0.9-1.5-1.9-0.8-0.9-1.5-1.9-0.7-0.9-1.4-1.9-0.6-1-1.3-2c-0.9-1.5-1.7-3-2.5-4.4 0.9-0.6 5.2-3.4 6.5-5.5 1.4-2.1 2.4-4.8 1.5-7.2q-0.2-0.8-0.8-1.5-0.6-0.6-1.4-1-0.8-0.4-1.7-0.4-0.9 0-1.7 0.4c-3.2 1.5-4.2 7.8-3.8 10.9 0 0.2 0.5 1.9 0.8 3.1-0.3-0.6-0.7-1.3-1-2-1.1-2.4-2-4.6-2.8-6.7-0.5-1.1-0.9-2.1-1.2-3.1 0.6-1.1 3-5.5 3.2-7.9 0.3-2.4-0.1-5.3-2-7q-0.6-0.7-1.4-1-0.8-0.3-1.7-0.2-0.9 0-1.7 0.4-0.8 0.5-1.3 1.2c-2.1 2.8-0.1 8.8 1.7 11.4 0.1 0.2 3 3.4 3 3.3v-0.1c0.3 1 0.6 2 1 3.1 0.7 2 1.6 4.4 2.7 6.8q0.5 1 0.9 1.9 0.5 1 1 2 0.5 0.9 1 1.9 0.5 0.9 1.1 1.9 0.6 1 1.2 2 0.7 1 1.4 2 0.7 1 1.4 2 0.8 0.9 1.6 1.8v0.1c-0.8-0.5-3.3-2-3.5-2-2.9-1.3-9.2-2-11.6 0.7q-0.5 0.7-0.8 1.5-0.2 0.9-0.1 1.7 0.2 0.9 0.7 1.7 0.4 0.7 1.2 1.2c2 1.4 5 1.2 7.3 0.4 2.5-0.8 6.8-4.6 7.1-5q0.8 1 1.7 1.9 0.8 0.8 1.7 1.7 0.9 0.9 1.8 1.7 0.9 0.8 1.8 1.6 2.2 1.9 4.5 3.7l-1.6-0.9c-2.9-1.2-9.2-1.9-11.5 0.7q-0.6 0.7-0.8 1.6-0.2 0.8-0.1 1.7 0.1 0.9 0.6 1.6 0.5 0.8 1.2 1.3c2 1.4 5.1 1.1 7.3 0.4 2.3-0.7 6-3.9 7-4.8l1.7 1.4c2.9 2.1 5.7 4.3 8.4 6.5 0.9 0.7 1.9 1.5 2.8 2.3-0.7-0.4-1.3-0.7-1.4-0.7-2.9-1.3-9.2-2-11.5 0.7q-0.6 0.7-0.8 1.5-0.2 0.9-0.1 1.8 0.1 0.8 0.6 1.6 0.5 0.7 1.2 1.2c2 1.5 5.1 1.2 7.3 0.5 2.3-0.7 5.6-3.7 6.8-4.7q1.4 1.3 2.7 2.6c0.5 0.6 1.1 1.1 1.7 1.7l1.6 1.8c1 1.2 2 2.5 2.9 3.7q1 1.2 1.9 2.4c-1-0.8-2.8-2.3-3-2.4-2.7-1.7-8.8-3.3-11.5-1q-0.7 0.6-1 1.4-0.4 0.8-0.4 1.7 0 0.9 0.4 1.7 0.3 0.8 1 1.4c1.8 1.7 4.8 1.9 7.2 1.6 2.5-0.4 7.1-3.5 7.7-3.8 1 1.3 2 2.6 2.9 3.8 3.1 4.3 5.5 8 7.2 10.7l0.2 0.2 2.1-1-0.3-0.5c-1.8-2.6-4.3-6.3-7.5-10.6-1-1.4-2.2-2.8-3.3-4.2q0.4-0.5 0.8-1 0.5-0.5 0.9-1.1 0.4-0.5 0.8-1 0.4-0.5 0.8-1.1c2.5 1 7.6 1 8.3 1q0.2 2.5 0.3 4.8c0.2 5.4 0.2 9.8 0.1 12.9v0.3l2.4-1.1c0-3.1-0.1-7.2-0.5-12.2-0.1-1.6-0.2-3.5-0.4-5.3 0.7-0.2 6-1.6 8-3.2 1.9-1.4 3.8-3.8 3.7-6.3q0-0.9-0.3-1.7-0.4-0.8-1-1.4-0.7-0.6-1.5-0.9-0.9-0.3-1.8-0.2c-3.5 0.5-6.4 6.1-7 9.2 0 0.2-0.1 2.2-0.2 3.5q-0.1-1.1-0.2-2.3c-0.2-1.5-0.4-3.1-0.6-4.7l-0.4-2.4c-0.1-0.8-0.3-1.6-0.5-2.5q-0.6-2.8-1.5-5.7c1.3-0.2 6.1-0.7 8.2-1.9 2-1.2 4.3-3.2 4.6-5.7q0.1-0.9-0.1-1.7-0.2-0.9-0.8-1.6-0.6-0.7-1.3-1.1-0.8-0.4-1.7-0.4c-3.5-0.1-7.3 5-8.3 8-0.1 0.2-0.6 2.4-0.9 3.6q-0.5-1.7-1-3.5c-1.2-3.3-2.4-6.6-3.7-10l-1.1-3c0.5-0.1 6.2-0.6 8.5-1.9 2-1.2 4.3-3.3 4.6-5.7q0.1-0.9-0.1-1.8-0.2-0.8-0.8-1.5-0.5-0.7-1.3-1.1-0.8-0.4-1.7-0.4c-3.5-0.1-7.3 5-8.3 8-0.1 0.2-0.8 3.4-0.9 4.2-0.9-2.3-1.6-4.5-2.3-6.8q-0.4-1.1-0.7-2.3-0.3-1.1-0.6-2.3-0.3-1.1-0.5-2.3-0.3-1.1-0.5-2.3c0.3 0 6.2-0.6 8.6-1.9 2-1.2 4.3-3.3 4.6-5.7q0.1-0.9-0.1-1.8-0.3-0.8-0.8-1.5-0.6-0.7-1.4-1.1-0.7-0.4-1.6-0.4c-3.6-0.1-7.3 5-8.3 8-0.1 0.2-0.7 2.6-0.9 3.7h-0.2q-0.2-1.2-0.3-2.3-0.1-1.2-0.2-2.4 0-1.2 0-2.4-0.1-1.2 0-2.4c0-1.8 0.1-3.5 0.3-5.1 1.1 0 6.2 0 8.5-1 2.2-1 4.6-2.7 5.2-5.1q0.2-0.9 0.1-1.8-0.1-0.9-0.6-1.6-0.5-0.8-1.2-1.2-0.8-0.5-1.6-0.7c-3.5-0.4-7.8 4.2-9.2 7-0.1 0.2-0.6 1.8-1 3 0-0.7 0.1-1.5 0.2-2.2 0.4-2.6 0.9-5 1.3-7.1q0.4-1.8 0.8-3.3c1.1-0.6 5.5-2.9 7-4.8 1.5-1.8 2.9-4.5 2.3-7q-0.3-0.7-0.8-1.3-0.5-0.6-1.2-1-0.7-0.4-1.4-0.5-0.8-0.1-1.6 0.1z"/>
			<path class="s2" d="m45.2 141.9c2.7-0.1 8.2-3 8.2-3 0 0-3-3-3.2-3.2-2.4-2-8.3-4.3-11.3-2.4q-0.7 0.6-1.1 1.3-0.5 0.8-0.6 1.7-0.1 0.8 0.2 1.7 0.2 0.8 0.8 1.5c1.6 1.9 4.6 2.5 7 2.4z"/>
		</g>
		<path class="s0" d="m78.8 217.4c0 0 16.7-40.3 26-38.5 9.4 1.7-16 64.2-16 64.2 0 0 29.4-55.5 49.4-55.5 20.1 0-7.3 61.3-32.7 81.7 0 0 40.1-43.2 63.4-33.8 23.4 9.3-46.7 53.1-46.7 53.1 0 0 40.7-12.9 36.1-3-4.7 10-17.4 11.7-17.4 11.7l46.1 2.3h-160.3l36-3.5c0 0-37.4-18.6-27.3-26.2 10-7.6 32 8.7 32 8.7 0 0-38-42-30.7-57.7 7.3-15.8 40.1 28.6 40.1 28.6 0 0-26.7-56.6-21.4-66.5 5.3-9.9 23.4 34.4 23.4 34.4z"/>
		<path class="s3" d="m78.8 217.4c0 0 16.7-40.3 26-38.5 9.4 1.7-16 64.2-16 64.2 0 0 29.4-55.5 49.4-55.5 20.1 0-7.3 61.3-32.7 81.7 0 0 40.1-43.2 63.4-33.8 23.4 9.3-46.7 53.1-46.7 53.1 0 0 40.7-12.9 36.1-3-4.7 10-17.4 11.7-17.4 11.7l46.1 2.3h-160.3l36-3.5c0 0-37.4-18.6-27.3-26.2 10-7.6 32 8.7 32 8.7 0 0-38-42-30.7-57.7 7.3-15.8 40.1 28.6 40.1 28.6 0 0-26.7-56.6-21.4-66.5 5.3-9.9 23.4 34.4 23.4 34.4z"/>
		<path fill-rule="evenodd" class="s4" d="m73.4 219.5c14.7 43.4 14.7 74.1 14.7 74.1 0 0-17.4 0.7-35.4-12.7"/>
		<path fill-rule="evenodd" class="s4" d="m80.8 242.9q1.1-4.9 2.4-9.7 1.3-4.8 2.8-9.6 1.5-4.7 3.2-9.4 1.7-4.7 3.6-9.4"/>
		<path fill-rule="evenodd" class="s4" d="m124.2 217.5l-37.4 55.4c0 0-25.4-21.3-34.1-33.3"/>
		<path fill-rule="evenodd" class="s4" d="m87.4 286.3c0 0 39.4-18.7 55.5-29.4"/>
		<path class="s0" d="m294.2 217.4c0 0-16.7-40.3-26-38.5-9.3 1.7 16 64.2 16 64.2 0 0-29.4-55.5-49.4-55.5-20.1 0 7.3 61.3 32.7 81.7 0 0-40.1-43.2-63.4-33.8-23.4 9.3 46.7 53.1 46.7 53.1 0 0-40.7-12.9-36-3 4.6 10 17.3 11.7 17.3 11.7l-46.1 2.3h160.3l-36.1-3.5c0 0 37.4-18.6 27.4-26.2-10-7.6-32.1 8.7-32.1 8.7 0 0 38.1-42 30.8-57.7-7.4-15.8-40.1 28.6-40.1 28.6 0 0 26.7-56.6 21.4-66.5-5.4-10-23.4 34.4-23.4 34.4z"/>
		<path class="s3" d="m294.2 217.4c0 0-16.7-40.3-26-38.5-9.3 1.7 16 64.2 16 64.2 0 0-29.4-55.5-49.4-55.5-20.1 0 7.3 61.3 32.7 81.7 0 0-40.1-43.2-63.4-33.8-23.4 9.3 46.7 53.1 46.7 53.1 0 0-40.7-12.9-36-3 4.6 10 17.3 11.7 17.3 11.7l-46.1 2.3h160.3l-36.1-3.5c0 0 37.4-18.6 27.4-26.2-10-7.6-32.1 8.7-32.1 8.7 0 0 38.1-42 30.8-57.7-7.4-15.8-40.1 28.6-40.1 28.6 0 0 26.7-56.6 21.4-66.5-5.4-10-23.4 34.4-23.4 34.4z"/>
		<path fill-rule="evenodd" class="s4" d="m299.5 219.5c-14.7 43.4-14.7 74.1-14.7 74.1 0 0 17.4 0.7 35.4-12.7"/>
		<path fill-rule="evenodd" class="s4" d="m292.2 242.9q-1.1-4.9-2.5-9.7-1.3-4.8-2.8-9.6-1.5-4.7-3.2-9.4-1.6-4.7-3.5-9.4"/>
		<path fill-rule="evenodd" class="s4" d="m248.8 217.5l37.4 55.4c0 0 25.3-21.3 34-33.3"/>
		<path fill-rule="evenodd" class="s4" d="m285.5 286.3c0 0-39.4-18.7-55.4-29.4"/>
	</g>
	<g id="freepik--Device--inject-81">
		<path class="s5" d="m112.8 0.5h154.4c3.8 0 6.8 3 6.8 6.8v289c0 3.8-3 6.8-6.8 6.8h-154.4c-3.7 0-6.7-3-6.7-6.8v-289.1c0-3.7 3-6.7 6.7-6.7z"/>
		<path class="s0" d="m201.6 18.6h-20.9q-0.4 0-0.8-0.2-0.4-0.1-0.7-0.4-0.3-0.4-0.4-0.7-0.2-0.4-0.2-0.9 0-0.4 0.2-0.8 0.1-0.4 0.4-0.7 0.3-0.3 0.7-0.4 0.4-0.2 0.8-0.2h20.9q0.5 0 0.9 0.2 0.4 0.1 0.7 0.4 0.3 0.3 0.4 0.7 0.2 0.4 0.2 0.8 0 0.5-0.2 0.9-0.1 0.3-0.4 0.6-0.3 0.4-0.7 0.5-0.4 0.2-0.9 0.2z"/>
		<path class="s6" d="m263.4 276.1l-146.7-0.1v-257.2h34.8l3.9 3.3q0.5 0.4 1.1 0.7 0.5 0.4 1.1 0.6 0.7 0.2 1.3 0.3 0.7 0.1 1.3 0.1h61.4q0.7 0 1.3-0.1 0.7-0.1 1.3-0.4 0.7-0.2 1.3-0.6 0.6-0.3 1.1-0.8l3.5-3.1h33.2z"/>
		<path class="s0" d="m175.3 37.8l-2-6.7h-50v6.7 224.6 6.7h133.9v-231.3h-81.9z"/>
		<path class="s2" d="m128.1 49.9h124.4v211.8h-124.4z"/>
		<path class="s0" d="m194.7 284c0-1.4-0.8-2.6-2-3.1-1.3-0.5-2.7-0.2-3.7 0.7-0.9 1-1.2 2.4-0.7 3.7 0.5 1.2 1.7 2 3.1 2q0.6 0 1.3-0.2 0.6-0.3 1-0.7 0.5-0.5 0.8-1.1 0.2-0.6 0.2-1.3z"/>
	</g>
	<g id="freepik--Message--inject-81">
		<path class="s0" d="m180.9 252.5c-22.6 0-41-26.1-41-58.3 0-32.2 18.4-58.3 41-58.3 22.7 0 41 26.1 41 58.3 0 32.2-18.3 58.3-41 58.3z"/>
		<path class="s3" d="m180.9 252.5c-22.6 0-41-26.1-41-58.3 0-32.2 18.4-58.3 41-58.3 22.7 0 41 26.1 41 58.3 0 32.2-18.3 58.3-41 58.3z"/>
		<path class="s7" d="m186.7 129.1c0 0-2.5-4.2-4.9-4.5-2.3-0.2-30.3 17.4-34.6 26.5-4.3 9.2-8.3 27.5 3 45.2 11.1 17.1 28.4 16.6 37.3 15.7 9-0.9 15-3.8 24.1-11.1 9.2-7.3 17.5-18 18.7-25.3 1.2-7.3-3.2-11.4-6.1-12.4-2.8-1-19.2-0.8-31.2-13-12-12.2-6.3-21.1-6.3-21.1z"/>
		<path class="s8" d="m190.3 123.6c0 0-7.2 2.8-11.7 7.7-4.5 4.9-7.3 12.6-7.5 23.9-0.2 11.3 3.4 24.1 17.5 29.7 14.1 5.5 26.7 1.3 30.8-2.6 4.1-3.8 9-14.7 9-14.7 0 0-22.4 6-33.1-6.6-10.7-12.7-5-37.4-5-37.4z"/>
		<path class="s2" d="m315.8 131.5c-5.5-8.3-18.5-10.7-28.9-14-10.3-3.4-16.4-10-13.7-26.5 2.8-16.5 17-43.2 16.8-48.1-0.3-4.8-49.3-4.5-53.9-3-4.6 1.6-5.5 1.3-9.7 6.7q-0.9 1.1-1.7 2.3-0.9 1.1-1.7 2.3-0.8 1.2-1.5 2.4-0.8 1.2-1.5 2.4l5.3-11.1h0.4q0.2-0.5 0.4-1.1 0.3-0.5 0.6-1 0.3-0.5 0.7-1 0.3-0.5 0.7-0.9 1.7-2 3.1-4.3 1.3-2.3 2.3-4.7 0.9-2.5 1.5-5.1 0.5-2.6 0.5-5.2c0.2-10.5-7.2-9.5-8.6-6.3-1.4 3.2-9.7 14.3-12.1 17.3-2.4 3.1-7.5 11.3-7.5 11.3l-5.6 19.4c0 0-1.2 5.8-8.2 27.7-7 21.9-3.9 32-3.9 32 0 0-1.9-0.9-6.1 12.2-4.3 13.1-2.4 29.8 5.2 37.7 7.6 7.9 17.6 7.6 28.9 3q2.6-1.1 4.9-2.6 2.4-1.5 4.5-3.3 2.1-1.9 3.8-4.1 1.8-2.2 3.2-4.6c0.9-1.6 11.9-3 20.7-9.8 8.8-6.7 15.5-13.6 28.3-13 12.8 0.6 27.4 7.9 32.2 7.6 4.9-0.3 6.1-6.4 0.6-14.6z"/>
		<g id="Clip-Path" clip-path="url(#cp1)">
			<g>
				<path class="s0" d="m237.4 103c-33.9 5.1-44.5 13.1-41.2 24.3q0.3 0.8 0.7 1.6 0.3 0.8 0.7 1.5 0.4 0.8 0.9 1.5 0.5 0.7 1.1 1.3 0 0.4 0.1 0.7c0 0 0.6 0.4 1.5 1q0.4 0.5 0.9 0.9 0.4 0.4 0.9 0.8 0.5 0.4 1 0.7 0.5 0.4 1 0.7c2.2 2.2 4.2 4.8 3.8 7.2-0.9 5.3-13 14.4-19.1 14.8-6.2 0.5-8.3-5.6-9.2 0.9-0.8 6.5 12.6 22.6 25.7 20.8 13-1.7 23.9-20 23.9-20 0 0-1.7-3 7-12.1 5.7-6 13.9-8.7 20.2-11.1q2.3-0.7 4.5-1.4 2.2-0.8 4.3-1.6 2.2-0.8 4.3-1.8 2.1-0.9 4.2-1.9c15.5-7.6 33.9-2.5 33.9-2.5 0 0-37.3-31.4-71.1-26.3z"/>
				<path class="s3" d="m237.4 103c-33.9 5.1-44.5 13.1-41.2 24.3q0.3 0.8 0.7 1.6 0.3 0.8 0.7 1.5 0.4 0.8 0.9 1.5 0.5 0.7 1.1 1.3 0 0.4 0.1 0.7c0 0 0.6 0.4 1.5 1q0.4 0.5 0.9 0.9 0.4 0.4 0.9 0.8 0.5 0.4 1 0.7 0.5 0.4 1 0.7c2.2 2.2 4.2 4.8 3.8 7.2-0.9 5.3-13 14.4-19.1 14.8-6.2 0.5-8.3-5.6-9.2 0.9-0.8 6.5 12.6 22.6 25.7 20.8 13-1.7 23.9-20 23.9-20 0 0-1.7-3 7-12.1 5.7-6 13.9-8.7 20.2-11.1q2.3-0.7 4.5-1.4 2.2-0.8 4.3-1.6 2.2-0.8 4.3-1.8 2.1-0.9 4.2-1.9c15.5-7.6 33.9-2.5 33.9-2.5 0 0-37.3-31.4-71.1-26.3z"/>
			</g>
		</g>
		<path fill-rule="evenodd" class="s4" d="m315.8 131.5c-5.5-8.3-18.5-10.7-28.9-14-10.3-3.4-16.4-10-13.7-26.5 2.8-16.5 17-43.2 16.8-48.1-0.3-4.8-49.3-4.5-53.9-3-4.6 1.6-5.5 1.3-9.7 6.7q-0.9 1.1-1.7 2.3-0.9 1.1-1.7 2.3-0.8 1.2-1.5 2.4-0.8 1.2-1.5 2.4l5.3-11.1h0.4q0.2-0.5 0.4-1.1 0.3-0.5 0.6-1 0.3-0.5 0.7-1 0.3-0.5 0.7-0.9 1.7-2 3.1-4.3 1.3-2.3 2.3-4.7 0.9-2.5 1.5-5.1 0.5-2.6 0.5-5.2c0.2-10.5-7.2-9.5-8.6-6.3-1.4 3.2-9.7 14.3-12.1 17.3-2.4 3.1-7.5 11.3-7.5 11.3l-5.6 19.4c0 0-1.2 5.8-8.2 27.7-7 21.9-3.9 32-3.9 32 0 0-1.9-0.9-6.1 12.2-4.3 13.1-2.4 29.8 5.2 37.7 7.6 7.9 17.6 7.6 28.9 3q2.6-1.1 4.9-2.6 2.4-1.5 4.5-3.3 2.1-1.9 3.8-4.1 1.8-2.2 3.2-4.6c0.9-1.6 11.9-3 20.7-9.8 8.8-6.7 15.5-13.6 28.3-13 12.8 0.6 27.4 7.9 32.2 7.6 4.9-0.3 6.1-6.4 0.6-14.6z"/>
		<path class="s8" d="m316 146c0 0 0.6-2.6-6.6-6-7.3-3.4-10.3-1.1-10.3 0.6 0 1.7 15.8 5.4 16.9 5.4z"/>
		<path class="s8" d="m247.2 28.8l-18.3 14.1h24.6c0 0 0-17.3-6.3-14.1z"/>
		<path fill-rule="evenodd" class="s4" d="m224.2 130.5q1-1.1 2.1-2 1.1-1 2.3-1.9 1.2-0.8 2.5-1.5 1.3-0.7 2.6-1.3"/>
		<path fill-rule="evenodd" class="s4" d="m220.9 136q0.1-0.3 0.2-0.6 0.1-0.3 0.3-0.6 0.1-0.3 0.3-0.6 0.1-0.3 0.3-0.5"/>
		<path fill-rule="evenodd" class="s4" d="m213.6 155q-0.4-0.3-0.7-0.7-0.4-0.3-0.7-0.6-0.4-0.4-0.7-0.8-0.3-0.3-0.6-0.7"/>
		<path fill-rule="evenodd" class="s4" d="m234 161.3q-2.1 0.2-4.2 0.1-2.1-0.1-4.2-0.5-2.1-0.4-4.1-1.2-2-0.7-3.8-1.8"/>
		<path class="s9" d="m302.5 41.7h-92.3c-12.8 0-23.1 9.9-23.1 22v43.5c0 10.6 7.8 19.4 18.2 21.6l-4.8 14.4 22.5-13.9h79.5c12.7 0 23.1-9.9 23.1-22v-43.5c0-12.2-10.4-22.1-23.1-22.1z"/>
		<path class="s10" d="m202.1 71h103.8"/>
		<path class="s10" d="m202.1 81.7h103.8"/>
		<path class="s10" d="m202.1 92.4h103.8"/>
		<path class="s10" d="m202.1 103.1h103.8"/>
		<path class="s11" d="m324.7 79.9c-7.1 0-12.8-5.5-12.8-12.3 0-6.8 5.7-12.3 12.8-12.3 7.2 0 12.9 5.5 12.9 12.3 0 6.8-5.7 12.3-12.9 12.3z"/>
		<path class="s2" d="m323.7 76.2q-0.1-0.3-0.2-0.6-0.1-0.3-0.2-0.7-0.1-0.3-0.1-0.7 0-0.3 0-0.7v-10l-2.3 1.3q-0.1 0-0.2 0.1-0.1 0-0.2 0-0.1 0.1-0.2 0.1-0.1 0-0.2 0-0.1 0-0.3 0-0.1-0.1-0.3-0.1-0.1-0.1-0.3-0.2-0.1-0.1-0.2-0.2-0.1-0.1-0.2-0.2-0.1-0.2-0.1-0.3-0.1-0.2-0.1-0.3 0-0.2 0-0.3 0-0.1 0-0.3 0-0.1 0-0.2 0-0.1 0.1-0.2 0-0.1 0.1-0.2 0.1-0.1 0.2-0.2 0.1 0 0.2-0.1 0.1-0.1 0.2-0.2 0.1-0.1 0.2-0.2l4.4-2.2q0.2-0.1 0.4-0.2 0.2-0.1 0.4-0.2 0.2-0.1 0.4-0.2 0.2 0 0.5 0 2.2 0 2.2 3.3v11.6q0 3.2-2.4 3.2-0.2 0.1-0.5 0-0.2 0-0.5-0.2-0.2-0.1-0.4-0.3-0.2-0.1-0.4-0.4z"/>
		<path class="s8" d="m275.4 35.3c0 0 0.4 8 7.6 11.9 7.3 3.8 16.5 3 16.7-1.9 0.2-4.8-5.4-9.8-9.2-16.3-3.8-6.4-12.3-2.8-15.9 1.7"/>
		<path class="s8" d="m287.9 41.7c-0.7 3.2 1.6 5 3.6 6 2 1 6 0.4 8.2-2.4 0.1-2.4-1.2-4.7-3-7.3-2.5 0.3-8.4 1.2-8.8 3.7z"/>
		<path class="s8" d="m260.3 35.3c0 0 0.4 8 7.6 11.9 7.3 3.8 16.5 3 16.7-1.9 0.2-4.8-5.4-9.8-9.2-16.3-3.9-6.4-12.3-2.8-16 1.7"/>
		<path class="s8" d="m272.8 41.7c-0.7 3.2 1.6 5 3.6 6 2 1 6 0.4 8.2-2.4 0.1-2.4-1.2-4.7-3-7.3-2.5 0.3-8.4 1.2-8.9 3.7z"/>
		<path class="s8" d="m246.2 35.3c0 0 0.4 8 7.7 11.9 7.2 3.8 16.5 3 16.7-1.9 0.2-4.8-5.5-9.8-9.3-16.3-3.8-6.4-12.3-2.8-15.9 1.7"/>
		<path class="s8" d="m258.7 41.7c-0.6 3.2 1.6 5 3.6 6 2 1 6 0.4 8.3-2.4 0.1-2.4-1.2-4.7-3-7.3-2.5 0.3-8.4 1.2-8.9 3.7z"/>
		<path fill-rule="evenodd" class="s4" d="m189.6 123c0 0 0.5 12.4 7.4 20.7"/>
		<path class="s2" d="m169.7 174.7c0 2.5-1.7 4.5-3.8 4.5-2 0-3.7-2-3.7-4.5 0-2.6 1.7-4.6 3.8-4.6 2 0 3.7 2 3.7 4.6z"/>
		<path fill-rule="evenodd" class="s4" d="m160.4 180.4c0 2.5-1.7 4.5-3.8 4.5-2 0-3.7-2-3.7-4.5 0-2.6 1.7-4.6 3.7-4.6 2.1 0 3.8 2 3.8 4.6z"/>
	</g>
</svg>