<svg version="1.2" xmlns="http://www.w3.org/2000/svg" viewBox="0 0 414 340" width="414" height="340">
	<title>Devices-bro-svg</title>
	<defs>
		<clipPath clipPathUnits="userSpaceOnUse" id="cp1">
			<path d="m48.6 109.78h305.58v172.69h-305.58z"/>
		</clipPath>
		<clipPath clipPathUnits="userSpaceOnUse" id="cp2">
			<path d="m106.78 195.27h69.92v113.13h-69.92z"/>
		</clipPath>
		<clipPath clipPathUnits="userSpaceOnUse" id="cp3">
			<path d="m368.92 217.81v101.89h-188.71v-101.89z"/>
		</clipPath>
	</defs>
	<style>
		.s0 { fill: #f28f52 } 
		.s1 { opacity: .8;fill: #ffffff } 
		.s2 { opacity: .6;fill: #ffffff } 
		.s3 { fill: #f28f52;stroke: #263238;stroke-miterlimit:10;stroke-width: .9 } 
		.s4 { fill: #ffffff } 
		.s5 { opacity: .4;mix-blend-mode: multiply;fill: #f28f52 } 
		.s6 { fill: none;stroke: #263238;stroke-miterlimit:10;stroke-width: .7 } 
		.s7 { fill: #f28f52;stroke: #263238;stroke-miterlimit:10;stroke-width: .7 } 
		.s8 { fill: #263238 } 
		.s9 { fill: none;stroke: #263238;stroke-miterlimit:10;stroke-width: .5 } 
		.s10 { opacity: .4;fill: #ffffff } 
		.s11 { fill: #f28f52;stroke: #263238;stroke-linecap: round;stroke-linejoin: round;stroke-width: .5 } 
		.s12 { opacity: .6;fill: #ffffff;stroke: #263238;stroke-linecap: round;stroke-linejoin: round;stroke-width: .5 } 
		.s13 { fill: none;stroke: #263238;stroke-linecap: round;stroke-linejoin: round;stroke-width: .5 } 
	</style>
	<g id="freepik--background-simple--inject-1--inject-88">
		<path class="s0" d="m372.9 27c-43.3-41.5-105-30.1-138.9 1.3-24.8 23-63.8 56.4-94 54.9-29.9-1.4-64.2-22.2-101.4-6.2-36.7 15.8-46.7 67.9-30.1 107.8 16.6 40 77.4 72.5 151 102.8q10.1 4.2 20.5 7.4 10.5 3.2 21.3 5.3 10.7 2.1 21.6 3.1 11 1 21.9 0.9c7.3-0.1 66.6-0.7 91.6-16.7 19.6-12.6 28-20.8 49.2-52.8 16-24.2 26.7-58.2 27.9-91.2 1.5-40.3-8.2-85.5-40.6-116.5z"/>
		<path class="s1" d="m372.9 27c-43.3-41.5-105-30.1-138.9 1.3-24.8 23-63.8 56.4-94 54.9-29.9-1.4-64.2-22.2-101.4-6.2-36.7 15.8-46.7 67.9-30.1 107.8 16.6 40 77.4 72.5 151 102.8q10.1 4.2 20.5 7.4 10.5 3.2 21.3 5.3 10.7 2.1 21.6 3.1 11 1 21.9 0.9c7.3-0.1 66.6-0.7 91.6-16.7 19.6-12.6 28-20.8 49.2-52.8 16-24.2 26.7-58.2 27.9-91.2 1.5-40.3-8.2-85.5-40.6-116.5z"/>
	</g>
	<g id="freepik--Shadow--inject-1--inject-88">
		<path class="s0" d="m198.4 339.9c-103.5 0-187.1-5-187.1-11.2 0-6.1 83.6-11.1 187.1-11.1 103.5 0 187.2 5 187.2 11.1 0 6.2-83.7 11.2-187.2 11.2z"/>
		<path class="s2" d="m198.4 339.9c-103.5 0-187.1-5-187.1-11.2 0-6.1 83.6-11.1 187.1-11.1 103.5 0 187.2 5 187.2 11.1 0 6.2-83.7 11.2-187.2 11.2z"/>
	</g>
	<g id="freepik--Laptop--inject-1--inject-88">
		<path class="s3" d="m45.6 92.9h311.6c1.4 0 2.7 0.3 4 0.8 1.3 0.5 2.4 1.3 3.4 2.3 1 0.9 1.7 2.1 2.3 3.4 0.5 1.2 0.8 2.6 0.8 4v205.4h-332.6v-205.4c0-1.4 0.3-2.8 0.8-4 0.5-1.3 1.3-2.5 2.3-3.4 0.9-1 2.1-1.8 3.4-2.3 1.2-0.5 2.6-0.8 4-0.8z"/>
		<path class="s4" d="m48.6 109.8h305.6v172.7h-305.6z"/>
		<g id="Clip-Path" clip-path="url(#cp1)">
			<g>
				<path class="s5" d="m354.2 282.5v-147.4l-252.8 147.4h252.8z"/>
			</g>
		</g>
		<path class="s6" d="m48.6 109.8h305.6v172.7h-305.6z"/>
		<path class="s7" d="m87.9 298.4h228.5v11.2h-228.5z"/>
		<path class="s7" d="m87.9 303.8h228.5v5.8h-228.5z"/>
		<path class="s3" d="m8.2 316.3c0 0 3.8 4.6 15 8.4h357.9c0 0 8.3-2.1 12.1-8z"/>
		<path class="s3" d="m10.2 308.1h381.1c1.5 0 2.7 1.2 2.7 2.7v3.4c0 1.5-1.2 2.7-2.7 2.7h-381.2c-1.4 0-2.7-1.2-2.7-2.7v-3.4c0-1.5 1.3-2.7 2.7-2.7z"/>
		<path class="s8" d="m201.3 102.4c-1.6 0-2.9-1.3-2.9-3 0-1.6 1.3-2.9 2.9-2.9 1.6 0 2.9 1.3 2.9 2.9 0 1.7-1.3 3-2.9 3z"/>
		<path class="s7" d="m162.7 96.5h-73q-0.3 0-0.5-0.1-0.3-0.1-0.5-0.3-0.2-0.2-0.3-0.5-0.1-0.2-0.1-0.5 0-0.3 0.1-0.6 0.1-0.3 0.3-0.5 0.2-0.2 0.5-0.3 0.2-0.1 0.5-0.1h73q0.3 0 0.6 0.1 0.3 0.1 0.5 0.3 0.2 0.2 0.3 0.5 0.1 0.3 0.1 0.6 0 0.3-0.1 0.5-0.1 0.3-0.3 0.5-0.2 0.2-0.5 0.3-0.3 0.1-0.6 0.1z"/>
		<path class="s7" d="m311.6 96.5h-73q-0.3 0-0.5-0.1-0.3-0.1-0.5-0.3-0.2-0.2-0.3-0.5-0.1-0.2-0.1-0.5 0-0.3 0.1-0.6 0.1-0.3 0.3-0.5 0.2-0.2 0.5-0.3 0.2-0.1 0.5-0.1h73q0.3 0 0.6 0.1 0.3 0.1 0.5 0.3 0.2 0.2 0.3 0.5 0.1 0.3 0.1 0.6 0 0.3-0.1 0.5-0.1 0.3-0.3 0.5-0.2 0.2-0.5 0.3-0.3 0.1-0.6 0.1z"/>
		<path class="s7" d="m364.8 153.7q-0.2 0-0.3-0.1-0.2-0.1-0.3-0.2-0.1-0.1-0.2-0.3 0-0.1 0-0.3v-24.2q0-0.1 0-0.3 0.1-0.1 0.2-0.3 0.1-0.1 0.3-0.1 0.1-0.1 0.3-0.1 0.2 0 0.3 0.1 0.2 0 0.3 0.1 0.1 0.2 0.2 0.3 0 0.2 0 0.3v24.2q0 0.2 0 0.3-0.1 0.2-0.2 0.3-0.1 0.1-0.3 0.2-0.1 0.1-0.3 0.1z"/>
		<path class="s7" d="m38.2 153.7q-0.1 0-0.3-0.1-0.1-0.1-0.2-0.2-0.2-0.1-0.2-0.3-0.1-0.1-0.1-0.3v-24.2q0-0.1 0.1-0.3 0-0.1 0.2-0.3 0.1-0.1 0.2-0.1 0.2-0.1 0.3-0.1 0.2 0 0.4 0.1 0.1 0 0.2 0.1 0.1 0.2 0.2 0.3 0.1 0.2 0.1 0.3v24.2q0 0.2-0.1 0.3-0.1 0.2-0.2 0.3-0.1 0.1-0.2 0.2-0.2 0.1-0.4 0.1z"/>
	</g>
	<g id="freepik--Mobile--inject-1--inject-88">
		<path class="s8" d="m111 179.3h61.4c4.3 0 7.7 3.5 7.7 7.7v129.6c0 4.3-3.4 7.7-7.7 7.7h-61.4c-4.2 0-7.6-3.4-7.6-7.7v-129.6c0-4.2 3.4-7.7 7.6-7.7z"/>
		<path class="s4" d="m106.8 195.3h69.9v113.1h-69.9z"/>
		<g id="Clip-Path" clip-path="url(#cp2)">
			<g>
				<path class="s5" d="m176.7 270.4l-65.2 38h65.2v-38z"/>
			</g>
		</g>
		<path class="s9" d="m106.8 195.3h69.9v113.1h-69.9z"/>
		<path class="s0" d="m149.3 187.4h-15.2q-0.2-0.1-0.3-0.1-0.2-0.1-0.4-0.2-0.1-0.2-0.2-0.4-0.1-0.2-0.1-0.3 0-0.2 0.1-0.4 0.1-0.2 0.2-0.4 0.2-0.1 0.4-0.2 0.1 0 0.3 0h15.2q0.2 0 0.4 0 0.2 0.1 0.3 0.2 0.2 0.2 0.3 0.4 0 0.2 0 0.4 0 0.1 0 0.3-0.1 0.2-0.3 0.4-0.1 0.1-0.3 0.2-0.2 0-0.4 0.1z"/>
		<path class="s10" d="m149.3 187.4h-15.2q-0.2-0.1-0.3-0.1-0.2-0.1-0.4-0.2-0.1-0.2-0.2-0.4-0.1-0.2-0.1-0.3 0-0.2 0.1-0.4 0.1-0.2 0.2-0.4 0.2-0.1 0.4-0.2 0.1 0 0.3 0h15.2q0.2 0 0.4 0 0.2 0.1 0.3 0.2 0.2 0.2 0.3 0.4 0 0.2 0 0.4 0 0.1 0 0.3-0.1 0.2-0.3 0.4-0.1 0.1-0.3 0.2-0.2 0-0.4 0.1z"/>
		<path class="s7" d="m145.9 314.8c0-1.7-1-3.2-2.6-3.9-1.5-0.6-3.3-0.2-4.5 0.9-1.2 1.2-1.5 3-0.9 4.6 0.6 1.5 2.2 2.5 3.8 2.5q0.9 0 1.6-0.3 0.8-0.3 1.4-0.9 0.6-0.6 0.9-1.3 0.3-0.8 0.3-1.6z"/>
		<path class="s11" d="m139.6 312.7h4.2v4.2h-4.2z"/>
		<path class="s12" d="m139.6 312.7h4.2v4.2h-4.2z"/>
		<path class="s13" d="m139.6 312.7h4.2v4.2h-4.2z"/>
	</g>
	<g id="freepik--Tablet--inject-1--inject-88">
		<path class="s3" d="m380.2 224v89.5c0 6.2-5 11.2-11.2 11.2h-188.9c-6.1 0-11.2-5-11.2-11.2v-89.5c0-6.2 5.1-11.2 11.2-11.2h188.9c6.2 0 11.2 5 11.2 11.2z"/>
		<path class="s4" d="m368.9 217.8v101.9h-188.7v-101.9z"/>
		<g id="Clip-Path" clip-path="url(#cp3)">
			<g>
				<path class="s5" d="m368.9 238.3l-139.6 81.4h139.6v-81.4z"/>
			</g>
		</g>
		<path class="s6" d="m368.9 217.8v101.9h-188.7v-101.9z"/>
		<path class="s8" d="m374 270.3c-0.6 0-1.2-0.4-1.4-1-0.3-0.5-0.1-1.2 0.3-1.7 0.5-0.4 1.1-0.5 1.7-0.3 0.6 0.3 0.9 0.8 0.9 1.4q0 0.4-0.1 0.6-0.1 0.3-0.3 0.5-0.2 0.2-0.5 0.4-0.3 0.1-0.6 0.1z"/>
		<path class="s7" d="m353.4 213.9h-6.7c-0.2 0-0.4-0.2-0.4-0.4v-0.3c0-0.2 0.2-0.4 0.4-0.4h6.7c0.2 0 0.4 0.2 0.4 0.4v0.3c0 0.2-0.2 0.4-0.4 0.4z"/>
		<path class="s7" d="m322.8 213.9h12.9q0.2 0 0.2-0.1 0.1 0 0.2-0.1 0.1-0.1 0.1-0.2 0.1-0.1 0.1-0.2 0-0.1-0.1-0.2 0-0.1-0.1-0.1-0.1-0.1-0.2-0.1 0-0.1-0.2-0.1h-12.9q-0.1 0-0.2 0.1-0.1 0-0.1 0.1-0.1 0.1-0.2 0.1 0 0.1 0 0.2 0 0.1 0 0.2 0.1 0.1 0.2 0.2 0 0.1 0.1 0.1 0.1 0 0.2 0.1z"/>
	</g>
</svg>