<svg version="1.2" xmlns="http://www.w3.org/2000/svg" viewBox="0 0 447 362" width="447" height="362">
	<title>Typing-bro-svg</title>
	<style>
		.s0 { fill: #f28f52 } 
		.s1 { opacity: .7;fill: #ffffff } 
		.s2 { fill: #ffffff;stroke: #2e353a;stroke-linecap: round;stroke-linejoin: round } 
		.s3 { fill: #2e353a;stroke: #2e353a;stroke-linecap: round;stroke-linejoin: round } 
		.s4 { opacity: .5;fill: #000000 } 
		.s5 { fill: none;stroke: #2e353a;stroke-linecap: round;stroke-linejoin: round;stroke-width: .5 } 
		.s6 { fill: #2e353a } 
		.s7 { fill: #f28f52;stroke: #2e353a;stroke-linecap: round;stroke-linejoin: round } 
		.s8 { fill: #ffffff;stroke: #2e353a;stroke-miterlimit:10 } 
		.s9 { fill: #ffffff;stroke: #2e353a;stroke-linecap: round;stroke-linejoin: round;stroke-width: 1 } 
		.s10 { fill: none;stroke: #2e353a;stroke-linecap: round;stroke-linejoin: round } 
		.s11 { fill: #f28f52;stroke: #2e353a;stroke-linecap: round;stroke-linejoin: round;stroke-width: .5 } 
	</style>
	<g id="freepik--background-simple--inject-1--inject-62">
		<path class="s0" d="m395.4 120c2.3-23.5 7.7-45.7-1.9-68.2-17.6-41.4-70.8-63.4-112.1-43.8-21.1 10-39.1 24.6-62.4 30-62.8 14.5-159.7-62.7-193.8 27.2-11.8 30.8-7 71.5 14.2 97.2 6.8 8.3 15.1 15.5 20.1 25 13.8 25.8-5.7 54.3-14.5 78.5-20.9 57 57.9 88.6 100.7 94.4 70.7 9.7 129-71.3 199.3-38.3 49 23 92-33 83-89-5.9-36.7-35.7-71.8-32.9-109.1q0.1-1.9 0.3-3.9z"/>
		<path class="s1" d="m395.4 120c2.3-23.5 7.7-45.7-1.9-68.2-17.6-41.4-70.8-63.4-112.1-43.8-21.1 10-39.1 24.6-62.4 30-62.8 14.5-159.7-62.7-193.8 27.2-11.8 30.8-7 71.5 14.2 97.2 6.8 8.3 15.1 15.5 20.1 25 13.8 25.8-5.7 54.3-14.5 78.5-20.9 57 57.9 88.6 100.7 94.4 70.7 9.7 129-71.3 199.3-38.3 49 23 92-33 83-89-5.9-36.7-35.7-71.8-32.9-109.1q0.1-1.9 0.3-3.9z"/>
	</g>
	<g id="freepik--Plant--inject-1--inject-62">
		<path class="s2" d="m58.8 135.3c-19.1 0-34.6-15.5-34.6-34.6 0-19.1 15.5-34.5 34.6-34.5 19.1 0 34.5 15.4 34.5 34.5 0 19.1-15.4 34.6-34.5 34.6z"/>
		<path class="s2" d="m56.2 131.8c-19.1 0-34.5-15.4-34.5-34.5 0-19.1 15.4-34.5 34.5-34.5 19.1 0 34.5 15.4 34.5 34.5 0 19.1-15.4 34.5-34.5 34.5z"/>
		<path class="s3" d="m56.2 128.4c-17.2 0-31.1-13.9-31.1-31.1 0-17.2 13.9-31.1 31.1-31.1 17.2 0 31.1 13.9 31.1 31.1 0 17.2-13.9 31.1-31.1 31.1z"/>
		<path class="s0" d="m52.5 73.9c0 0-3.4-8.6-9.4-14.6-6-6-30.4-9.8-30.4-9.8q1.4 1.4 2.9 2.9 1.4 1.5 2.7 3 1.4 1.6 2.6 3.2 1.3 1.6 2.5 3.3c5.6 7.7 24 25.3 24 25.3 0 0-9-7.7-17.2-8.6-8.1-0.8-28.7 3.5-30 3.5-1.2 0 7.8 3.4 14.2 6.4 6.4 3 31.3 5.6 31.3 5.6 0 0-10.7 3-18 5.6-7.3 2.5-14.2 21.4-14.2 21.4 0 0 9.5-8.6 17.6-10.7 8.2-2.2 19.7-6 19.7-6 0 0-7.3 8.1-9 13.7-1.7 5.6-0.4 18.4-0.4 18.4 0 0 3.9-12 8.6-16.7 4.7-4.7 9.8-12.8 9.8-12.8q0.9 1.5 1.8 2.9 0.8 1.5 1.6 3 0.8 1.5 1.6 3 0.8 1.6 1.5 3.1c3.4 7.3 5.5 18 5.5 18 0 0 5.6-12 5.2-18-0.4-6-6.9-16.7-6.9-16.7 0 0 4.3-3 10.8-0.5 6.4 2.6 17.5 13.3 17.5 13.3 0 0-2.5-14.1-6.8-19.7-4.3-5.6-22.8-7.3-22.8-7.3 0 0 10.3-6 16.8-7.3 6.4-1.3 15 1.7 15 1.7 0 0-9.9-13.7-17.6-14.5-7.7-0.9-19.3 11.1-19.3 11.1l3.4-17.2c0.9-4.3-0.8-15-0.8-15 0 0-4.7 2.6-10.3 10.7q-1.2 1.8-2.1 3.8-0.8 1.9-1.3 4-0.4 2.1-0.4 4.3-0.1 2.1 0.3 4.2z"/>
		<path class="s4" d="m52.5 73.9c0 0-3.4-8.6-9.4-14.6-6-6-30.4-9.8-30.4-9.8q1.4 1.4 2.9 2.9 1.4 1.5 2.7 3 1.4 1.6 2.6 3.2 1.3 1.6 2.5 3.3c5.6 7.7 24 25.3 24 25.3 0 0-9-7.7-17.2-8.6-8.1-0.8-28.7 3.5-30 3.5-1.2 0 7.8 3.4 14.2 6.4 6.4 3 31.3 5.6 31.3 5.6 0 0-10.7 3-18 5.6-7.3 2.5-14.2 21.4-14.2 21.4 0 0 9.5-8.6 17.6-10.7 8.2-2.2 19.7-6 19.7-6 0 0-7.3 8.1-9 13.7-1.7 5.6-0.4 18.4-0.4 18.4 0 0 3.9-12 8.6-16.7 4.7-4.7 9.8-12.8 9.8-12.8q0.9 1.5 1.8 2.9 0.8 1.5 1.6 3 0.8 1.5 1.6 3 0.8 1.6 1.5 3.1c3.4 7.3 5.5 18 5.5 18 0 0 5.6-12 5.2-18-0.4-6-6.9-16.7-6.9-16.7 0 0 4.3-3 10.8-0.5 6.4 2.6 17.5 13.3 17.5 13.3 0 0-2.5-14.1-6.8-19.7-4.3-5.6-22.8-7.3-22.8-7.3 0 0 10.3-6 16.8-7.3 6.4-1.3 15 1.7 15 1.7 0 0-9.9-13.7-17.6-14.5-7.7-0.9-19.3 11.1-19.3 11.1l3.4-17.2c0.9-4.3-0.8-15-0.8-15 0 0-4.7 2.6-10.3 10.7q-1.2 1.8-2.1 3.8-0.8 1.9-1.3 4-0.4 2.1-0.4 4.3-0.1 2.1 0.3 4.2z"/>
		<path fill-rule="evenodd" class="s5" d="m61 60.9q0.4-1.9 1-3.7"/>
		<path fill-rule="evenodd" class="s5" d="m32.4 60.9c4 2.9 8.9 7 11.6 10.4 4.7 6.5 14.1 20.2 14.1 20.2q-0.1-3.4 0-6.9 0.1-3.5 0.4-6.9 0.2-3.5 0.7-6.9 0.5-3.4 1.1-6.8"/>
		<path fill-rule="evenodd" class="s5" d="m26.4 56.8c0 0 1.2 0.8 3.1 2.1"/>
		<path fill-rule="evenodd" class="s5" d="m58.1 91.5c0 0 16.3-16.3 23.2-17.6 6.8-1.3 12.9 3.9 12.9 3.9"/>
		<path fill-rule="evenodd" class="s5" d="m29 105.1c-4 2.6-4.3 4-4.3 4"/>
		<path fill-rule="evenodd" class="s5" d="m93.7 106.5c0 0-2.5-6.4-11.5-9.4-9.1-3-23.2-3.4-23.2-3.4 0 0-19.8 6.5-27.1 9.8"/>
		<path fill-rule="evenodd" class="s5" d="m50.3 91.2c4.8 1.4 8.7 2.4 8.7 2.4"/>
		<path fill-rule="evenodd" class="s5" d="m20.1 83.6c4.7 0.3 10.7 0.9 14 2.3 2.7 1.2 8.1 2.9 13.1 4.4"/>
		<path fill-rule="evenodd" class="s5" d="m13.5 83.4c0 0 1.6 0 3.9 0.1"/>
		<path fill-rule="evenodd" class="s5" d="m58.1 96.2c0 0-12 18-12.8 22.3q-0.2 1-0.4 1.9-0.1 1-0.2 2-0.1 0.9-0.2 1.9-0.1 1-0.1 1.9"/>
		<path fill-rule="evenodd" class="s5" d="m63.5 101.9c2.3 3 5 7 6.2 10.2q0.5 1.5 1 2.9 0.4 1.5 0.8 3 0.3 1.5 0.7 3 0.3 1.6 0.5 3.1"/>
		<path fill-rule="evenodd" class="s5" d="m59.8 97.5c0 0 1 1.1 2.3 2.7"/>
		<path class="s0" d="m47.1 77.6c0 0-2.2-9-0.8-17.3 1.3-8.4 19-25.8 19-25.8q-0.4 2-0.7 4.1-0.3 2-0.4 4-0.2 2.1-0.3 4.1-0.1 2.1-0.1 4.1c0 9.6-4.7 34.6-4.7 34.6 0 0 2.8-11.5 8.9-17 6.1-5.5 25.3-14 26.4-14.7 1-0.7-4.3 7.3-7.8 13.5-3.4 6.2-22.2 22.8-22.2 22.8 0 0 10.5-3.8 17.9-6 7.4-2.2 24 9.2 24 9.2 0 0-12.7-1.5-20.5 1.5-7.9 3-19.6 6.6-19.6 6.6 0.1 0 10.7 2.4 15.4 5.9 4.6 3.6 11.1 14.8 11.1 14.8 0 0-10.2-7.5-16.7-8.6-6.6-1.1-15.6-4.7-15.6-4.7q0.2 1.7 0.3 3.4 0.2 1.7 0.4 3.4 0.3 1.7 0.5 3.4 0.3 1.6 0.6 3.3c1.5 8 6 17.9 6 17.9 0 0-11.5-6.5-14.7-11.6-3.1-5.1-4.2-17.6-4.2-17.6 0 0-5.2 0.1-9 5.9-3.7 5.8-6.5 21.1-6.5 21.1 0 0-6.1-13-5.9-20 0.2-7 14.2-19.2 14.2-19.2 0 0-11.9 1.1-17.8 3.8-6 2.7-11.2 10.2-11.2 10.2 0 0 0-16.9 5.7-22.1 5.8-5.2 22.2-2.2 22.2-2.2l-12.8-12c-3.2-3-8-12.7-8-12.7 0 0 5.3-0.6 14.6 2.7q2 0.7 3.9 1.8 1.8 1.1 3.4 2.6 1.6 1.4 2.8 3.1 1.3 1.8 2.2 3.7z"/>
		<path fill-rule="evenodd" class="s5" d="m32.6 71.9c-1-0.8-1.9-1.6-2.9-2.4"/>
		<path fill-rule="evenodd" class="s5" d="m55.9 55.2c-1.6 4.8-3.3 11-3.3 15.3-0.1 8 0.2 24.7 0.2 24.7q-1.9-2.9-4-5.7-2.1-2.7-4.3-5.4-2.2-2.6-4.6-5.1-2.4-2.5-4.9-4.9"/>
		<path fill-rule="evenodd" class="s5" d="m58.3 48.4c0 0-0.5 1.4-1.3 3.5"/>
		<path fill-rule="evenodd" class="s5" d="m52.8 95.2c0 0-22.7-3.8-29-0.8-6.4 2.9-8.2 10.6-8.2 10.6"/>
		<path fill-rule="evenodd" class="s5" d="m84.5 89.2c4.6-0.2 5.8 0.7 5.8 0.7"/>
		<path fill-rule="evenodd" class="s5" d="m32.7 128.1c0 0-1.7-6.7 3.9-14.4 5.5-7.7 16.8-16.3 16.8-16.3 0 0 19.9-6.3 27.8-7.8"/>
		<path fill-rule="evenodd" class="s5" d="m59 90.3c-3.1 4-5.6 7.1-5.6 7.1"/>
		<path fill-rule="evenodd" class="s5" d="m79.1 66.5c-3.6 3-8.1 7-10 10.1-1.5 2.6-4.9 7-8.1 11.2"/>
		<path fill-rule="evenodd" class="s5" d="m84.3 62.5c0 0-1.3 0.9-3.1 2.4"/>
		<path fill-rule="evenodd" class="s5" d="m55.6 99c0 0 20.2 7.6 23.4 10.6q0.8 0.7 1.4 1.4 0.7 0.7 1.4 1.4 0.6 0.7 1.2 1.5 0.7 0.7 1.2 1.5"/>
		<path fill-rule="evenodd" class="s5" d="m54.5 106.7c-0.1 3.8 0 8.6 0.9 11.9q0.5 1.5 1 3 0.5 1.4 1.1 2.9 0.5 1.4 1.2 2.8 0.6 1.5 1.3 2.8"/>
		<path fill-rule="evenodd" class="s5" d="m54.9 101c0 0-0.1 1.4-0.2 3.5"/>
	</g>
	<g id="freepik--Device--inject-1--inject-62">
		<path class="s2" d="m113.8 123.4h226.7c1.4 0 2.8 0.3 4.1 0.8 1.3 0.6 2.5 1.4 3.4 2.4 1 0.9 1.8 2.1 2.4 3.4 0.5 1.3 0.8 2.7 0.8 4.1v147c0 1.5-0.3 3.1-0.9 4.5-0.6 1.4-1.5 2.7-2.5 3.8-1.1 1-2.4 1.9-3.8 2.5-1.4 0.6-3 0.9-4.5 0.9h-224.7c-1.5 0-3-0.3-4.4-0.9-1.5-0.6-2.7-1.5-3.8-2.5-1.1-1.1-2-2.4-2.6-3.8-0.5-1.4-0.8-3-0.8-4.5v-147c0-1.4 0.2-2.8 0.8-4.1 0.5-1.3 1.3-2.5 2.3-3.4 1-1 2.2-1.8 3.4-2.4 1.3-0.5 2.7-0.8 4.1-0.8z"/>
		<path class="s6" d="m182.8 140.1h14v9.2h-14z"/>
		<path class="s6" d="m138.6 196.7h13v12.8h-13z"/>
		<path class="s6" d="m195.8 151.5h13v12.8h-13z"/>
		<path class="s6" d="m166.7 140.1h13.9v9.2h-13.9z"/>
		<path class="s6" d="m211 151.5h13.1v12.8h-13.1z"/>
		<path class="s6" d="m199 140.1h14v9.2h-14z"/>
		<path class="s6" d="m119.2 181.6h24.5v12.9h-24.5z"/>
		<path class="s6" d="m165.2 151.5h13.1v12.8h-13.1z"/>
		<path class="s6" d="m119.2 196.7h17.2v12.8h-17.2z"/>
		<path class="s6" d="m215.2 140.1h13.9v9.2h-13.9z"/>
		<path class="s6" d="m134.7 151.5h13.1v12.8h-13.1z"/>
		<path class="s6" d="m134.3 140.1h14v9.2h-14z"/>
		<path class="s6" d="m150.5 140.1h14v9.2h-14z"/>
		<path class="s6" d="m150 151.5h13v12.8h-13z"/>
		<path class="s6" d="m180.5 151.5h13.1v12.8h-13.1z"/>
		<path class="s6" d="m279.8 140.1h14v9.2h-14z"/>
		<path class="s6" d="m296 140.1h13.9v9.2h-13.9z"/>
		<path class="s6" d="m287.4 151.5h13v12.8h-13z"/>
		<path class="s6" d="m302.6 151.5h13.1v12.8h-13.1z"/>
		<path class="s6" d="m320.6 196.7h19.2v12.8h-19.2z"/>
		<path class="s6" d="m312.2 140.1h13.9v9.2h-13.9z"/>
		<path class="s6" d="m119.2 151.5h13.3v12.8h-13.3z"/>
		<path class="s6" d="m231.3 140.1h14v9.2h-14z"/>
		<path class="s6" d="m247.5 140.1h13.9v9.2h-13.9z"/>
		<path class="s6" d="m241.6 151.5h13v12.8h-13z"/>
		<path class="s6" d="m272.1 151.5h13v12.8h-13z"/>
		<path class="s6" d="m226.3 151.5h13v12.8h-13z"/>
		<path class="s6" d="m256.8 151.5h13.1v12.8h-13.1z"/>
		<path class="s6" d="m263.7 140.1h13.9v9.2h-13.9z"/>
		<path class="s6" d="m244.8 196.7h12.9v12.8h-12.9z"/>
		<path class="s6" d="m312.8 181.6h12.9v12.9h-12.9z"/>
		<path class="s6" d="m297.6 181.6h13v12.9h-13z"/>
		<path class="s6" d="m305.4 196.7h13v12.8h-13z"/>
		<path class="s6" d="m290.3 196.7h12.9v12.8h-12.9z"/>
		<path class="s6" d="m259.9 196.7h13v12.8h-13z"/>
		<path class="s6" d="m275.1 196.7h13v12.8h-13z"/>
		<path class="s6" d="m282.4 181.6h13v12.9h-13z"/>
		<path class="s6" d="m267.3 181.6h12.9v12.9h-12.9z"/>
		<path class="s6" d="m328.3 140.1h11.5v9.2h-11.5z"/>
		<path class="s6" d="m119.2 140.1h12.9v9.2h-12.9z"/>
		<path class="s6" d="m119.2 211.7h220.6v13.4h-220.6z"/>
		<path class="s6" d="m317.9 151.5h21.9v12.8h-21.9z"/>
		<path class="s6" d="m327.9 181.6h11.9v12.9h-11.9z"/>
		<path class="s6" d="m324.3 179.3h-2.2v-12.8h-13v12.8h-2.2v-12.8h-13v12.8h-2.2v-12.8h-12.9v12.8h-2.2v-12.8h-13v12.8h-2.2v-12.8h-13v12.8h-2.2v-12.8h-12.9v12.8h-2.2v-12.8h-13v12.8h-2.2v-12.8h-13v12.8h-2.2v-12.8h-12.9v12.8h-2.2v-12.8h-13v12.8h-2.2v-12.8h-13v12.8h-2.2v-12.8h-12.9v12.8h-2.2v-12.8h-20.9v12.9h220.6v-12.9h-15.5v12.8z"/>
		<path class="s6" d="m206.6 181.6h13v12.9h-13z"/>
		<path class="s6" d="m252.1 181.6h13v12.9h-13z"/>
		<path class="s6" d="m176.3 181.6h12.9v12.9h-12.9z"/>
		<path class="s6" d="m184.1 196.7h13v12.8h-13z"/>
		<path class="s6" d="m191.4 181.6h13v12.9h-13z"/>
		<path class="s6" d="m161.1 181.6h13v12.9h-13z"/>
		<path class="s6" d="m153.8 196.7h12.9v12.8h-12.9z"/>
		<path class="s6" d="m168.9 196.7h13v12.8h-13z"/>
		<path class="s6" d="m221.8 181.6h12.9v12.9h-12.9z"/>
		<path class="s6" d="m229.6 196.7h13v12.8h-13z"/>
		<path class="s6" d="m236.9 181.6h13v12.9h-13z"/>
		<path class="s6" d="m199.3 196.7h12.9v12.8h-12.9z"/>
		<path class="s6" d="m214.4 196.7h13v12.8h-13z"/>
		<path class="s6" d="m145.9 181.6h13v12.9h-13z"/>
		<path class="s3" d="m365.3 31.4h-277.6c-1.4 0-2.7 0.3-4 0.9-1.2 0.7-2.2 1.5-3.1 2.6-0.8 1.1-1.4 2.3-1.6 3.7-0.3 1.3-0.3 2.7 0.1 4l20.3 75.6q0.4 1.4 1.2 2.6 0.8 1.2 2 2.1 1.1 0.9 2.5 1.4 1.4 0.5 2.9 0.5h28.3v5.2h181.7v-5.2h27q1.5 0 2.9-0.5 1.3-0.4 2.5-1.3 1.2-0.9 2-2.1 0.8-1.3 1.2-2.7l20.3-75.6c0.3-1.3 0.4-2.7 0.1-4-0.2-1.3-0.8-2.6-1.6-3.7-0.9-1.1-1.9-1.9-3.1-2.5-1.3-0.6-2.6-1-4-1z"/>
		<path class="s7" d="m333.9 118.1h-214.8l-21.5-77.3h257.8l-21.5 77.3z"/>
		<path class="s6" d="m133.3 84.2v1h-3.8v-1z"/>
		<path class="s6" d="m138.1 84.2v1h-3.8v-1z"/>
		<path class="s6" d="m142.8 84.2v1h-3.8v-1z"/>
		<path class="s6" d="m147.5 84.2v1h-3.8v-1z"/>
		<path class="s6" d="m152.2 84.2v1h-3.8v-1z"/>
		<path class="s6" d="m156.9 84.2v1h-3.8v-1z"/>
		<path class="s6" d="m161.6 84.2v1h-3.8v-1z"/>
		<path class="s6" d="m166.3 89.4l-4.2-11.1h1l4.2 11.1z"/>
		<path class="s6" d="m129.5 67.9v1h-3.8v-1z"/>
		<path class="s6" d="m134.2 67.9v1h-3.8v-1z"/>
		<path class="s6" d="m139 67.9v1h-3.8v-1z"/>
		<path class="s6" d="m143.7 67.9v1h-3.8v-1z"/>
		<path class="s6" d="m148.4 67.9v1h-3.8v-1z"/>
		<path class="s6" d="m156.4 67.9v1h-3.8v-1z"/>
		<path class="s6" d="m161.1 67.9v1h-3.8v-1z"/>
		<path class="s6" d="m165.8 67.9v1h-3.8v-1z"/>
		<path class="s6" d="m170.5 67.9v1h-3.8v-1z"/>
		<path class="s6" d="m175.2 67.9v1h-3.8v-1z"/>
		<path class="s6" d="m179.9 67.9v1h-3.8v-1z"/>
		<path class="s6" d="m184.7 67.9v1h-3.8v-1z"/>
		<path class="s6" d="m192.6 67.9v1h-3.8v-1z"/>
		<path class="s6" d="m197.3 67.9v1h-3.8v-1z"/>
		<path class="s6" d="m202.1 67.9v1h-3.8v-1z"/>
		<path class="s6" d="m210 67.9v1h-3.8v-1z"/>
		<path class="s6" d="m214.8 67.9v1h-3.8v-1z"/>
		<path class="s6" d="m219.5 67.9v1h-3.8v-1z"/>
		<path class="s6" d="m237.2 67.9v1h-3.8v-1z"/>
		<path class="s6" d="m241.9 67.9v1h-3.8v-1z"/>
		<path class="s6" d="m246.7 67.9v1h-3.8v-1z"/>
		<path class="s6" d="m251.4 67.9v1h-3.8v-1z"/>
		<path class="s6" d="m256.1 67.9v1h-3.8v-1z"/>
		<path class="s6" d="m264.1 67.9v1h-3.8v-1z"/>
		<path class="s6" d="m268.8 67.9v1h-3.8v-1z"/>
		<path class="s6" d="m273.5 67.9v1h-3.8v-1z"/>
		<path class="s6" d="m281.5 67.9v1h-3.8v-1z"/>
		<path class="s6" d="m289.4 67.9l0.1 1h-3.9v-1z"/>
	</g>
	<g id="freepik--Notebook--inject-1--inject-62">
		<path class="s2" d="m352.7 232.3l-10.7 41.3 10.1 2.9 0.6-44.2z"/>
		<path class="s8" d="m357.5 188.7q-0.5-0.7-0.8-1.5-0.3-0.8-0.4-1.6-0.2-0.8-0.2-1.6 0-0.8 0.2-1.6c0.5-4.1 5.4-5 5.4-5 0 0 1.1-0.8 5 0.7 3.9 1.5 34.3 5.6 53.8 8.2 19.4 2.6 25.7 0.9 25.4 7.6-0.3 6.7-17.3 66.5-17.6 68.4-0.2 1.9-70.8-73.6-70.8-73.6z"/>
		<path class="s9" d="m357.5 188.7l81.7 11-13.2 97.4-81.7-11.1z"/>
		<path class="s5" d="m424 219.2l4.7 0.6"/>
		<path class="s5" d="m394.2 215.1l26 3.6"/>
		<path class="s5" d="m362.7 210.9l27.8 3.7"/>
		<path class="s5" d="m416.6 227l11 1.5"/>
		<path class="s5" d="m361.6 219.5l43.7 5.9"/>
		<path class="s5" d="m383.8 231.3l42.6 5.8"/>
		<path class="s5" d="m360.4 228.2l19 2.6"/>
		<path class="s5" d="m397.9 242.1l27.3 3.7"/>
		<path class="s5" d="m374.8 238.9l20 2.7"/>
		<path class="s5" d="m359.2 236.8l12.1 1.7"/>
		<path class="s5" d="m414.3 253.1l9.8 1.3"/>
		<path class="s5" d="m358.1 245.5l49.6 6.7"/>
		<path class="s5" d="m395.3 259.3l27.6 3.8"/>
		<path class="s5" d="m356.9 254.1l33.7 4.6"/>
		<path class="s5" d="m403.8 269.3l17.9 2.4"/>
		<path class="s5" d="m367.5 264.4l31.9 4.3"/>
		<path class="s5" d="m355.7 262.8l8 1.1"/>
		<path fill-rule="evenodd" class="s10" d="m439.2 199.7c0 0 1.4-13.5 6.4-8.1"/>
		<path class="s2" d="m411.5 304.4l-0.1 8.6-5-7.1-20.2-67.9 5.1-1.6 20.2 68z"/>
		<path class="s11" d="m386.5 240.2l2.8-0.9 19.8 68.1-2.8 0.8z"/>
		<path class="s10" d="m411.5 304.4l-5.1 1.5 5 7.1 0.1-8.6z"/>
		<path class="s3" d="m408.9 309.4l2.5 3.6v-4.3l-2.5 0.7z"/>
		<path class="s2" d="m386.5 229.6q-0.5 0.2-0.9 0.5-0.5 0.3-0.7 0.8-0.3 0.5-0.3 1-0.1 0.5 0.1 1l1.5 5.1 5.1-1.5-1.5-5.1q-0.2-0.5-0.5-0.9-0.3-0.4-0.8-0.7-0.5-0.2-1-0.3-0.5 0-1 0.1z"/>
		<path class="s3" d="m386.5 229.6q-0.5 0.2-0.9 0.5-0.5 0.3-0.7 0.8-0.3 0.5-0.3 1-0.1 0.5 0.1 1l0.7 2.4 5.1-1.5-0.7-2.4q-0.2-0.5-0.5-0.9-0.3-0.4-0.8-0.7-0.5-0.2-1-0.3-0.5 0-1 0.1z"/>
	</g>
</svg>