<svg xmlns="http://www.w3.org/2000/svg" xmlns:xlink="http://www.w3.org/1999/xlink" viewBox="0 0 500 500"><defs><clipPath id="freepik--clip-path--inject-33"><path d="M357.8,350.13V331.29H301.14v18.84a27,27,0,0,1-6,16.93l-2.48,3.07H366.3l-2.48-3.07A26.91,26.91,0,0,1,357.8,350.13Z" style="fill:#fff;stroke:#263238;stroke-linecap:round;stroke-linejoin:round"></path></clipPath><clipPath id="freepik--clip-path-2--inject-33"><rect x="227.05" y="180.4" width="204.84" height="118.15" style="fill:#263238;stroke:#fff;stroke-linecap:round;stroke-linejoin:round"></rect></clipPath><clipPath id="freepik--clip-path-3--inject-33"><rect x="148.56" y="253.9" width="170.07" height="96.11" style="fill:#263238;stroke:#263238;stroke-linecap:round;stroke-linejoin:round"></rect></clipPath><clipPath id="freepik--clip-path-4--inject-33"><rect x="109.36" y="271.35" width="58.69" height="98.53" rx="7.39" style="fill:#263238;stroke:#263238;stroke-linecap:round;stroke-linejoin:round"></rect></clipPath><clipPath id="freepik--clip-path-5--inject-33"><rect x="75.12" y="308.88" width="35.01" height="56.64" style="fill:#263238;stroke:#263238;stroke-linecap:round;stroke-linejoin:round"></rect></clipPath></defs><g id="freepik--background-simple--inject-33"><path d="M447.39,296.8S467.52,190.35,412.69,130c-48.4-53.31-125-74-187.48-30C203,115.7,186.75,146.2,160.75,155.62,131.6,166.19,94.13,170,67.06,215.26S49.71,318.69,85.8,349.65s99.25.75,156.16-1.51S417.55,428.16,447.39,296.8Z" style="fill:#F28F52"></path><path d="M447.39,296.8S467.52,190.35,412.69,130c-48.4-53.31-125-74-187.48-30C203,115.7,186.75,146.2,160.75,155.62,131.6,166.19,94.13,170,67.06,215.26S49.71,318.69,85.8,349.65s99.25.75,156.16-1.51S417.55,428.16,447.39,296.8Z" style="fill:#fff;opacity:0.8"></path></g><g id="freepik--device-4--inject-33"><path d="M357.8,350.13V331.29H301.14v18.84a27,27,0,0,1-6,16.93l-2.48,3.07H366.3l-2.48-3.07A26.91,26.91,0,0,1,357.8,350.13Z" style="fill:#fff"></path><g style="clip-path:url(#freepik--clip-path--inject-33)"><path d="M297.66,343.46h63.62a26.8,26.8,0,0,1-3.48-13.19V311.43H301.14v18.84A26.91,26.91,0,0,1,297.66,343.46Z" style="fill:#263238"></path></g><path d="M357.8,350.13V331.29H301.14v18.84a27,27,0,0,1-6,16.93l-2.48,3.07H366.3l-2.48-3.07A26.91,26.91,0,0,1,357.8,350.13Z" style="fill:none;stroke:#263238;stroke-linecap:round;stroke-linejoin:round"></path><rect x="215.59" y="170" width="227.75" height="167.23" rx="8.48" style="fill:#263238;stroke:#263238;stroke-linecap:round;stroke-linejoin:round"></rect><path d="M215.59,311.24H443.34a0,0,0,0,1,0,0v17.51a8.48,8.48,0,0,1-8.48,8.48H224.08a8.48,8.48,0,0,1-8.48-8.48V311.24A0,0,0,0,1,215.59,311.24Z" style="fill:#fff;stroke:#263238;stroke-linecap:round;stroke-linejoin:round"></path><rect x="227.05" y="180.4" width="204.84" height="118.15" style="fill:#263238"></rect><g style="clip-path:url(#freepik--clip-path-2--inject-33)"><polygon points="431.89 215.73 289.87 298.55 431.89 298.55 431.89 215.73" style="fill:#fff;opacity:0.30000000000000004"></polygon></g><rect x="227.05" y="180.4" width="204.84" height="118.15" style="fill:none;stroke:#fff;stroke-linecap:round;stroke-linejoin:round"></rect><rect x="292.64" y="370.13" width="73.68" height="3.36" style="fill:#263238;stroke:#263238;stroke-linecap:round;stroke-linejoin:round"></rect></g><g id="freepik--device-3--inject-33"><path d="M151.51,244.51H315.69A10.46,10.46,0,0,1,326.14,255V364.65a0,0,0,0,1,0,0H141.06a0,0,0,0,1,0,0V255A10.46,10.46,0,0,1,151.51,244.51Z" style="fill:#fff;stroke:#263238;stroke-linecap:round;stroke-linejoin:round"></path><rect x="148.56" y="253.9" width="170.07" height="96.11" style="fill:#263238"></rect><g style="clip-path:url(#freepik--clip-path-3--inject-33)"><polygon points="318.63 350.01 318.63 267.97 177.96 350.01 318.63 350.01" style="fill:#fff;opacity:0.30000000000000004"></polygon></g><rect x="148.56" y="253.9" width="170.07" height="96.11" style="fill:none;stroke:#263238;stroke-linecap:round;stroke-linejoin:round"></rect><rect x="170.42" y="358.87" width="127.2" height="6.27" style="fill:#263238;stroke:#263238;stroke-linecap:round;stroke-linejoin:round"></rect><rect x="170.42" y="361.88" width="127.2" height="3.25" style="fill:#fff;stroke:#263238;stroke-linecap:round;stroke-linejoin:round"></rect><path d="M126.09,368.85s2.09,2.55,8.35,4.64H333.6s4.65-1.16,6.73-4.41Z" style="fill:#263238;stroke:#263238;stroke-linecap:round;stroke-linejoin:round"></path><rect x="125.66" y="364.27" width="215.12" height="4.88" rx="1.89" style="fill:#fff;stroke:#263238;stroke-linecap:round;stroke-linejoin:round"></rect><circle cx="233.56" cy="248.15" r="1.62" style="fill:#263238"></circle><path d="M142.8,278.32h0a.46.46,0,0,1-.46-.46V264.39a.46.46,0,0,1,.46-.46h0a.47.47,0,0,1,.47.46v13.47A.47.47,0,0,1,142.8,278.32Z" style="fill:#263238;stroke:#fff;stroke-miterlimit:10;stroke-width:0.691688px"></path></g><g id="freepik--character-1--inject-33"><polygon points="84.17 366.53 90.23 371.64 90.23 372.78 79.05 372.78 79.83 367.29 84.17 366.53" style="fill:#F28F52;stroke:#263238;stroke-linecap:round;stroke-linejoin:round"></polygon><path d="M97.12,233.41s.79-1.58,1.44-.13a6.83,6.83,0,0,1,.13,4.58c-.39.66-2,1.57-2,.92S97.12,233.41,97.12,233.41Z" style="fill:#fff;stroke:#263238;stroke-linecap:round;stroke-linejoin:round"></path><path d="M84.43,236.46s-1.19-1.29-1.42.28a7,7,0,0,0,1.16,4.44c.56.52,2.33,1,2.14.33S84.43,236.46,84.43,236.46Z" style="fill:#fff;stroke:#263238;stroke-linecap:round;stroke-linejoin:round"></path><path d="M109.5,246l-13.31,1.74s-4,.3-5.71.3-13.08,2.78-13.08,2.78,4.52,13.65,4.52,14.83,5.52,16.08,5.52,16.08,0,2.93.88,3.95,8.93,1.76,13.32.73,5.71-3.36,6-4.24-.06-6.29.08-8.63C107.89,270.88,108.9,251.23,109.5,246Z" style="fill:#F28F52;stroke:#263238;stroke-linecap:round;stroke-linejoin:round"></path><path d="M94.2,244.85a30,30,0,0,1,3.08,1.9c.44.44,2.63,7.91,2.63,7.91L95.23,252l-5.13,4.1s-1.9-5.56-1.75-7.61a5,5,0,0,1,2.05-3.37Z" style="fill:#fff;stroke:#263238;stroke-linecap:round;stroke-linejoin:round"></path><polygon points="94.79 244.26 94.94 255.83 89.67 245.29 94.79 244.26" style="fill:#fff;stroke:#263238;stroke-linecap:round;stroke-linejoin:round"></polygon><path d="M84.53,237.32c.85,4.83,4.85,11,8.36,10.37s5.18-7.77,4.33-12.6-4.37-8.25-7.88-7.63S83.68,232.48,84.53,237.32Z" style="fill:#fff;stroke:#263238;stroke-linecap:round;stroke-linejoin:round"></path><path d="M97.46,236.36s-1.39.44-1.2-.08a5.62,5.62,0,0,0-.38-2.15,2.34,2.34,0,0,1-.89-.88c-.41-.67.13-1.8,0-2.66s-4.29,1.64-5,1.77-4.91-.18-4.91-.18,1.17,2.46.79,2.82-.44,1.7-.44,1.7a13.28,13.28,0,0,1,.76,2.68c-.06.45-.87.89-1.09.48s-.87-4.13-.87-4.13-1,.32-1.34-1.69,0-6.65,1.88-7.86,6.44-2,8.48-1.34,4.14,5,4,6.69A30.64,30.64,0,0,0,97.46,236.36Z" style="fill:#263238;stroke:#263238;stroke-linecap:round;stroke-linejoin:round"></path><polygon points="90.23 371.64 90.23 372.78 79.05 372.78 79.28 371.14 89.63 371.14 90.23 371.64" style="fill:#fff;stroke:#263238;stroke-linecap:round;stroke-linejoin:round"></polygon><polygon points="111.33 366.06 118.4 371.64 118.4 372.78 106.52 372.78 107.3 366.24 111.33 366.06" style="fill:#F28F52;stroke:#263238;stroke-linecap:round;stroke-linejoin:round"></polygon><polygon points="118.4 371.64 118.4 372.78 106.52 372.78 106.75 371.14 117.8 371.14 118.4 371.64" style="fill:#fff;stroke:#263238;stroke-linecap:round;stroke-linejoin:round"></polygon><path d="M107.64,282.19s3.16,17.21,4.21,24.73,1.93,28.17,1.93,35.7-2.45,23.44-2.45,23.44l-4,.18s-3.5-41.64-4.55-44.79-3.5-12.25-3.5-12.25-2.8,22.57-3.15,25.19S84,366.94,84,366.94l-4.2.35s6.82-33.25,7-35.52-1.4-33.95-.52-39.54,2-7.5,2-7.5S100.71,286.47,107.64,282.19Z" style="fill:#263238;stroke:#263238;stroke-linecap:round;stroke-linejoin:round"></path><path d="M77.4,250.84l-2.91,27.82a2.57,2.57,0,0,0,1.61,2.65l24.22,9.62.26-3.63L82.14,275l.8-6.59Z" style="fill:#F28F52;stroke:#263238;stroke-linecap:round;stroke-linejoin:round"></path><polygon points="100.58 287.3 103.95 286.26 107.58 288.34 107.58 291.97 102.65 291.71 100.52 290.31 100.58 287.3" style="fill:#fff;stroke:#263238;stroke-linecap:round;stroke-linejoin:round"></polygon><path d="M109.5,246l21.57,13.41-5.18,3.15L108.5,259S108.75,250.85,109.5,246Z" style="fill:#F28F52;stroke:#263238;stroke-linecap:round;stroke-linejoin:round"></path><path d="M125.89,262.58a40.19,40.19,0,0,0,7.92,3.15c3.12.63,13.84,1.45,13.84,1.45l1.81-3s-10.53-3.76-14.2-4.65-7.77-2.25-7.77-2.25" style="fill:#F28F52;stroke:#263238;stroke-linecap:round;stroke-linejoin:round"></path><path d="M149.46,264.18s2.34-.93,3-.63,5.23,3.59,5.23,3.59.49,1.58-.53,2.2-3.77,0-4.38.1-5.12-2.26-5.12-2.26Z" style="fill:#fff;stroke:#263238;stroke-linecap:round;stroke-linejoin:round"></path><path d="M152.45,263.55l3.2,3s.67,1.47-.54,1a12.36,12.36,0,0,1-2.44-1.32L151,267l-.89.07" style="fill:#fff;stroke:#263238;stroke-linecap:round;stroke-linejoin:round"></path></g><g id="freepik--device-2--inject-33"><rect x="105.56" y="267.75" width="66.3" height="105.74" rx="11.18" transform="translate(277.42 641.24) rotate(180)" style="fill:#fff;stroke:#263238;stroke-linecap:round;stroke-linejoin:round"></rect><rect x="109.36" y="271.35" width="58.69" height="98.53" rx="7.39" style="fill:#263238"></rect><g style="clip-path:url(#freepik--clip-path-4--inject-33)"><path d="M109.36,340.2v22.54a7.14,7.14,0,0,0,7.14,7.14h44.41a7.13,7.13,0,0,0,7.14-7.14V306Z" style="fill:#fff;opacity:0.30000000000000004"></path></g><rect x="109.36" y="271.35" width="58.69" height="98.53" rx="7.39" style="fill:none;stroke:#263238;stroke-linecap:round;stroke-linejoin:round"></rect><path d="M171.25,356.83V360a.31.31,0,0,0,.3.31h0a.31.31,0,0,0,.31-.31v-3.14a.3.3,0,0,0-.31-.3h0A.3.3,0,0,0,171.25,356.83Z" style="fill:#263238;stroke:#263238;stroke-linecap:round;stroke-linejoin:round"></path><path d="M171.25,344.78v6.47a.29.29,0,0,0,.3.26h0a.29.29,0,0,0,.31-.26v-6.47a.29.29,0,0,0-.31-.26h0A.29.29,0,0,0,171.25,344.78Z" style="fill:#263238;stroke:#263238;stroke-linecap:round;stroke-linejoin:round"></path></g></svg>