<svg version="1.2" xmlns="http://www.w3.org/2000/svg" viewBox="0 0 400 298" width="400" height="298">
	<title>Web devices-bro-svg</title>
	<defs>
		<clipPath clipPathUnits="userSpaceOnUse" id="cp1">
			<path d="m306.8 274.13v-18.84h-56.66v18.84q0 2.29-0.39 4.56-0.39 2.26-1.16 4.42-0.77 2.16-1.89 4.16-1.12 2.01-2.56 3.79l-2.48 3.07h73.64l-2.48-3.07q-1.45-1.78-2.57-3.78-1.13-2-1.89-4.17-0.77-2.16-1.17-4.42-0.39-2.26-0.39-4.56z"/>
		</clipPath>
		<clipPath clipPathUnits="userSpaceOnUse" id="cp2">
			<path d="m176.05 104.4h204.84v118.15h-204.84z"/>
		</clipPath>
		<clipPath clipPathUnits="userSpaceOnUse" id="cp3">
			<path d="m97.56 177.9h170.07v96.11h-170.07z"/>
		</clipPath>
		<clipPath clipPathUnits="userSpaceOnUse" id="cp4">
			<path d="m65.75 195.35h43.91c4.08 0 7.39 3.31 7.39 7.39v83.75c0 4.08-3.31 7.39-7.39 7.39h-43.91c-4.08 0-7.39-3.31-7.39-7.39v-83.75c0-4.08 3.31-7.39 7.39-7.39z"/>
		</clipPath>
	</defs>
	<style>
		.s0 { fill: #f28f52 } 
		.s1 { opacity: .8;fill: #ffffff } 
		.s2 { fill: #ffffff } 
		.s3 { fill: #263238 } 
		.s4 { fill: none;stroke: #263238;stroke-linecap: round;stroke-linejoin: round } 
		.s5 { fill: #263238;stroke: #263238;stroke-linecap: round;stroke-linejoin: round } 
		.s6 { fill: #ffffff;stroke: #263238;stroke-linecap: round;stroke-linejoin: round } 
		.s7 { opacity: .3;fill: #ffffff } 
		.s8 { fill: none;stroke: #ffffff;stroke-linecap: round;stroke-linejoin: round } 
		.s9 { fill: #263238;stroke: #ffffff;stroke-miterlimit:10;stroke-width: .7 } 
		.s10 { fill: #f28f52;stroke: #263238;stroke-linecap: round;stroke-linejoin: round } 
	</style>
	<g id="freepik--background-simple--inject-33">
		<path class="s0" d="m396.4 220.8c0 0 20.1-106.5-34.7-166.8-48.4-53.3-125-74-187.5-30-22.2 15.7-38.4 46.2-64.4 55.6-29.2 10.6-66.7 14.4-93.7 59.7-27.1 45.2-17.4 103.4 18.7 134.3 36.1 31 99.3 0.8 156.2-1.5 56.9-2.2 175.6 80.1 205.4-51.3z"/>
		<path class="s1" d="m396.4 220.8c0 0 20.1-106.5-34.7-166.8-48.4-53.3-125-74-187.5-30-22.2 15.7-38.4 46.2-64.4 55.6-29.2 10.6-66.7 14.4-93.7 59.7-27.1 45.2-17.4 103.4 18.7 134.3 36.1 31 99.3 0.8 156.2-1.5 56.9-2.2 175.6 80.1 205.4-51.3z"/>
	</g>
	<g id="freepik--device-4--inject-33">
		<path class="s2" d="m306.8 274.1v-18.8h-56.7v18.8q0 2.3-0.4 4.6-0.3 2.2-1.1 4.4-0.8 2.2-1.9 4.2-1.1 2-2.6 3.8l-2.4 3h73.6l-2.5-3q-1.4-1.8-2.6-3.8-1.1-2-1.8-4.2-0.8-2.2-1.2-4.4-0.4-2.3-0.4-4.6z"/>
		<g id="Clip-Path" clip-path="url(#cp1)">
			<g>
				<path class="s3" d="m246.7 267.5h63.6q-0.9-1.5-1.5-3.1-0.7-1.6-1.1-3.3-0.5-1.7-0.7-3.4-0.2-1.7-0.2-3.4v-18.9h-56.7v18.9q0 1.7-0.2 3.4-0.2 1.7-0.7 3.4-0.4 1.7-1 3.3-0.7 1.6-1.5 3.1z"/>
			</g>
		</g>
		<path fill-rule="evenodd" class="s4" d="m306.8 274.1v-18.8h-56.7v18.8q0 2.3-0.4 4.6-0.3 2.2-1.1 4.4-0.8 2.2-1.9 4.2-1.1 2-2.6 3.8l-2.4 3h73.6l-2.5-3q-1.4-1.8-2.6-3.8-1.1-2-1.8-4.2-0.8-2.2-1.2-4.4-0.4-2.3-0.4-4.6z"/>
		<path class="s5" d="m173.1 94h210.8c4.6 0 8.4 3.8 8.4 8.5v150.3c0 4.6-3.8 8.4-8.4 8.4h-210.8c-4.7 0-8.5-3.8-8.5-8.5v-150.2c0-4.7 3.8-8.5 8.5-8.5z"/>
		<path class="s6" d="m164.6 235.2h227.7v17.6c0 1.1-0.2 2.2-0.6 3.2-0.4 1-1.1 2-1.8 2.7-0.8 0.8-1.8 1.5-2.8 1.9-1 0.4-2.1 0.6-3.2 0.6h-210.8c-1.1 0-2.2-0.2-3.3-0.6-1-0.4-1.9-1.1-2.7-1.9-0.8-0.7-1.4-1.7-1.9-2.7-0.4-1-0.6-2.1-0.6-3.2v-17.6z"/>
		<path class="s3" d="m176.1 104.4h204.8v118.2h-204.8z"/>
		<g id="Clip-Path" clip-path="url(#cp2)">
			<g>
				<path class="s7" d="m380.9 139.7l-142 82.9h142v-82.9z"/>
			</g>
		</g>
		<path class="s8" d="m176.1 104.4h204.8v118.2h-204.8z"/>
		<path class="s5" d="m241.6 294.1h73.7v3.4h-73.7z"/>
	</g>
	<g id="freepik--device-3--inject-33">
		<path class="s6" d="m100.5 168.5h164.2c1.4 0 2.7 0.3 4 0.8 1.3 0.5 2.4 1.3 3.4 2.3 1 1 1.7 2.1 2.3 3.4 0.5 1.3 0.7 2.6 0.7 4v109.6h-185v-109.6c0-1.4 0.2-2.7 0.7-4 0.6-1.3 1.3-2.4 2.3-3.4 1-1 2.1-1.8 3.4-2.3 1.3-0.5 2.6-0.8 4-0.8z"/>
		<path class="s3" d="m97.6 177.9h170v96.1h-170z"/>
		<g id="Clip-Path" clip-path="url(#cp3)">
			<g>
				<path class="s7" d="m267.6 274v-82l-140.6 82h140.6z"/>
			</g>
		</g>
		<path class="s4" d="m97.6 177.9h170v96.1h-170z"/>
		<path class="s5" d="m119.4 282.9h127.2v6.2h-127.2z"/>
		<path class="s6" d="m119.4 285.9h127.2v3.2h-127.2z"/>
		<path class="s5" d="m75.1 292.9c0 0 2.1 2.5 8.3 4.6h199.2c0 0 4.7-1.2 6.7-4.4z"/>
		<path class="s6" d="m76.5 288.3h211.4c1 0 1.9 0.8 1.9 1.9v1.1c0 1-0.9 1.8-1.9 1.8h-211.4c-1 0-1.8-0.8-1.8-1.8v-1.1c0-1.1 0.8-1.9 1.8-1.9z"/>
		<path class="s3" d="m182.6 173.8c-0.9 0-1.7-0.8-1.7-1.7 0-0.8 0.8-1.6 1.7-1.6 0.9 0 1.6 0.8 1.6 1.6 0 0.9-0.7 1.7-1.6 1.7z"/>
		<path class="s9" d="m91.8 202.3q-0.1 0-0.2 0-0.1-0.1-0.1-0.1-0.1-0.1-0.1-0.2-0.1 0-0.1-0.1v-13.5q0-0.1 0.1-0.2 0-0.1 0.1-0.1 0-0.1 0.1-0.1 0.1-0.1 0.2-0.1 0.1 0 0.2 0.1 0.1 0 0.1 0.1 0.1 0 0.1 0.1 0.1 0.1 0.1 0.2v13.5q0 0.1-0.1 0.1 0 0.1-0.1 0.2 0 0.1-0.1 0.1-0.1 0-0.2 0z"/>
	</g>
	<g id="freepik--character-1--inject-33">
		<path class="s10" d="m33.2 290.5l6 5.1v1.2h-11.2l0.8-5.5 4.4-0.8z"/>
		<path class="s6" d="m46.1 157.4c0 0 0.8-1.6 1.5-0.1q0.2 0.5 0.3 1.1 0.1 0.6 0.1 1.2 0 0.5 0 1.1-0.1 0.6-0.3 1.2c-0.4 0.6-2 1.5-2 0.9 0-0.7 0.4-5.4 0.4-5.4z"/>
		<path class="s6" d="m33.4 160.5c0 0-1.2-1.3-1.4 0.2q0 0.6 0 1.2 0.1 0.6 0.2 1.2 0.2 0.5 0.4 1.1 0.2 0.5 0.6 1c0.5 0.5 2.3 1 2.1 0.3-0.2-0.7-1.9-5-1.9-5z"/>
		<path class="s10" d="m58.5 170l-13.3 1.7c0 0-4 0.3-5.7 0.3-1.7 0-13.1 2.8-13.1 2.8 0 0 4.5 13.7 4.5 14.9 0 1.1 5.5 16 5.5 16 0 0 0 3 0.9 4 0.9 1 9 1.7 13.3 0.7 4.4-1 5.7-3.3 6-4.2 0.3-0.9 0-6.3 0.1-8.7 0.2-2.6 1.2-22.3 1.8-27.5z"/>
		<path class="s6" d="m43.2 168.8q0.4 0.3 0.8 0.5 0.4 0.2 0.8 0.5 0.4 0.2 0.7 0.4 0.4 0.3 0.8 0.5c0.4 0.5 2.6 8 2.6 8l-4.7-2.7-5.1 4.1c0 0-1.9-5.6-1.7-7.6q0-0.5 0.2-1 0.2-0.5 0.4-0.9 0.3-0.4 0.6-0.8 0.4-0.4 0.8-0.7z"/>
		<path class="s6" d="m43.8 168.3l0.1 11.5-5.2-10.5 5.1-1z"/>
		<path class="s6" d="m33.5 161.3c0.9 4.8 4.9 11 8.4 10.4 3.5-0.6 5.2-7.8 4.3-12.6-0.8-4.8-4.4-8.3-7.9-7.6-3.5 0.6-5.6 5-4.8 9.8z"/>
		<path class="s5" d="m46.5 160.4c0 0-1.4 0.4-1.2-0.1q0-0.3-0.1-0.6 0-0.2 0-0.5-0.1-0.3-0.1-0.5-0.1-0.3-0.2-0.6-0.2 0-0.3-0.1-0.1-0.1-0.2-0.2-0.1-0.2-0.2-0.3-0.1-0.1-0.2-0.3c-0.4-0.6 0.1-1.8 0-2.6-0.1-0.9-4.3 1.6-5 1.8-0.7 0.1-4.9-0.2-4.9-0.2 0 0 1.2 2.4 0.8 2.8-0.4 0.4-0.5 1.7-0.5 1.7q0.2 0.3 0.3 0.7 0.1 0.3 0.2 0.6 0.1 0.4 0.2 0.7 0 0.3 0.1 0.7c-0.1 0.4-0.9 0.9-1.1 0.5-0.2-0.5-0.9-4.2-0.9-4.2 0 0-1 0.3-1.3-1.7-0.4-2 0-6.6 1.9-7.8 1.8-1.2 6.4-2 8.5-1.4 2 0.7 4.1 5 4 6.7q-0.1 0.6-0.1 1.2 0 0.6 0.1 1.2 0 0.7 0 1.3 0.1 0.6 0.2 1.2z"/>
		<path class="s6" d="m39.2 295.6v1.2h-11.2l0.3-1.7h10.3l0.6 0.5z"/>
		<path class="s10" d="m60.3 290.1l7.1 5.5v1.2h-11.9l0.8-6.6 4-0.1z"/>
		<path class="s6" d="m67.4 295.6v1.2h-11.9l0.2-1.7h11.1l0.6 0.5z"/>
		<path class="s5" d="m56.6 206.2c0 0 3.2 17.2 4.2 24.7 1.1 7.5 2 28.2 2 35.7 0 7.5-2.5 23.5-2.5 23.5l-4 0.1c0 0-3.5-41.6-4.5-44.8-1.1-3.1-3.5-12.2-3.5-12.2 0 0-2.8 22.6-3.2 25.2-0.3 2.6-12.1 32.5-12.1 32.5l-4.2 0.4c0 0 6.8-33.3 7-35.5 0.2-2.3-1.4-34-0.5-39.6 0.9-5.6 2-7.5 2-7.5 0 0 12.4 1.8 19.3-2.5z"/>
		<path class="s10" d="m26.4 174.8l-2.9 27.9q-0.1 0.4 0 0.8 0.1 0.4 0.4 0.8 0.2 0.3 0.5 0.6 0.3 0.3 0.7 0.4l24.2 9.6 0.3-3.6-18.5-12.3 0.8-6.6z"/>
		<path class="s6" d="m49.6 211.3l3.4-1 3.6 2v3.7l-4.9-0.3-2.2-1.4 0.1-3z"/>
		<path class="s10" d="m58.5 170l21.6 13.4-5.2 3.2-17.4-3.6c0 0 0.2-8.2 1-13z"/>
		<path class="s10" d="m74.9 186.6q0.9 0.5 1.9 0.9 1 0.5 2 0.9 1 0.4 2 0.7 1 0.3 2 0.6c3.1 0.7 13.8 1.5 13.8 1.5l1.9-3c0 0-10.6-3.8-14.2-4.7-3.7-0.9-7.8-2.2-7.8-2.2"/>
		<path class="s6" d="m98.5 188.2c0 0 2.3-0.9 3-0.6 0.6 0.3 5.2 3.5 5.2 3.5 0 0 0.5 1.6-0.5 2.2-1.1 0.7-3.8 0-4.4 0.1-0.6 0.1-5.1-2.2-5.1-2.2z"/>
		<path class="s6" d="m101.4 187.6l3.2 3c0 0 0.7 1.4-0.5 1q-0.3-0.2-0.6-0.3-0.3-0.2-0.6-0.3-0.4-0.2-0.6-0.4-0.3-0.2-0.6-0.4l-1.7 0.8-0.9 0.1"/>
	</g>
	<g id="freepik--device-2--inject-33">
		<path class="s6" d="m109.7 297.5h-44c-6.1 0-11.1-5-11.1-11.2v-83.4c0-6.1 5-11.1 11.1-11.1h44c6.2 0 11.2 5 11.2 11.1v83.4c0 6.2-5 11.2-11.2 11.2z"/>
		<path class="s3" d="m65.8 195.4h43.9c4 0 7.4 3.3 7.4 7.3v83.8c0 4.1-3.4 7.4-7.4 7.4h-43.9c-4.1 0-7.4-3.3-7.4-7.4v-83.8c0-4 3.3-7.3 7.4-7.3z"/>
		<g id="Clip-Path" clip-path="url(#cp4)">
			<g>
				<path class="s7" d="m58.4 264.2v22.5q0 1.5 0.5 2.8 0.5 1.3 1.6 2.3 1 1 2.3 1.5 1.3 0.6 2.7 0.6h44.4q1.4 0 2.7-0.6 1.4-0.5 2.4-1.5 1-1 1.5-2.3 0.5-1.3 0.5-2.8v-56.7z"/>
			</g>
		</g>
		<path class="s4" d="m65.8 195.4h43.9c4 0 7.4 3.3 7.4 7.3v83.8c0 4.1-3.4 7.4-7.4 7.4h-43.9c-4.1 0-7.4-3.3-7.4-7.4v-83.8c0-4 3.3-7.3 7.4-7.3z"/>
		<path class="s5" d="m120.3 280.8v3.2q0 0.1 0 0.1 0 0.1 0 0.1 0.1 0.1 0.1 0.1 0.1 0 0.2 0 0 0 0.1 0 0 0 0.1-0.1 0 0 0-0.1 0.1 0 0.1-0.1v-3.1q0-0.1-0.1-0.2 0 0 0-0.1-0.1 0-0.1 0-0.1 0-0.2 0h0.1q-0.1 0-0.2 0 0 0-0.1 0 0 0.1 0 0.1 0 0.1 0 0.1z"/>
		<path class="s5" d="m120.3 268.8v6.4q0 0.1 0 0.2 0 0 0 0 0.1 0.1 0.1 0.1 0.1 0 0.2 0 0 0 0.1 0 0 0 0.1-0.1 0 0 0 0 0.1-0.1 0.1-0.2v-6.4q0-0.1-0.1-0.1 0-0.1 0-0.1-0.1 0-0.1-0.1-0.1 0-0.1 0-0.1 0-0.2 0 0 0.1-0.1 0.1 0 0 0 0.1 0 0 0 0.1z"/>
	</g>
</svg>