<svg class="animated" id="freepik_stories-time-management" xmlns="http://www.w3.org/2000/svg" xmlns:xlink="http://www.w3.org/1999/xlink" viewBox="0 0 500 500" version="1.1" xmlns:svgjs="http://svgjs.com/svgjs"><style>svg#freepik_stories-time-management:not(.animated) .animable {opacity: 0;}svg#freepik_stories-time-management.animated #freepik--Clock--inject-16 {animation: 6s Infinite  linear spin;animation-delay: 0s;}         @keyframes spin {             from {                 transform: rotate(0);               }               to {                 transform: rotate(360deg);               }         }     .animator-hidden { display: none; }</style><g id="freepik--Icons--inject-16" class="animable" style="transform-origin: 244.483px 193.39px;"><g id="elthh1wlcrw48"><rect x="374.13" y="192.45" width="46.32" height="28.18" rx="4.24" style="fill: rgb(38, 50, 56); opacity: 0.2; transform-origin: 397.29px 206.54px;" class="animable" id="elqo6ljp235l"></rect></g><path d="M374.92,195.55l20.14,10.34a4.54,4.54,0,0,0,4.08,0l20.66-10.42" style="fill: none; stroke: rgb(255, 255, 255); stroke-linecap: round; stroke-linejoin: round; stroke-width: 0.75px; transform-origin: 397.36px 200.922px;" id="elspk4q9qewjj" class="animable"></path><g id="eleolsdaqqarn"><path d="M126.24,190.47a1.62,1.62,0,0,0-1.28-.63H83.62L82,185.05A1.6,1.6,0,0,0,80.5,184H70a1.61,1.61,0,0,0,0,3.21h9.31l10.09,30.29a1.6,1.6,0,0,0,1.52,1.1h.59a5.53,5.53,0,1,0,9.29,0h7.71a5.53,5.53,0,1,0,9.29,0h1.24a1.61,1.61,0,0,0,0-3.21h-27l-1.76-5.29h30a1.61,1.61,0,0,0,1.55-1.19l4.57-17A1.6,1.6,0,0,0,126.24,190.47Zm-30,33.37a2.32,2.32,0,1,1,2.32-2.32A2.32,2.32,0,0,1,96.19,223.84Zm17,0a2.32,2.32,0,1,1,2.32-2.32A2.32,2.32,0,0,1,113.19,223.84Zm4.28-17h-5.94V193.05h5.94Zm-15.09-13.79h5.94v13.79h-5.94Zm-3.21,13.79h-6V193.05h6ZM84.69,193.05H90v13.79h-.72Zm36,8.12v-8.12h2.19Z" style="fill: rgb(38, 50, 56); opacity: 0.2; transform-origin: 97.5094px 205.565px;" class="animable" id="el0ygfxac24vyf"></path></g><g id="elj19ehr57yc"><path d="M380,114l3.71-1.69-.79-4.45-4.09-.32a17.56,17.56,0,0,0-2.05-3.88l2.11-3.56-3.19-3.2-3.59,2.14a17.81,17.81,0,0,0-6.86-2.8l-1-4.1h-4.52l-1,4.12a17.73,17.73,0,0,0-4.07,1.3l-3.23-2.8-3.7,2.59,1.52,4a18.42,18.42,0,0,0-2.59,3.37l-4.26-.44-1.55,4.25,3.53,2.39a17.52,17.52,0,0,0-.26,3c0,.43,0,.85.05,1.27l-3.7,2.07,1.17,4.37,4.19,0a18.08,18.08,0,0,0,2.31,3.66L346.29,129l3.46,2.9,3.36-2.4a18.3,18.3,0,0,0,4,1.71l.67,4,4.51.4,1.35-3.84a17.84,17.84,0,0,0,4.34-.93l2.84,2.88,3.92-2.26-1.08-3.89a18,18,0,0,0,3-3.28l4,.73L382.6,121l-3.12-2.58A18.23,18.23,0,0,0,380,114Zm-6.69-.08a11.29,11.29,0,1,1-11.29-11.29A11.28,11.28,0,0,1,373.35,114Z" style="fill: rgb(38, 50, 56); opacity: 0.2; transform-origin: 362.09px 113.875px;" class="animable" id="elybvpl15ut8"></path></g><g id="eluxb979twj1s"><path d="M365.91,312.22a1.83,1.83,0,0,0,.68,2.44h0a2.21,2.21,0,0,0,3-.69l5.27-8.13.1-.18,6.78-.72-.69,1.35a.93.93,0,0,0,.27,1.19.89.89,0,0,0,1.29-.3l1.37-2.47,5.1-.54-1,1.88a.9.9,0,0,0,.33,1.18h0a.54.54,0,0,0,1,.14l1.91-3.44,3.38-.36a4.21,4.21,0,0,0,3.09-1.87l.56-.84L388,299.78s-6.71-.61-7.76-3.91l5.17-9.66.05-.13,7.17-.78,1.57-2.08-6.87-1.69.47-1.13a.11.11,0,0,0-.18-.12l-1,1-4.76-5.49-1.36,2.53,2.87,6.21-.18.18L377.6,293c-1.05.88-3,2-4.62.16-2.46-2.67-8.93-13.08-8.93-13.08l-.64,1.59a4.42,4.42,0,0,0,0,3.24l1.14,3L363,290.8a.93.93,0,0,0,.27,1.19.91.91,0,0,0,1.3-.31l.8-1.44,1.68,4.39-1.48,2.88a.93.93,0,0,0,.28,1.2.9.9,0,0,0,1.29-.31L368,297l2.56,6.67Z" style="fill: rgb(38, 50, 56); opacity: 0.2; transform-origin: 380.62px 295.385px;" class="animable" id="elhd4yaee88ek"></path></g><g id="ele0ml9zvg26t"><rect x="131.65" y="88.73" width="47.42" height="28.52" style="fill: rgb(38, 50, 56); opacity: 0.2; transform-origin: 155.36px 102.99px;" class="animable" id="el0upslu592l9"></rect></g><circle cx="154.64" cy="102.52" r="8.43" style="fill: rgb(255, 255, 255); transform-origin: 154.64px 102.52px;" id="elvlgoxkfiqc" class="animable"></circle><g id="eltpz0o7b866b"><polygon points="160.76 102.52 151.49 97.17 151.49 107.87 160.76 102.52" style="fill: rgb(38, 50, 56); opacity: 0.2; transform-origin: 156.125px 102.52px;" class="animable" id="elwioz5ndup1"></polygon></g><g id="ely3toaoo04md"><path d="M121.62,279.64V302a6.3,6.3,0,0,0-3-.73c-2.9,0-5.24,1.81-5.24,4s2.34,4.05,5.24,4.05c4.88,0,5.24-3.34,5.24-3.34V286.34l13.92-2v15a6.41,6.41,0,0,0-3-.72c-2.9,0-5.24,1.81-5.24,4.05s2.34,4,5.24,4c2.57,0,4.71-1.45,5.14-3.34L140,284v-7Z" style="fill: rgb(38, 50, 56); opacity: 0.2; transform-origin: 126.69px 293.16px;" class="animable" id="ell2wxf26y1uf"></path></g><g id="el3eyvsiqq38a"><path d="M273.05,76V73.41a1.61,1.61,0,0,0-1.61-1.61h-2.73a1.61,1.61,0,0,0-1.61,1.61v9.37h-27V73.41a1.61,1.61,0,0,0-1.61-1.61h-2.91A1.61,1.61,0,0,0,234,73.41V76h-4.29a1.83,1.83,0,0,0-1.83,1.83V90a1.84,1.84,0,0,0,1.83,1.84H234v2.56A1.61,1.61,0,0,0,235.57,96h2.91a1.61,1.61,0,0,0,1.61-1.61V87h27v7.34A1.61,1.61,0,0,0,268.71,96h2.73a1.61,1.61,0,0,0,1.61-1.61V91.8h4.12A1.84,1.84,0,0,0,279,90V77.81A1.83,1.83,0,0,0,277.17,76Z" style="fill: rgb(38, 50, 56); opacity: 0.2; transform-origin: 253.44px 83.9px;" class="animable" id="el8q32yufj8n"></path></g></g><g id="freepik--Clock--inject-16" class="animable" style="transform-origin: 253.59px 217.37px;"><g id="el2zb1uqagwuq"><circle cx="253.59" cy="217.37" r="111.12" style="fill: rgb(38, 50, 56); opacity: 0.2; transform-origin: 253.59px 217.37px;" class="animable" id="elvvherlko45"></circle></g><circle cx="253.59" cy="217.37" r="102.4" style="fill: #F28F52; stroke: rgb(38, 50, 56); stroke-miterlimit: 10; transform-origin: 253.59px 217.37px;" id="elsvk0hy3m6m" class="animable"></circle><g id="elobpnjme8kfs"><g style="opacity: 0.2; transform-origin: 221.427px 184.339px;" class="animable" id="elb1w2it9bz8u"><path d="M253.59,220.72a3.33,3.33,0,0,1-2.4-1l-64.41-66.15a3.35,3.35,0,0,1,4.8-4.67L256,215a3.35,3.35,0,0,1-2.4,5.69Z" style="fill: rgb(38, 50, 56); transform-origin: 221.427px 184.339px;" id="elxyfokybxjp" class="animable"></path></g></g><g id="elfvyivtzvqle"><path d="M224.7,240.05a3.35,3.35,0,0,1-1.87-6.14l28.9-19.33a3.35,3.35,0,0,1,3.72,5.57l-28.89,19.33A3.36,3.36,0,0,1,224.7,240.05Z" style="fill: rgb(38, 50, 56); opacity: 0.2; transform-origin: 239.103px 227.055px;" class="animable" id="elyinyiby92f"></path></g><path d="M257.74,217.37a4.15,4.15,0,1,0-4.15,4.14A4.15,4.15,0,0,0,257.74,217.37Z" style="fill: rgb(38, 50, 56); stroke: rgb(38, 50, 56); stroke-linecap: round; stroke-miterlimit: 10; transform-origin: 253.59px 217.36px;" id="el8udu52qmrk4" class="animable"></path><line x1="253.67" y1="124.13" x2="253.67" y2="137.97" style="fill: rgb(255, 255, 255); stroke: rgb(38, 50, 56); stroke-linecap: round; stroke-miterlimit: 10; stroke-width: 2px; transform-origin: 253.67px 131.05px;" id="elfjzrzflowt9" class="animable"></line><line x1="253.67" y1="295.69" x2="253.67" y2="309.53" style="fill: rgb(255, 255, 255); stroke: rgb(38, 50, 56); stroke-linecap: round; stroke-miterlimit: 10; stroke-width: 2px; transform-origin: 253.67px 302.61px;" id="ely4omj2agwor" class="animable"></line><line x1="346.37" y1="216.83" x2="332.52" y2="216.83" style="fill: rgb(255, 255, 255); stroke: rgb(38, 50, 56); stroke-linecap: round; stroke-miterlimit: 10; stroke-width: 2px; transform-origin: 339.445px 216.83px;" id="ele3qy6n8ylp" class="animable"></line><line x1="174.81" y1="216.83" x2="160.97" y2="216.83" style="fill: rgb(255, 255, 255); stroke: rgb(38, 50, 56); stroke-linecap: round; stroke-miterlimit: 10; stroke-width: 2px; transform-origin: 167.89px 216.83px;" id="elb08vz35wto" class="animable"></line><line x1="302.28" y1="137.9" x2="295.02" y2="149.69" style="fill: rgb(255, 255, 255); stroke: rgb(38, 50, 56); stroke-linecap: round; stroke-miterlimit: 10; stroke-width: 2px; transform-origin: 298.65px 143.795px;" id="elj4vfo74u4k" class="animable"></line><line x1="212.31" y1="283.97" x2="205.05" y2="295.76" style="fill: rgb(255, 255, 255); stroke: rgb(38, 50, 56); stroke-linecap: round; stroke-miterlimit: 10; stroke-width: 2px; transform-origin: 208.68px 289.865px;" id="eldv02xn4hz7j" class="animable"></line><line x1="335.22" y1="172.76" x2="323.04" y2="179.34" style="fill: rgb(255, 255, 255); stroke: rgb(38, 50, 56); stroke-linecap: round; stroke-miterlimit: 10; stroke-width: 2px; transform-origin: 329.13px 176.05px;" id="elh1p9zbpxmx" class="animable"></line><line x1="184.29" y1="254.32" x2="172.11" y2="260.9" style="fill: rgb(255, 255, 255); stroke: rgb(38, 50, 56); stroke-linecap: round; stroke-miterlimit: 10; stroke-width: 2px; transform-origin: 178.2px 257.61px;" id="el4xyss6waj4d" class="animable"></line><line x1="332.6" y1="265.45" x2="320.81" y2="258.18" style="fill: rgb(255, 255, 255); stroke: rgb(38, 50, 56); stroke-linecap: round; stroke-miterlimit: 10; stroke-width: 2px; transform-origin: 326.705px 261.815px;" id="elzg4mtc45pl" class="animable"></line><line x1="186.53" y1="175.48" x2="174.74" y2="168.22" style="fill: rgb(255, 255, 255); stroke: rgb(38, 50, 56); stroke-linecap: round; stroke-miterlimit: 10; stroke-width: 2px; transform-origin: 180.635px 171.85px;" id="elydl6jevqrco" class="animable"></line><line x1="297.74" y1="298.39" x2="291.16" y2="286.2" style="fill: rgb(255, 255, 255); stroke: rgb(38, 50, 56); stroke-linecap: round; stroke-miterlimit: 10; stroke-width: 2px; transform-origin: 294.45px 292.295px;" id="ela8igwztmydo" class="animable"></line><line x1="216.18" y1="147.46" x2="209.6" y2="135.28" style="fill: rgb(255, 255, 255); stroke: rgb(38, 50, 56); stroke-linecap: round; stroke-miterlimit: 10; stroke-width: 2px; transform-origin: 212.89px 141.37px;" id="el46i8bplu7dp" class="animable"></line></g><g id="freepik--Shadow--inject-16" class="animable animator-hidden" style="transform-origin: 251.49px 443.51px;"><ellipse cx="251.49" cy="443.51" rx="79.71" ry="9.42" style="fill: #F28F52; transform-origin: 251.49px 443.51px;" id="el3655we631dm" class="animable"></ellipse><g id="elgnmylsp9aw5"><ellipse cx="251.49" cy="443.51" rx="79.71" ry="9.42" style="fill: rgb(255, 255, 255); opacity: 0.5; transform-origin: 251.49px 443.51px;" class="animable" id="elxa6d9zhu1x"></ellipse></g></g><g id="freepik--Character--inject-16" class="animable" style="transform-origin: 253.795px 349.65px;"><path d="M272.88,303.35c-.11-2.22,0-5.64.09-7.61a29.3,29.3,0,0,0,.4-4.82c0-21.44-8.27-23.24-18.49-23.24s-18.49,3.44-18.49,23.24c0,.52,0,1,.05,1.55h0c.09.86.93,9.08.16,12.18-.82,3.27-7.37,3.93-11.13,11.78s4.42,19.31,31.09,20.78S286,320.86,286,314.81,273.05,306.62,272.88,303.35Z" style="fill: rgb(38, 50, 56); transform-origin: 255.303px 302.488px;" id="eljf01j7alodc" class="animable"></path><path d="M235.74,292.55l.66-.07v-.09Z" style="fill: rgb(38, 50, 56); transform-origin: 236.07px 292.47px;" id="el4r6ilcz4e03" class="animable"></path><path d="M239.5,322s-10.79.59-14.62,2.74-4.55,14.84-4.55,14.84l-11.48,24.64s-30.87-21.53-33.5-23.68-3.35-3.83-6-5.51-3.59-1.67-6.94-1.67-3.83.48-3.59,1.43,1.44,1.2,2.39,1.2a21.63,21.63,0,0,1,3.12.48l-9.58,3.83c-2.39.95-1.91-2.88-4.06-2.88s-1.92,5.51,1.67,8.14,6,1.91,8.85,1.67,9.58-1.19,9.58-1.19,18.42,16.27,25.12,22.25,15.79,11.72,19.14,9.33,16-25.84,16-25.84l8.13-21.53S241.45,325.73,239.5,322Z" style="fill: rgb(255, 255, 255); transform-origin: 194.802px 350.088px;" id="el45afypsa5yt" class="animable"></path><g style="clip-path: url(&quot;#freepik--clip-path--inject-16&quot;); transform-origin: 194.802px 350.088px;" id="el5hbvv3ahxue" class="animable"><g id="el1quepee3l75"><path d="M239.5,322s-10.79.59-14.62,2.74-4.55,14.84-4.55,14.84l-11.48,24.64s-30.87-21.53-33.5-23.68-3.35-3.83-6-5.51-3.59-1.67-6.94-1.67-3.83.48-3.59,1.43,1.44,1.2,2.39,1.2a21.63,21.63,0,0,1,3.12.48l-9.58,3.83c-2.39.95-1.91-2.88-4.06-2.88s-1.92,5.51,1.67,8.14,6,1.91,8.85,1.67,9.58-1.19,9.58-1.19,18.42,16.27,25.12,22.25,15.79,11.72,19.14,9.33,16-25.84,16-25.84l8.13-21.53S241.45,325.73,239.5,322Z" style="opacity: 0.1; transform-origin: 194.802px 350.088px;" class="animable" id="elgqspt9q4y4s"></path></g></g><path d="M239.5,322s-10.79.59-14.62,2.74-4.55,14.84-4.55,14.84l-11.48,24.64s-30.87-21.53-33.5-23.68-3.35-3.83-6-5.51-3.59-1.67-6.94-1.67-3.83.48-3.59,1.43,1.44,1.2,2.39,1.2a21.63,21.63,0,0,1,3.12.48l-9.58,3.83c-2.39.95-1.91-2.88-4.06-2.88s-1.92,5.51,1.67,8.14,6,1.91,8.85,1.67,9.58-1.19,9.58-1.19,18.42,16.27,25.12,22.25,15.79,11.72,19.14,9.33,16-25.84,16-25.84l8.13-21.53S241.45,325.73,239.5,322Z" style="fill: none; stroke: rgb(38, 50, 56); stroke-linecap: round; stroke-miterlimit: 10; transform-origin: 194.802px 350.088px;" id="elgybme1wz8l6" class="animable"></path><path d="M153.05,346.09s-4.66-3.78-2.15-7.48c.62-.92,2,.47,2.4,3s1.66,3.51,2.31,3.69" style="fill: rgb(255, 255, 255); transform-origin: 152.884px 342.208px;" id="elnitp6yquh3" class="animable"></path><g style="clip-path: url(&quot;#freepik--clip-path-2--inject-16&quot;); transform-origin: 152.884px 342.208px;" id="elmsuqkalbao8" class="animable"><g id="elhvemzbw4qrg"><path d="M153.05,346.09s-4.66-3.78-2.15-7.48c.62-.92,2,.47,2.4,3s1.66,3.51,2.31,3.69" style="opacity: 0.1; transform-origin: 152.884px 342.208px;" class="animable" id="elgi6cb6skbo"></path></g></g><path d="M153.05,346.09s-4.66-3.78-2.15-7.48c.62-.92,2,.47,2.4,3s1.66,3.51,2.31,3.69" style="fill: none; stroke: rgb(38, 50, 56); stroke-linecap: round; stroke-miterlimit: 10; transform-origin: 152.884px 342.208px;" id="elq9139b3p2p8" class="animable"></path><path d="M156.53,345.26c-1.11,0-1.05-3-3.14-4.43-1.66-1.17-1.45,1.13-1.06,3a3.89,3.89,0,0,0,3.13,3.07h0a5.4,5.4,0,0,0,2.19.09" style="fill: rgb(255, 255, 255); transform-origin: 154.853px 343.787px;" id="el5khon1yaxus" class="animable"></path><g style="clip-path: url(&quot;#freepik--clip-path-3--inject-16&quot;); transform-origin: 154.853px 343.787px;" id="elham32mgv0uj" class="animable"><g id="elg3zv18i8sa"><path d="M156.53,345.26c-1.11,0-1.05-3-3.14-4.43-1.66-1.17-1.45,1.13-1.06,3a3.89,3.89,0,0,0,3.13,3.07h0a5.4,5.4,0,0,0,2.19.09" style="opacity: 0.1; transform-origin: 154.853px 343.787px;" class="animable" id="elmfsgak9t6si"></path></g></g><path d="M156.53,345.26c-1.11,0-1.05-3-3.14-4.43-1.66-1.17-1.45,1.13-1.06,3a3.89,3.89,0,0,0,3.13,3.07h0a5.4,5.4,0,0,0,2.19.09" style="fill: none; stroke: rgb(38, 50, 56); stroke-linecap: round; stroke-miterlimit: 10; transform-origin: 154.853px 343.787px;" id="elsoc4y69qawh" class="animable"></path><path d="M170.57,340.37s-1.57-1.11-4.62-.09-6.65,5.45-7.48,5.08a3.71,3.71,0,0,1-1.66-2c-.47-.92-1.38-2.25-2-1.18-1.38,2.34,2.38,5,2.38,5s.52.44,3.43.09S170.1,346,170.1,346" style="fill: rgb(255, 255, 255); transform-origin: 162.538px 343.627px;" id="elfazlrh4shyo" class="animable"></path><g style="clip-path: url(&quot;#freepik--clip-path-4--inject-16&quot;); transform-origin: 162.538px 343.627px;" id="elkwonv0f6p4" class="animable"><g id="elda2ry5gdnt5"><path d="M170.57,340.37s-1.57-1.11-4.62-.09-6.65,5.45-7.48,5.08a3.71,3.71,0,0,1-1.66-2c-.47-.92-1.38-2.25-2-1.18-1.38,2.34,2.38,5,2.38,5s.52.44,3.43.09S170.1,346,170.1,346" style="opacity: 0.1; transform-origin: 162.538px 343.627px;" class="animable" id="elfne10z0dddu"></path></g></g><path d="M170.57,340.37s-1.57-1.11-4.62-.09-6.65,5.45-7.48,5.08a3.71,3.71,0,0,1-1.66-2c-.47-.92-1.38-2.25-2-1.18-1.38,2.34,2.38,5,2.38,5s.52.44,3.43.09S170.1,346,170.1,346" style="fill: none; stroke: rgb(38, 50, 56); stroke-linecap: round; stroke-miterlimit: 10; transform-origin: 162.538px 343.627px;" id="el95f58dqt9di" class="animable"></path><line x1="231.23" y1="346.65" x2="227.74" y2="336.66" style="fill: none; stroke: rgb(38, 50, 56); stroke-linecap: round; stroke-miterlimit: 10; transform-origin: 229.485px 341.655px;" id="elfuzqq1xxhg" class="animable"></line><path d="M267.51,321.78s11.37.81,15.2,3,4.55,14.84,4.55,14.84l11.48,24.64s30.87-21.53,33.5-23.68,3.35-3.83,6-5.51,3.59-1.67,6.94-1.67,3.83.48,3.59,1.43-1.44,1.2-2.4,1.2a21.67,21.67,0,0,0-3.11.48l9.57,3.83c2.4.95,1.92-2.88,4.07-2.88s1.92,5.51-1.67,8.14-6,1.91-8.86,1.67-9.57-1.19-9.57-1.19-18.42,16.27-25.12,22.25-15.79,11.72-19.14,9.33-16-25.84-16-25.84l-8.13-21.53S265.57,325.51,267.51,321.78Z" style="fill: rgb(255, 255, 255); transform-origin: 312.555px 349.998px;" id="el6w32mts5shx" class="animable"></path><g style="clip-path: url(&quot;#freepik--clip-path-5--inject-16&quot;); transform-origin: 312.555px 349.998px;" id="el20zfy1prdhkh" class="animable"><g id="elqsfwnj048vj"><path d="M267.51,321.78s11.37.81,15.2,3,4.55,14.84,4.55,14.84l11.48,24.64s30.87-21.53,33.5-23.68,3.35-3.83,6-5.51,3.59-1.67,6.94-1.67,3.83.48,3.59,1.43-1.44,1.2-2.4,1.2a21.67,21.67,0,0,0-3.11.48l9.57,3.83c2.4.95,1.92-2.88,4.07-2.88s1.92,5.51-1.67,8.14-6,1.91-8.86,1.67-9.57-1.19-9.57-1.19-18.42,16.27-25.12,22.25-15.79,11.72-19.14,9.33-16-25.84-16-25.84l-8.13-21.53S265.57,325.51,267.51,321.78Z" style="opacity: 0.1; transform-origin: 312.555px 349.998px;" class="animable" id="el1t4peesb0z9"></path></g></g><path d="M267.51,321.78s11.37.81,15.2,3,4.55,14.84,4.55,14.84l11.48,24.64s30.87-21.53,33.5-23.68,3.35-3.83,6-5.51,3.59-1.67,6.94-1.67,3.83.48,3.59,1.43-1.44,1.2-2.4,1.2a21.67,21.67,0,0,0-3.11.48l9.57,3.83c2.4.95,1.92-2.88,4.07-2.88s1.92,5.51-1.67,8.14-6,1.91-8.86,1.67-9.57-1.19-9.57-1.19-18.42,16.27-25.12,22.25-15.79,11.72-19.14,9.33-16-25.84-16-25.84l-8.13-21.53S265.57,325.51,267.51,321.78Z" style="fill: none; stroke: rgb(38, 50, 56); stroke-linecap: round; stroke-miterlimit: 10; transform-origin: 312.555px 349.998px;" id="el3aujnl2cokc" class="animable"></path><line x1="276.54" y1="344.56" x2="279.32" y2="336.43" style="fill: none; stroke: rgb(38, 50, 56); stroke-linecap: round; stroke-miterlimit: 10; transform-origin: 277.93px 340.495px;" id="elpce7wadrjcb" class="animable"></line><path d="M355.69,344.73s2-5.65,1-6.12-2,.47-2.4,3-1.66,3.51-2.31,3.69" style="fill: rgb(255, 255, 255); transform-origin: 354.475px 341.897px;" id="elk5x0bswm76e" class="animable"></path><g style="clip-path: url(&quot;#freepik--clip-path-6--inject-16&quot;); transform-origin: 354.622px 341.897px;" id="elicbqd0w2uu" class="animable"><g id="eli355pe06i5"><path d="M357.06,343.51s.65-4.43-.37-4.9-2,.47-2.4,3-1.66,3.51-2.31,3.69" style="opacity: 0.1; transform-origin: 354.622px 341.897px;" class="animable" id="ele0dl9gzc2r"></path></g></g><path d="M355.69,344.73s2-5.65,1-6.12-2,.47-2.4,3-1.66,3.51-2.31,3.69" style="fill: none; stroke: rgb(38, 50, 56); stroke-linecap: round; stroke-miterlimit: 10; transform-origin: 354.475px 341.897px;" id="ellkl5a4q3brj" class="animable"></path><path d="M354.17,345.74s2.52-7.13-.4-5.24c-2.15,1.39-1.6,4.76-2.71,4.76" style="fill: rgb(255, 255, 255); transform-origin: 353.12px 342.961px;" id="elq9uwbcq30zc" class="animable"></path><g style="clip-path: url(&quot;#freepik--clip-path-7--inject-16&quot;); transform-origin: 353.209px 343.002px;" id="eltizx7bmo13" class="animable"><g id="el6w65889qgv"><path d="M354.75,345.82s1.94-7.21-1-5.32c-2.15,1.39-1.6,4.76-2.71,4.76" style="opacity: 0.1; transform-origin: 353.209px 343.002px;" class="animable" id="elv5h71a2qs5"></path></g></g><path d="M354.17,345.74s2.52-7.13-.4-5.24c-2.15,1.39-1.6,4.76-2.71,4.76" style="fill: none; stroke: rgb(38, 50, 56); stroke-linecap: round; stroke-miterlimit: 10; transform-origin: 353.12px 342.961px;" id="ela76b1igoxp" class="animable"></path><path d="M337,340.37s1.57-1.11,4.62-.09,6.65,5.45,7.48,5.08a3.71,3.71,0,0,0,1.66-2c.46-.92,1.3-1.47,1.85-.37s-1.11,4.35-1.11,4.35-1,.71-3.45.14a59,59,0,0,0-8.41-1.39" style="fill: rgb(255, 255, 255); transform-origin: 344.861px 343.775px;" id="elims9wj9q0zh" class="animable"></path><g style="clip-path: url(&quot;#freepik--clip-path-8--inject-16&quot;); transform-origin: 344.861px 343.775px;" id="elih72sr825b" class="animable"><g id="eldn9edcfft7k"><path d="M337,340.37s1.57-1.11,4.62-.09,6.65,5.45,7.48,5.08a3.71,3.71,0,0,0,1.66-2c.46-.92,1.3-1.47,1.85-.37s-1.11,4.35-1.11,4.35-1,.71-3.45.14-9.07-2.33-10.58-2.33" style="opacity: 0.1; transform-origin: 344.861px 343.775px;" class="animable" id="elx20syf08cj"></path></g></g><path d="M337,340.37s1.57-1.11,4.62-.09,6.65,5.45,7.48,5.08a3.71,3.71,0,0,0,1.66-2c.46-.92,1.3-1.47,1.85-.37s-1.11,4.35-1.11,4.35-1,.71-3.45.14a59,59,0,0,0-8.41-1.39" style="fill: none; stroke: rgb(38, 50, 56); stroke-linecap: round; stroke-miterlimit: 10; transform-origin: 344.861px 343.775px;" id="elbog8q2b6j0h" class="animable"></path><path d="M249.32,307.44s-.49,5.57-2.78,9.33-7,5.23-7,5.23l-9.32,28.64L235.09,370S226.41,383.2,223,391.22s.69,17.09,4.29,20.85,8.38,8.86,20.58,8.38c17-.67,29,.88,34.45-5.5s6-18.43-.48-27.52c-3.92-5.53-9.27-17.48-9.27-17.48L277.87,350,269.75,322s-4.89-.28-7.83-3.88-2.29-10.15-2.29-10.15Z" style="fill: rgb(255, 255, 255); transform-origin: 254.138px 363.961px;" id="el0u0didyr5bla" class="animable"></path><g style="clip-path: url(&quot;#freepik--clip-path-9--inject-16&quot;); transform-origin: 254.138px 363.961px;" id="eljbhkzmrbpj9" class="animable"><g id="elhorrkpe303l"><path d="M249.32,307.44s-.49,5.57-2.78,9.33-7,5.23-7,5.23l-9.32,28.64L235.09,370S226.41,383.2,223,391.22s.69,17.09,4.29,20.85,8.38,8.86,20.58,8.38c17-.67,29,.88,34.45-5.5s6-18.43-.48-27.52c-3.92-5.53-9.27-17.48-9.27-17.48L277.87,350,269.75,322s-4.89-.28-7.83-3.88-2.29-10.15-2.29-10.15Z" style="opacity: 0.1; transform-origin: 254.138px 363.961px;" class="animable" id="eln1o02b5fw2c"></path></g></g><path d="M249.32,307.44s-.49,5.57-2.78,9.33-7,5.23-7,5.23l-9.32,28.64L235.09,370S226.41,383.2,223,391.22s.69,17.09,4.29,20.85,8.38,8.86,20.58,8.38c17-.67,29,.88,34.45-5.5s6-18.43-.48-27.52c-3.92-5.53-9.27-17.48-9.27-17.48L277.87,350,269.75,322s-4.89-.28-7.83-3.88-2.29-10.15-2.29-10.15Z" style="fill: none; stroke: rgb(38, 50, 56); stroke-linecap: round; stroke-miterlimit: 10; transform-origin: 254.138px 363.961px;" id="el11qs5tuue5x" class="animable"></path><path d="M277.87,350,269.75,322a13,13,0,0,1-2.41-.4c.94,6.51-.18,9.77-.18,9.77a9,9,0,0,1-4.59,6.87c-4.41,2.62-12.76,3.11-18-1.14-4-3.21-3.25-12-2.66-16.13A14.92,14.92,0,0,1,239.5,322l-9.32,28.64L235.09,370h37.46Z" style="fill: rgb(38, 50, 56); stroke: rgb(38, 50, 56); stroke-linecap: round; stroke-miterlimit: 10; transform-origin: 254.025px 345.485px;" id="elarjjq3ixd15" class="animable"></path><path d="M241.39,294.45s-3-3.92-4.06-1,4.21,5.51,4.21,5.51Z" style="fill: rgb(255, 255, 255); transform-origin: 239.365px 295.664px;" id="elcetyk9cbwmf" class="animable"></path><g style="clip-path: url(&quot;#freepik--clip-path-10--inject-16&quot;); transform-origin: 239.365px 295.664px;" id="el392zjodw3ci" class="animable"><g id="elf5tk2jqmw1i"><path d="M241.39,294.45s-3-3.92-4.06-1,4.21,5.51,4.21,5.51Z" style="opacity: 0.1; transform-origin: 239.365px 295.664px;" class="animable" id="el5dz5fdq9bnb"></path></g></g><path d="M241.39,294.45s-3-3.92-4.06-1,4.21,5.51,4.21,5.51Z" style="fill: none; stroke: rgb(38, 50, 56); stroke-linecap: round; stroke-miterlimit: 10; transform-origin: 239.365px 295.664px;" id="elfj04bpyhcyj" class="animable"></path><path d="M267.92,294.45s3.05-3.92,4.06-1-4.2,5.51-4.2,5.51Z" style="fill: rgb(255, 255, 255); transform-origin: 269.945px 295.664px;" id="elx4ynkn412s" class="animable"></path><g style="clip-path: url(&quot;#freepik--clip-path-11--inject-16&quot;); transform-origin: 269.945px 295.664px;" id="elxj6funzc1ha" class="animable"><g id="elockatw56m7"><path d="M267.92,294.45s3.05-3.92,4.06-1-4.2,5.51-4.2,5.51Z" style="opacity: 0.1; transform-origin: 269.945px 295.664px;" class="animable" id="el2pbtdv0vq4q"></path></g></g><path d="M267.92,294.45s3.05-3.92,4.06-1-4.2,5.51-4.2,5.51Z" style="fill: none; stroke: rgb(38, 50, 56); stroke-linecap: round; stroke-miterlimit: 10; transform-origin: 269.945px 295.664px;" id="elnfzf96gb5xg" class="animable"></path><path d="M254.79,311.35h0a13.16,13.16,0,0,1-13.16-13.16V278a4.9,4.9,0,0,1,4.9-4.91H263A4.91,4.91,0,0,1,268,278v20.22A13.17,13.17,0,0,1,254.79,311.35Z" style="fill: rgb(255, 255, 255); transform-origin: 254.815px 292.22px;" id="elml40a4w9wpk" class="animable"></path><g style="clip-path: url(&quot;#freepik--clip-path-12--inject-16&quot;); transform-origin: 254.815px 292.22px;" id="elhq07a94nf0c" class="animable"><g id="el7rqoos8oz9i"><path d="M254.79,311.35h0a13.16,13.16,0,0,1-13.16-13.16V278a4.9,4.9,0,0,1,4.9-4.91H263A4.91,4.91,0,0,1,268,278v20.22A13.17,13.17,0,0,1,254.79,311.35Z" style="opacity: 0.1; transform-origin: 254.815px 292.22px;" class="animable" id="elw11m07qjms"></path></g></g><path d="M254.79,311.35h0a13.16,13.16,0,0,1-13.16-13.16V278a4.9,4.9,0,0,1,4.9-4.91H263A4.91,4.91,0,0,1,268,278v20.22A13.17,13.17,0,0,1,254.79,311.35Z" style="fill: none; stroke: rgb(38, 50, 56); stroke-linecap: round; stroke-miterlimit: 10; transform-origin: 254.815px 292.22px;" id="eluw8i3o8885s" class="animable"></path><path d="M245,289.23a5.51,5.51,0,0,0,6.09,0" style="fill: none; stroke: rgb(38, 50, 56); stroke-linecap: round; stroke-miterlimit: 10; transform-origin: 248.045px 289.689px;" id="elhloes1t32lv" class="animable"></path><path d="M258.64,289.23a5.49,5.49,0,0,0,6.08,0" style="fill: none; stroke: rgb(38, 50, 56); stroke-linecap: round; stroke-miterlimit: 10; transform-origin: 261.68px 289.689px;" id="elf3k7weql7sd" class="animable"></path><polyline points="256.03 287.06 256.9 295.46 253.42 295.46" style="fill: none; stroke: rgb(38, 50, 56); stroke-linecap: round; stroke-miterlimit: 10; transform-origin: 255.16px 291.26px;" id="el53f5r1h2lud" class="animable"></polyline><line x1="253.56" y1="300.24" x2="257.04" y2="300.24" style="fill: none; stroke: rgb(38, 50, 56); stroke-linecap: round; stroke-miterlimit: 10; transform-origin: 255.3px 300.24px;" id="elx7gg5shsl7b" class="animable"></line><path d="M254.92,273.06h-8.39a4.9,4.9,0,0,0-4.9,4.91v10C247,283.3,253.25,275.27,254.92,273.06Z" style="fill: rgb(38, 50, 56); stroke: rgb(38, 50, 56); stroke-miterlimit: 10; transform-origin: 248.275px 280.515px;" id="ele5xm4auxmmh" class="animable"></path><path d="M268,288.35V278a4.91,4.91,0,0,0-4.91-4.91h-7.51C257.31,278.57,264,285,268,288.35Z" style="fill: rgb(38, 50, 56); stroke: rgb(38, 50, 56); stroke-miterlimit: 10; transform-origin: 261.79px 280.72px;" id="elodjfrr22kfi" class="animable"></path><path d="M244.43,285.32S246,282.56,251,283" style="fill: none; stroke: rgb(38, 50, 56); stroke-linecap: round; stroke-miterlimit: 10; stroke-width: 2px; transform-origin: 247.715px 284.136px;" id="elr3jsxajbi2d" class="animable"></path><path d="M257.62,283a6.17,6.17,0,0,1,7.54,2.32" style="fill: none; stroke: rgb(38, 50, 56); stroke-linecap: round; stroke-miterlimit: 10; stroke-width: 2px; transform-origin: 261.39px 283.922px;" id="elz6kli3yssc" class="animable"></path><path d="M223,391.22c-3.44,8,.69,17.09,4.29,20.85s8.38,8.86,20.58,8.38c17-.67,29,.88,34.45-5.5s6-18.43-.48-27.52a65.56,65.56,0,0,1-4-6.7H228.45A104.12,104.12,0,0,0,223,391.22Z" style="fill: rgb(38, 50, 56); stroke: rgb(38, 50, 56); stroke-linecap: round; stroke-miterlimit: 10; transform-origin: 254.132px 400.606px;" id="elv713cghner" class="animable"></path><path d="M249.76,407.45c-8.61-8.93-24.24-13.4-31.9-14.68s-21.69-9-21.69-9-8.3-.28-7.66,9.61,24.56,21.38,33.82,26.48a29.88,29.88,0,0,0,27.43,1" style="fill: rgb(38, 50, 56); stroke: rgb(38, 50, 56); stroke-linecap: round; stroke-miterlimit: 10; transform-origin: 219.117px 403.743px;" id="elb7ywkpgt2p" class="animable"></path><path d="M255.15,407.77c8.61-8.93,24.24-13.4,31.9-14.68s19.57-7.8,19.57-7.8,10.42-1.45,9.78,8.44-24.56,21.37-33.82,26.48a29.91,29.91,0,0,1-27.43,1" style="fill: rgb(38, 50, 56); stroke: rgb(38, 50, 56); stroke-linecap: round; stroke-miterlimit: 10; transform-origin: 285.789px 404.639px;" id="el15eq1rpqj73" class="animable"></path><path d="M291.09,423.38s1.18-.78.59-2.75-3.74-.4-5.91-.4-10.44-.79-14.37-1.18c-3.37-.34-8.88-.24-10.41-.21a12.37,12.37,0,0,1-1.43,7l.77.08c6.7.66,9.61.79,11.66,1.22,3.74.79,7.87,3.94,12,3.75s7.88-3,7.88-4.73A4.66,4.66,0,0,0,291.09,423.38Z" style="fill: rgb(255, 255, 255); transform-origin: 275.717px 424.851px;" id="elz81jhd2xfk" class="animable"></path><g style="clip-path: url(&quot;#freepik--clip-path-13--inject-16&quot;); transform-origin: 275.717px 424.851px;" id="el0115wc9ishh4h" class="animable"><g id="elxjj6p926e0e"><path d="M291.09,423.38s1.18-.78.59-2.75-3.74-.4-5.91-.4-10.44-.79-14.37-1.18c-3.37-.34-8.88-.24-10.41-.21a12.37,12.37,0,0,1-1.43,7l.77.08c6.7.66,9.61.79,11.66,1.22,3.74.79,7.87,3.94,12,3.75s7.88-3,7.88-4.73A4.66,4.66,0,0,0,291.09,423.38Z" style="opacity: 0.1; transform-origin: 275.717px 424.851px;" class="animable" id="eli3h7ddhlzb"></path></g></g><path d="M291.09,423.38s1.18-.78.59-2.75-3.74-.4-5.91-.4-10.44-.79-14.37-1.18c-3.37-.34-8.88-.24-10.41-.21a12.37,12.37,0,0,1-1.43,7l.77.08c6.7.66,9.61.79,11.66,1.22,3.74.79,7.87,3.94,12,3.75s7.88-3,7.88-4.73A4.66,4.66,0,0,0,291.09,423.38Z" style="fill: none; stroke: rgb(38, 50, 56); stroke-linecap: round; stroke-miterlimit: 10; transform-origin: 275.717px 424.851px;" id="elb94oc75lkf7" class="animable"></path><path d="M260.75,418.85h0Z" style="fill: rgb(255, 255, 255); stroke: rgb(38, 50, 56); stroke-linecap: round; stroke-miterlimit: 10; transform-origin: 260.75px 418.85px;" id="elm5tema55amg" class="animable"></path><path d="M260.56,418.85h0Z" style="fill: rgb(255, 255, 255); stroke: rgb(38, 50, 56); stroke-linecap: round; stroke-miterlimit: 10; transform-origin: 260.56px 418.85px;" id="elqhlueibwvib" class="animable"></path><path d="M291.09,423.38a10.4,10.4,0,0,1-3.47,0" style="fill: none; stroke: rgb(38, 50, 56); stroke-linecap: round; stroke-miterlimit: 10; transform-origin: 289.355px 423.453px;" id="el30p8qdoed54" class="animable"></path><path d="M291.88,426.14a30,30,0,0,1-4.59,0" style="fill: none; stroke: rgb(38, 50, 56); stroke-linecap: round; stroke-miterlimit: 10; transform-origin: 289.585px 426.184px;" id="el86kcaehkxeq" class="animable"></path><path d="M286.52,427.9a5.27,5.27,0,0,0,3.54.58" style="fill: none; stroke: rgb(38, 50, 56); stroke-linecap: round; stroke-miterlimit: 10; transform-origin: 288.29px 428.235px;" id="el41nyd35pvv7" class="animable"></path><path d="M285,429.19a5.73,5.73,0,0,0,3.28.51" style="fill: none; stroke: rgb(38, 50, 56); stroke-linecap: round; stroke-miterlimit: 10; transform-origin: 286.64px 429.473px;" id="ele3lmmk1yjl" class="animable"></path><path d="M259.56,425.82a12.37,12.37,0,0,0,1.43-7h-.43S245.4,415.7,232.8,408s-28.56-19.49-36.63-24.22-15.76,2.36-15,9.85,6.89,11.42,17.92,16,31.12,11.62,41.75,13.78C246.35,424.5,253.45,425.25,259.56,425.82Z" style="fill: rgb(38, 50, 56); stroke: rgb(38, 50, 56); stroke-linecap: round; stroke-miterlimit: 10; transform-origin: 221.08px 404.036px;" id="eln8px13l2pm8" class="animable"></path><path d="M241.85,427.9a12.37,12.37,0,0,1-1.42-7h.42s15.16-3.15,27.77-10.83,28.55-19.5,36.63-24.23,15.75,2.37,15,9.85-6.89,11.42-17.92,15.95-31.11,11.62-41.75,13.79C255.06,426.57,248,427.32,241.85,427.9Z" style="fill: rgb(38, 50, 56); stroke: rgb(38, 50, 56); stroke-linecap: round; stroke-miterlimit: 10; transform-origin: 280.339px 406.107px;" id="elo11tcpjes29" class="animable"></path><path d="M240.43,420.92s-14.59.57-19.22.25-8.14-2.56-9.41-1.44.32,2.87.32,2.87-.48,2.71.8,4.15,3,2.71,8.45,4.31,11-.66,14-1.46l6.45-1.7S240.34,425.61,240.43,420.92Z" style="fill: rgb(255, 255, 255); transform-origin: 226.564px 425.519px;" id="elq30eq0akrb" class="animable"></path><g style="clip-path: url(&quot;#freepik--clip-path-14--inject-16&quot;); transform-origin: 226.564px 425.519px;" id="elxsjpu95p1dl" class="animable"><g id="eluu6ri9v7nna"><path d="M240.43,420.92s-14.59.57-19.22.25-8.14-2.56-9.41-1.44.32,2.87.32,2.87-.48,2.71.8,4.15,3,2.71,8.45,4.31,11-.66,14-1.46l6.45-1.7S240.34,425.61,240.43,420.92Z" style="opacity: 0.1; transform-origin: 226.564px 425.519px;" class="animable" id="elxs6483w6wam"></path></g></g><path d="M240.43,420.92s-14.59.57-19.22.25-8.14-2.56-9.41-1.44.32,2.87.32,2.87-.48,2.71.8,4.15,3,2.71,8.45,4.31,11-.66,14-1.46l6.45-1.7S240.34,425.61,240.43,420.92Z" style="fill: none; stroke: rgb(38, 50, 56); stroke-linecap: round; stroke-miterlimit: 10; transform-origin: 226.564px 425.519px;" id="elra2zbl6koyl" class="animable"></path><path d="M212.12,422.6a2,2,0,0,1,2.23,0,6.14,6.14,0,0,0,2.55,1" style="fill: none; stroke: rgb(38, 50, 56); stroke-linecap: round; stroke-miterlimit: 10; transform-origin: 214.51px 422.93px;" id="elkfbecbhmpg" class="animable"></path><path d="M212.3,425.7a2.1,2.1,0,0,1,1.91-.48,8.9,8.9,0,0,0,2.34.34" style="fill: none; stroke: rgb(38, 50, 56); stroke-linecap: round; stroke-miterlimit: 10; transform-origin: 214.425px 425.429px;" id="elcmjsmvmwxgh" class="animable"></path><path d="M214.74,428.23s.28-.81.81-.81,2.72.29,3.29.24" style="fill: none; stroke: rgb(38, 50, 56); stroke-linecap: round; stroke-miterlimit: 10; transform-origin: 216.79px 427.825px;" id="elc0wl4277o7" class="animable"></path><path d="M217.84,429.81s.53-.72,1-.76a16.1,16.1,0,0,1,1.82-.15" style="fill: none; stroke: rgb(38, 50, 56); stroke-linecap: round; stroke-miterlimit: 10; transform-origin: 219.25px 429.355px;" id="ela63plh1hhk" class="animable"></path><path d="M247.85,420.45s30.52-15,42.85-23.53" style="fill: none; stroke: rgb(255, 255, 255); stroke-linecap: round; stroke-miterlimit: 10; transform-origin: 269.275px 408.685px;" id="elewc4gwe17uf" class="animable"></path><path d="M213.4,395s26.08,20.39,40.78,21.81" style="fill: none; stroke: rgb(255, 255, 255); stroke-linecap: round; stroke-miterlimit: 10; transform-origin: 233.79px 405.905px;" id="elwc5sn25v9na" class="animable"></path><path d="M225.61,394.45s19.84,6.15,25,14.09" style="fill: none; stroke: rgb(255, 255, 255); stroke-linecap: round; stroke-miterlimit: 10; transform-origin: 238.11px 401.495px;" id="elshs4o2xqud" class="animable"></path><path d="M257.56,405.76s12.3-8.73,25-11.31" style="fill: none; stroke: rgb(255, 255, 255); stroke-linecap: round; stroke-miterlimit: 10; transform-origin: 270.06px 400.105px;" id="elkhnezrvyu3e" class="animable"></path></g><defs><clipPath id="freepik--clip-path--inject-16"><path d="M239.5,322s-10.79.59-14.62,2.74-4.55,14.84-4.55,14.84l-11.48,24.64s-30.87-21.53-33.5-23.68-3.35-3.83-6-5.51-3.59-1.67-6.94-1.67-3.83.48-3.59,1.43,1.44,1.2,2.39,1.2a21.63,21.63,0,0,1,3.12.48l-9.58,3.83c-2.39.95-1.91-2.88-4.06-2.88s-1.92,5.51,1.67,8.14,6,1.91,8.85,1.67,9.58-1.19,9.58-1.19,18.42,16.27,25.12,22.25,15.79,11.72,19.14,9.33,16-25.84,16-25.84l8.13-21.53S241.45,325.73,239.5,322Z" style="fill:#fff;stroke:#263238;stroke-linecap:round;stroke-miterlimit:10"></path></clipPath><clipPath id="freepik--clip-path-2--inject-16"><path d="M153.05,346.09s-4.66-3.78-2.15-7.48c.62-.92,2,.47,2.4,3s1.66,3.51,2.31,3.69" style="fill:#fff;stroke:#263238;stroke-linecap:round;stroke-miterlimit:10"></path></clipPath><clipPath id="freepik--clip-path-3--inject-16"><path d="M156.53,345.26c-1.11,0-1.05-3-3.14-4.43-1.66-1.17-1.45,1.13-1.06,3a3.89,3.89,0,0,0,3.13,3.07h0a5.4,5.4,0,0,0,2.19.09" style="fill:#fff;stroke:#263238;stroke-linecap:round;stroke-miterlimit:10"></path></clipPath><clipPath id="freepik--clip-path-4--inject-16"><path d="M170.57,340.37s-1.57-1.11-4.62-.09-6.65,5.45-7.48,5.08a3.71,3.71,0,0,1-1.66-2c-.47-.92-1.38-2.25-2-1.18-1.38,2.34,2.38,5,2.38,5s.52.44,3.43.09S170.1,346,170.1,346" style="fill:#fff;stroke:#263238;stroke-linecap:round;stroke-miterlimit:10"></path></clipPath><clipPath id="freepik--clip-path-5--inject-16"><path d="M267.51,321.78s11.37.81,15.2,3,4.55,14.84,4.55,14.84l11.48,24.64s30.87-21.53,33.5-23.68,3.35-3.83,6-5.51,3.59-1.67,6.94-1.67,3.83.48,3.59,1.43-1.44,1.2-2.4,1.2a21.67,21.67,0,0,0-3.11.48l9.57,3.83c2.4.95,1.92-2.88,4.07-2.88s1.92,5.51-1.67,8.14-6,1.91-8.86,1.67-9.57-1.19-9.57-1.19-18.42,16.27-25.12,22.25-15.79,11.72-19.14,9.33-16-25.84-16-25.84l-8.13-21.53S265.57,325.51,267.51,321.78Z" style="fill:#fff;stroke:#263238;stroke-linecap:round;stroke-miterlimit:10"></path></clipPath><clipPath id="freepik--clip-path-6--inject-16"><path d="M355.69,344.73s2-5.65,1-6.12-2,.47-2.4,3-1.66,3.51-2.31,3.69" style="fill:#fff;stroke:#263238;stroke-linecap:round;stroke-miterlimit:10"></path></clipPath><clipPath id="freepik--clip-path-7--inject-16"><path d="M354.17,345.74s2.52-7.13-.4-5.24c-2.15,1.39-1.6,4.76-2.71,4.76" style="fill:#fff;stroke:#263238;stroke-linecap:round;stroke-miterlimit:10"></path></clipPath><clipPath id="freepik--clip-path-8--inject-16"><path d="M337,340.37s1.57-1.11,4.62-.09,6.65,5.45,7.48,5.08a3.71,3.71,0,0,0,1.66-2c.46-.92,1.3-1.47,1.85-.37s-1.11,4.35-1.11,4.35-1,.71-3.45.14a59,59,0,0,0-8.41-1.39" style="fill:#fff;stroke:#263238;stroke-linecap:round;stroke-miterlimit:10"></path></clipPath><clipPath id="freepik--clip-path-9--inject-16"><path d="M249.32,307.44s-.49,5.57-2.78,9.33-7,5.23-7,5.23l-9.32,28.64L235.09,370S226.41,383.2,223,391.22s.69,17.09,4.29,20.85,8.38,8.86,20.58,8.38c17-.67,29,.88,34.45-5.5s6-18.43-.48-27.52c-3.92-5.53-9.27-17.48-9.27-17.48L277.87,350,269.75,322s-4.89-.28-7.83-3.88-2.29-10.15-2.29-10.15Z" style="fill:#fff;stroke:#263238;stroke-linecap:round;stroke-miterlimit:10"></path></clipPath><clipPath id="freepik--clip-path-10--inject-16"><path d="M241.39,294.45s-3-3.92-4.06-1,4.21,5.51,4.21,5.51Z" style="fill:#fff;stroke:#263238;stroke-linecap:round;stroke-miterlimit:10"></path></clipPath><clipPath id="freepik--clip-path-11--inject-16"><path d="M267.92,294.45s3.05-3.92,4.06-1-4.2,5.51-4.2,5.51Z" style="fill:#fff;stroke:#263238;stroke-linecap:round;stroke-miterlimit:10"></path></clipPath><clipPath id="freepik--clip-path-12--inject-16"><path d="M254.79,311.35h0a13.16,13.16,0,0,1-13.16-13.16V278a4.9,4.9,0,0,1,4.9-4.91H263A4.91,4.91,0,0,1,268,278v20.22A13.17,13.17,0,0,1,254.79,311.35Z" style="fill:#fff;stroke:#263238;stroke-linecap:round;stroke-miterlimit:10"></path></clipPath><clipPath id="freepik--clip-path-13--inject-16"><path d="M291.09,423.38s1.18-.78.59-2.75-3.74-.4-5.91-.4-10.44-.79-14.37-1.18c-3.37-.34-8.88-.24-10.41-.21a12.37,12.37,0,0,1-1.43,7l.77.08c6.7.66,9.61.79,11.66,1.22,3.74.79,7.87,3.94,12,3.75s7.88-3,7.88-4.73A4.66,4.66,0,0,0,291.09,423.38Z" style="fill:#fff;stroke:#263238;stroke-linecap:round;stroke-miterlimit:10"></path></clipPath><clipPath id="freepik--clip-path-14--inject-16"><path d="M240.43,420.92s-14.59.57-19.22.25-8.14-2.56-9.41-1.44.32,2.87.32,2.87-.48,2.71.8,4.15,3,2.71,8.45,4.31,11-.66,14-1.46l6.45-1.7S240.34,425.61,240.43,420.92Z" style="fill:#fff;stroke:#263238;stroke-linecap:round;stroke-miterlimit:10"></path></clipPath></defs><defs>     <filter id="active" height="200%">         <feMorphology in="SourceAlpha" result="DILATED" operator="dilate" radius="2"></feMorphology>                <feFlood flood-color="#32DFEC" flood-opacity="1" result="PINK"></feFlood>        <feComposite in="PINK" in2="DILATED" operator="in" result="OUTLINE"></feComposite>        <feMerge>            <feMergeNode in="OUTLINE"></feMergeNode>            <feMergeNode in="SourceGraphic"></feMergeNode>        </feMerge>    </filter>    <filter id="hover" height="200%">        <feMorphology in="SourceAlpha" result="DILATED" operator="dilate" radius="2"></feMorphology>                <feFlood flood-color="#ff0000" flood-opacity="0.5" result="PINK"></feFlood>        <feComposite in="PINK" in2="DILATED" operator="in" result="OUTLINE"></feComposite>        <feMerge>            <feMergeNode in="OUTLINE"></feMergeNode>            <feMergeNode in="SourceGraphic"></feMergeNode>        </feMerge>            <feColorMatrix type="matrix" values="0   0   0   0   0                0   1   0   0   0                0   0   0   0   0                0   0   0   1   0 "></feColorMatrix>    </filter></defs></svg>