<svg xmlns="http://www.w3.org/2000/svg" width="192" height="192" fill="none" viewBox="0 0 192 192"><g stroke-linecap="round" stroke-linejoin="round" stroke-miterlimit="1.5" clip-path="url(#44uT8KnLyVa)"><path fill="#f5e4e2" fill-rule="evenodd" stroke="#f5e4e2" d="M101.962 20.587c-4.096-.496-12.715-.281-14.135-.13C22.208 27.494-.848 111.193 50.5 152.747c15.394 12.459 36.47 17.59 55.664 14.737 35.774-5.315 67.918-36.251 62.901-80.147-5.941-51.98-45.845-64.175-67.103-66.75" clip-rule="evenodd"/><path fill="#f28f52" fill-rule="evenodd" stroke="#17171c" stroke-width="3.0046" d="M62.986 97.8c.476.826 23.057 40.428 24.189 41.561.132.132.743 1.444 1.159 1.029.758-.759 5.147-14.155 6.69-18.399 5.679-15.617 32.168-65.251 32.168-65.493 0-.008-15.716-5.773-16.084-5.404-1.165 1.165-4.437 8.821-5.275 10.422-5.459 10.42-20.285 46.791-21.23 47.736-.387.387-10.491-18.08-11.967-19.558-.561-.56-8.658 7.094-9.65 8.107" clip-rule="evenodd"/><path stroke="#17171c" stroke-width="2.0002" d="M133.659 64.24c-4.383 8.662-14.931 32.084-17.54 36.81m-54.572 11.264c2.042 3.417 14.744 25.261 16.752 28.405m35.149-34.076c-1.698 3.655-6.671 15.166-7.77 17.383"/><path stroke="#17171c" stroke-width="2" d="M156.127 109.114c1.312-6.188 1.667-12.859.858-19.935-4.934-43.171-38.076-53.3-55.732-55.438-3.402-.412-10.56-.233-11.74-.107-54.5 5.843-73.648 75.358-31.001 109.871 12.785 10.347 30.289 14.609 46.231 12.239m8.166-2.31c15.709-4.248 29.862-14.475 38.046-29.013M52.228 20.215c-17.93 9.65-29.34 27.558-33.836 35.407m157.31 78.137c-5.393 11.344-14.063 22.928-24.532 30.207"/></g><defs><clipPath id="44uT8KnLyVa"><path fill="#fff" d="M0 0h192v192H0z"/></clipPath></defs></svg>