<svg xmlns="http://www.w3.org/2000/svg" width="192" height="192" fill="none" viewBox="0 0 192 192"><g clip-path="url(#MA9TtelapNa)"><path fill="#faa709" d="M51.801 80.864c-.283.349-45.074 54.968-48.566 58.845-1.07 1.771 25.67 18.806 25.52 19.033-.07.105-20.91 13.892-5.69 25.402 17.922 13.551 21.845-12.496 21.845-12.496s24.907 14.604 28.155 15.196c2.24.408 15.258-22.225 15.06-22.226-10.545-.032-25.335-11.462-17.143-23.351 9.39-13.625 22.267-2.491 27.401 7.872.056.115 16.498-22.968 17.016-24.905.295-1.097-22.413-14.614-21.507-15.601 14.987-16.347 5.63-25.645 1.585-27.448-3.81-1.698-14.92-3.822-21.278 14.297-.065.184-22.378-14.642-22.398-14.618"/><path stroke="#17171c" stroke-linecap="round" stroke-linejoin="round" stroke-width="2.998" d="M51.801 80.864c-.283.349-45.074 54.968-48.566 58.845-1.07 1.771 25.67 18.806 25.52 19.033-.07.105-20.91 13.892-5.69 25.402 17.922 13.551 21.845-12.496 21.845-12.496s24.907 14.604 28.155 15.196c2.24.408 15.258-22.225 15.06-22.226-10.545-.032-25.335-11.462-17.143-23.351 9.39-13.625 22.267-2.491 27.401 7.872.056.115 16.498-22.968 17.016-24.905.295-1.097-22.413-14.614-21.507-15.601 14.987-16.347 5.63-25.645 1.585-27.448-3.81-1.698-14.92-3.822-21.278 14.297-.065.184-22.378-14.642-22.398-14.618"/><path fill="#198f67" stroke="#198f67" stroke-linecap="round" stroke-linejoin="round" d="M185.426 22.331c12.729 14.794-10.849 22.15-10.836 22.17 5.526 8.547 7.515 10.486 14.478 20.527.089.127.133.503-.133.708-5.402 4.16-61.983 46.084-62.275 45.746-.94-1.092-16.064-21.398-14.874-22.017 19.674-10.235 14.061-22.172 10.877-25.25-2.999-2.899-12.712-8.693-24.884 6.158-.124.15-16.043-21.356-16.048-21.398-.006-.038 17.64-11.808 23.359-15.491.928-.598-22.952-15.112-4.465-26.856 20.225-12.847 21.401 17.085 23.242 15.955 8.28-5.076 21.508-14.767 22.224-13.783 1.979 2.718 9.917 12.398 15.651 19.888 1.118 1.459 10.271-21.949 23.684-6.357"/><path stroke="#17171c" stroke-linecap="round" stroke-linejoin="round" stroke-width="2.001" d="M49.775 182.445c-.462 2.527-1.165 4.653-2.05 6.435"/><path stroke="#17171c" stroke-linecap="round" stroke-linejoin="round" stroke-width="2.001" d="M49.774 182.445c3.455 2.424 6.487 4.683 9.293 6.711"/><path stroke="#17171c" stroke-linecap="round" stroke-linejoin="round" stroke-width="2.002" d="M69.073 173.626c-1.651-1.119-13.216-8.974-14.766-9.825"/><path stroke="#17171c" stroke-linecap="round" stroke-linejoin="round" stroke-width="1.998" d="M49.177 100c-6.679 8.517-15.195 18.385-20.697 25.63m-3.322 4.151c-3.21 4.146-4.482 5.744-7.06 8.831"/><path stroke="#17171c" stroke-linecap="round" stroke-linejoin="round" stroke-width="2.002" d="M173.147 66.515c-.801.583-23.049 16.924-28.975 21.32m-5.015 3.213c-2.684 2.07-6.523 4.583-8.462 6.02m21.294-64.429c-2.345-3.401-8.163-12.284-8.639-12.01-2.655 1.523-13.62 8.626-13.417 8.519m-41.165.098c-7.129-9.242-5.974-18.85-.126-24.76"/></g><defs><clipPath id="MA9TtelapNa"><path fill="#fff" d="M0 0h192v192H0z"/></clipPath></defs></svg>