<svg xmlns="http://www.w3.org/2000/svg" width="192" height="192" fill="none" viewBox="0 0 192 192"><g clip-path="url(#-5uSM0DmBVa)"><g stroke-linecap="round" stroke-linejoin="round" stroke-miterlimit="1.5" clip-path="url(#RvX2HNLr6Mb)"><path fill="#f28f52" fill-rule="evenodd" stroke="#f28f52" stroke-width=".9958" d="M167.469 57.329c-.014-.02 23.293-8.195 10.056-22.536-13.95-15.114-22.279 8.6-23.448 7.18-5.993-7.284-14.264-16.682-16.336-19.329-.75-.96-13.632 9.188-21.729 14.55-1.802 1.194-4.021-28.679-23.785-15.133-18.066 12.382 6.417 26.255 5.4 26.683-5.637 2.372-23.362 16.741-22.805 16.298.025-.02 16.667 20.978 16.785 20.824 11.646-15.267 21.556-9.815 24.655-7.023 3.289 2.965 9.316 14.699-9.989 25.615-1.167.659 16.252 20.531 15.633 21.484-1.091 1.681 61.107-48.124 61.03-48.227-7.539-10.123-9.572-11.931-15.467-20.387" clip-rule="evenodd"/><path fill="#faa709" fill-rule="evenodd" stroke="#17171c" stroke-width="2.998" d="M10.45 105.999c4.518-2.607 62.392-39.378 64.372-40.957.025-.02 16.667 20.978 16.785 20.824 11.646-15.267 21.556-9.815 24.655-7.023 3.289 2.965 9.316 14.699-9.989 25.615-1.167.659 16.252 20.531 15.633 21.484-1.091 1.681-23.86 18.554-23.879 18.427-1.68-11.443-10.487-26.01-23.627-15.954-11.466 8.775-.932 24.218 9.087 27.506.188.062-19.186 17.564-21.19 16.484-2.906-1.567-22.081-23.152-22.081-23.152s-11.78 23.561-24.638 5.134c-10.919-15.65 13.162-22.322 13.261-22.4.211-.169-19.955-24.634-18.39-25.988" clip-rule="evenodd"/><path stroke="#17171c" stroke-width="2.0007" d="M12.321 163.499c2.439 4.265 19.313 15.832 29.184-2.475"/><path stroke="#17171c" stroke-width="2.0022" d="M51.578 144.693c1.211 1.289 9.782 12.333 11.006 13.907m100.078-46.698c-5.399 4.071-53.093 38.429-59.744 43.375m30.763-50.193c-2.61 2.162-6.359 4.808-8.246 6.312m41.36-32.016c.952-.843-22.444 17.718-28.214 22.319m-16.277-58.155c-.199.114 10.511-7.368 13.111-8.983.467-.29 6.59 8.383 9.052 11.7"/><path stroke="#17171c" stroke-width="2" d="M24.924 109.547c3.406-2.138 5.11-3.266 9.442-6.217"/><path stroke="#17171c" stroke-width="1.9976" d="M38.809 100.409c7.47-5.191 18.62-11.944 27.604-17.98"/><path stroke="#17171c" stroke-width="2.0022" d="M87.688 15.414c-11.573 4.229-16.565 17.54-6.521 29.664"/></g></g><defs><clipPath id="-5uSM0DmBVa"><path fill="#fff" d="M0 0h192v192H0z"/></clipPath><clipPath id="RvX2HNLr6Mb"><path fill="#fff" d="M0 0h192v192H0z"/></clipPath></defs></svg>