<svg xmlns="http://www.w3.org/2000/svg" width="192" height="192" fill="none" viewBox="0 0 192 192"><g clip-path="url(#JzkFWn_Ppka)"><g clip-path="url(#k4e-r722pgb)"><path fill="#f28f52" fill-rule="evenodd" stroke="#f28f52" stroke-linecap="round" stroke-linejoin="round" stroke-miterlimit="1.5" stroke-width="1.0017" d="M67.618 32.724a49.3 49.3 0 0 0-8.993 10.327l4.05 6.482a41.2 41.2 0 0 0-4.36 12.374l-7.34 2.855a46.3 46.3 0 0 0 .635 13.394l7.547 1.506a37.7 37.7 0 0 0 5.493 11.48l-3.403 7.16a43.5 43.5 0 0 0 9.892 8.614l6.623-4.354a37.7 37.7 0 0 0 12.127 3.863l2.528 7.269c4.459.249 8.957-.16 13.354-1.211l1.82-7.663a41.1 41.1 0 0 0 11.656-6.018l6.979 3.121a49.3 49.3 0 0 0 8.993-10.326l-4.05-6.484a41.2 41.2 0 0 0 4.361-12.374l7.34-2.855c.436-4.499.223-9.01-.636-13.393l-7.547-1.506a37.6 37.6 0 0 0-5.493-11.48l3.404-7.16a43.5 43.5 0 0 0-9.892-8.614l-6.624 4.355a37.6 37.6 0 0 0-12.126-3.864l-2.528-7.269a46.3 46.3 0 0 0-13.354 1.21l-1.82 7.663a41.2 41.2 0 0 0-11.658 6.018zm15.304 22.407c7.025-8.067 19.001-9.151 26.728-2.422 7.727 6.73 8.297 18.74 1.272 26.807s-19 9.152-26.728 2.422c-7.727-6.729-8.297-18.74-1.272-26.807" clip-rule="evenodd"/><path stroke="#17171c" stroke-linecap="round" stroke-linejoin="round" stroke-miterlimit="1.5" stroke-width="2" d="M96.193 58.243c-6.948-1.034-13.467 11.148-4.776 16.488M48.813 25.993C38.695 37.671 35.05 53.556 35.843 68.467m82.039-58.057c15.57 4.921 31.601 16.662 37.855 36.215"/><path fill="#f5e4e2" fill-rule="evenodd" d="M27.554 181.673c6.432-22.226.06-23.338-4.918-40.081-7.067-23.763 3.38-40.147 7.476-46.556 1.978-3.096 9.87-12 13.987-12.247 4.263-.256 4.378 6.395 3.925 8.662-1.372 6.866-3.248 13.946-3.248 21.115 0 3.053 3.425 26.03 12.054 20.378 3.79-2.482-1.364-18.564 5.778-20.009 3.191-.645 12.328 4.829 12.08 29.002-.062 6.098-1.774 11.657-6.485 21.148-1.03 2.076-6.305 9.883-3.024 19.502" clip-rule="evenodd"/><path stroke="#17171c" stroke-linecap="round" stroke-linejoin="round" stroke-miterlimit="1.5" stroke-width="3.0036" d="M27.554 181.673c6.432-22.226.06-23.338-4.918-40.081-7.067-23.763 3.38-40.147 7.476-46.556 1.978-3.096 9.87-12 13.987-12.247 4.263-.256 4.378 6.395 3.925 8.662-1.372 6.866-3.248 13.946-3.248 21.115 0 3.053 3.425 26.03 12.054 20.378 3.79-2.482-1.364-18.564 5.778-20.009 3.191-.645 12.328 4.829 12.08 29.002-.062 6.099-1.774 11.657-6.485 21.148-1.03 2.076-6.305 9.883-3.024 19.502"/><path fill="#f5e4e2" fill-rule="evenodd" d="M165.132 181.556c-6.433-22.226-.061-23.338 4.918-40.081 7.066-23.763-3.38-40.147-7.476-46.556-1.979-3.096-9.87-12-13.987-12.247-4.263-.256-4.379 6.395-3.926 8.662 1.373 6.865 3.249 13.946 3.249 21.115 0 3.053-3.426 26.03-12.054 20.378-3.791-2.482 1.364-18.564-5.778-20.009-3.192-.645-12.328 4.829-12.081 29.002.063 6.098 1.775 11.656 6.485 21.148 1.03 2.076 6.306 9.883 3.025 19.501" clip-rule="evenodd"/><path stroke="#17171c" stroke-linecap="round" stroke-linejoin="round" stroke-miterlimit="1.5" stroke-width="3.0036" d="M165.132 181.556c-6.433-22.226-.061-23.338 4.918-40.081 7.066-23.763-3.38-40.147-7.476-46.556-1.979-3.096-9.87-12-13.987-12.247-4.263-.256-4.379 6.395-3.926 8.662 1.373 6.865 3.249 13.946 3.249 21.115 0 3.053-3.426 26.03-12.054 20.378-3.791-2.482 1.364-18.564-5.778-20.009-3.192-.645-12.328 4.829-12.081 29.002.063 6.098 1.775 11.656 6.485 21.148 1.03 2.076 6.306 9.883 3.025 19.501"/><path fill="#f5e4e2" fill-rule="evenodd" d="M63.886 118.532c1.965 1.939 2.8 4.874 3.043 6.658z" clip-rule="evenodd"/><path stroke="#17171c" stroke-linecap="round" stroke-linejoin="round" stroke-miterlimit="1.5" stroke-width="1.9961" d="M63.886 118.532c1.965 1.939 2.8 4.874 3.043 6.658"/><path fill="#f5e4e2" fill-rule="evenodd" d="M128.799 118.415c-1.965 1.938-2.799 4.873-3.043 6.657z" clip-rule="evenodd"/><path stroke="#17171c" stroke-linecap="round" stroke-linejoin="round" stroke-miterlimit="1.5" stroke-width="1.9961" d="M128.799 118.415c-1.965 1.938-2.799 4.873-3.043 6.657"/><path stroke="#17171c" stroke-linecap="round" stroke-linejoin="round" stroke-miterlimit="1.5" stroke-width="2" d="M36.46 88c-5.368 9.8-7.546 17.379-6.475 32.583m126.24-32.7c5.368 9.8 7.546 17.379 6.475 32.583"/><path stroke="#17171c" stroke-linecap="round" stroke-linejoin="round" stroke-miterlimit="1.5" stroke-width="1.9961" d="M15.649 150.589c2.362 4.695 6.601 11.755 5.524 18.272m158.107-33.766c-.871 8.83-2.793 17.37-7.867 23.717m-60.224-29.029c-1.875 5.197-2.049 13.464-.147 21.312"/></g></g><defs><clipPath id="JzkFWn_Ppka"><path fill="#fff" d="M0 0h192v192H0z"/></clipPath><clipPath id="k4e-r722pgb"><path fill="#fff" d="M0 0h192v192H0z"/></clipPath></defs></svg>