<svg xmlns="http://www.w3.org/2000/svg" width="192" height="192" fill="none" viewBox="0 0 192 192"><g stroke-linecap="round" stroke-linejoin="round" stroke-miterlimit="1.5" clip-path="url(#ZqvcurNk5ja)"><path fill="#a1ccfa" fill-rule="evenodd" stroke="#a1ccfa" d="M93.503 21.387c-68.81 6.298-94.084 90.34-41.628 132.79 15.394 12.459 36.469 17.59 55.664 14.737 35.774-5.315 67.918-36.251 62.901-80.147-7.086-61.994-62.483-67.399-76.937-67.38" clip-rule="evenodd"/><path fill="#f28f52" fill-rule="evenodd" stroke="#17171c" stroke-width="2" d="M142.846 63.517c-4.526 2.725-20.12-4.454-22.355-3.983-7.049 1.484-10.01 6.929-9.548 13.846.211 3.175 1.014 7.932-2.029 10.145-1.956 1.422-4.932.925-7.162 1.313-6.422 1.117-11.793 4.174-14.562 10.265-2.741 6.031-2.625 14.79 2.507 19.455 2.244 2.041 6.868 1.94 8.755 4.366 2.25 2.894.262 7.958 2.106 11.032 1.364 2.272 4.727 2.789 7.088 3.697 5.544 2.133 12.513-7.126 18.077-5.457 6.943 2.083 10.737.992 18.824.414 2.583-.185-4.539 11.161.837 13.324 7.146 2.875 22.13-27.096 18.229-35.96-2.185-4.966-7.043 6.281-12.323 3.292-2.284-1.293-1.428-5.021-.506-7.575.647-1.793 7.213-.812 9.107-2.065 4.001-2.647.688-6.963-2.876-6.194-4.861 1.048-11.117-7.714-6.623-7.98 15.792-.937 22.128-12.968 4.43-37.765-.875-1.226-5.364 11.849-11.976 15.83m-117.678 47.22c-1.742-11.717-1.507-19.943.114-28.564 3.201-17.024 11.632-28.256 14.279-31.586 3.295-4.146 8.333.428 10.947 3.042 4.684 4.684-.864 13.594 3.466 19.162 4.018 5.166 11.292.07 14.065 6.727 1.535 3.683-1.013 5.701-3.465 8.153-3.213 3.213-6.705 7.52-5.3 12.435.795 2.784 2.975 5.071 4.077 7.746 3.949 9.59 2.231 20.243-8.969 22.22-5.062.893-11.451-1.744-14.066-6.32-1.556-2.723-1.503-6.174-3.058-8.765-1.334-2.224-11.654-1.324-12.09-4.25" clip-rule="evenodd"/><path stroke="#17171c" stroke-width="2" d="M59.728 17.377c-13.55 3.827-43.13 31.89-46.35 57.244m9.084 65.937c-.083-.023 13.858 26.505 49.046 38.815m6.088 1.949c4.028 1.139 8.035 1.416 12.291 1.416m20.595-172.202c5.875.622 12.003 2.587 17.419 4.754m7.212 3.62c23.043 10.612 41.286 33.663 44.032 53.103M55.23 44.31c14.798-12.979 36.061-18.084 58.429-13.084"/><path fill="#f5e4e2" fill-rule="evenodd" stroke="#17171c" stroke-width="2" d="M60.126 159.641c.583-1.238 9.703-8.356 14.044-8.91 6.877-.877 9.077 6.656 12.142 7.252 3.34.65 7.437-1.846 9.109-2.414 18.576-6.311 26.082 9.204 25.524 9.899-.252.315-18.837 7.481-39.743 2.454-10.59-2.546-19.518-6.484-21.076-8.281" clip-rule="evenodd"/><path stroke="#17171c" stroke-width="2" d="M49.736 136.602c23.884 6.183 25.01-20.676 21.45-28.303m31.111-37.787c-1.688-10.717 11.522-23.42 21.392-19.546 11.101 4.356 17.503 3.048 18.429.327"/></g><defs><clipPath id="ZqvcurNk5ja"><path fill="#fff" d="M0 0h192v192H0z"/></clipPath></defs></svg>